<svg width="25" height="25" viewBox="0 0 25 25" fill="none" xmlns="http://www.w3.org/2000/svg">
<g clip-path="url(#clip0_980_46)">
<path d="M8.59375 14.8609C8.7125 16.3516 9.89063 17.5125 12.0031 17.65V18.75H12.9406V17.6422C15.1281 17.4891 16.4062 16.3203 16.4062 14.6234C16.4062 13.0813 15.4281 12.2859 13.6797 11.8734L12.9406 11.6984V8.70313C13.8781 8.80938 14.475 9.32188 14.6188 10.0312H16.2625C16.1438 8.59531 14.9125 7.47187 12.9406 7.35V6.25H12.0031V7.37344C10.1359 7.55625 8.8625 8.67969 8.8625 10.2688C8.8625 11.675 9.80937 12.5688 11.3828 12.9359L12.0031 13.0891V16.2672C11.0422 16.1219 10.4062 15.5953 10.2625 14.8609H8.59375ZM11.9953 11.4766C11.0734 11.2625 10.5734 10.8266 10.5734 10.1703C10.5734 9.43594 11.1125 8.88594 12.0031 8.725V11.475L11.9953 11.4766ZM13.0766 13.3406C14.1969 13.6 14.7141 14.0203 14.7141 14.7625C14.7141 15.6094 14.0703 16.1906 12.9406 16.2969V13.3094L13.0766 13.3406Z" fill="#D9D9D9"/>
<path d="M12.5 23.4375C9.59919 23.4375 6.8172 22.2852 4.76602 20.234C2.71484 18.1828 1.5625 15.4008 1.5625 12.5C1.5625 9.59919 2.71484 6.8172 4.76602 4.76602C6.8172 2.71484 9.59919 1.5625 12.5 1.5625C15.4008 1.5625 18.1828 2.71484 20.234 4.76602C22.2852 6.8172 23.4375 9.59919 23.4375 12.5C23.4375 15.4008 22.2852 18.1828 20.234 20.234C18.1828 22.2852 15.4008 23.4375 12.5 23.4375ZM12.5 25C15.8152 25 18.9946 23.683 21.3388 21.3388C23.683 18.9946 25 15.8152 25 12.5C25 9.18479 23.683 6.00537 21.3388 3.66117C18.9946 1.31696 15.8152 0 12.5 0C9.18479 0 6.00537 1.31696 3.66117 3.66117C1.31696 6.00537 0 9.18479 0 12.5C0 15.8152 1.31696 18.9946 3.66117 21.3388C6.00537 23.683 9.18479 25 12.5 25Z" fill="#D9D9D9"/>
<path d="M12.5 21.0938C10.2208 21.0938 8.03494 20.1883 6.4233 18.5767C4.81166 16.9651 3.90625 14.7792 3.90625 12.5C3.90625 10.2208 4.81166 8.03494 6.4233 6.4233C8.03494 4.81166 10.2208 3.90625 12.5 3.90625C14.7792 3.90625 16.9651 4.81166 18.5767 6.4233C20.1883 8.03494 21.0938 10.2208 21.0938 12.5C21.0938 14.7792 20.1883 16.9651 18.5767 18.5767C16.9651 20.1883 14.7792 21.0938 12.5 21.0938ZM12.5 21.875C13.7311 21.875 14.9502 21.6325 16.0877 21.1614C17.2251 20.6902 18.2586 19.9997 19.1291 19.1291C19.9997 18.2586 20.6902 17.2251 21.1614 16.0877C21.6325 14.9502 21.875 13.7311 21.875 12.5C21.875 11.2689 21.6325 10.0498 21.1614 8.91234C20.6902 7.77492 19.9997 6.74142 19.1291 5.87087C18.2586 5.00032 17.2251 4.30977 16.0877 3.83863C14.9502 3.36749 13.7311 3.125 12.5 3.125C10.0136 3.125 7.62903 4.11272 5.87087 5.87087C4.11272 7.62903 3.125 10.0136 3.125 12.5C3.125 14.9864 4.11272 17.371 5.87087 19.1291C7.62903 20.8873 10.0136 21.875 12.5 21.875Z" fill="#D9D9D9"/>
</g>
<defs>
<clipPath id="clip0_980_46">
<rect width="25" height="25" fill="white"/>
</clipPath>
</defs>
</svg>
