<svg width="27" height="27" viewBox="0 0 27 27" fill="none" xmlns="http://www.w3.org/2000/svg">
<path fill-rule="evenodd" clip-rule="evenodd" d="M23.787 6.15599L24.3425 8.22824C24.4164 8.50479 24.412 8.79647 24.3297 9.07065C24.2473 9.34483 24.0903 9.59069 23.8762 9.78074L23.8015 9.84341C23.4335 10.1305 23.1567 10.5182 23.0047 10.9595C22.8528 11.4008 22.8322 11.8767 22.9454 12.3295C23.0586 12.7823 23.3008 13.1925 23.6426 13.5103C23.9844 13.8281 24.4111 14.0399 24.8709 14.12L24.975 14.1359C25.2663 14.174 25.5397 14.2977 25.7607 14.4912C25.9817 14.6847 26.1403 14.9395 26.2165 15.2232L26.7821 17.333C26.8477 17.5777 26.8645 17.8329 26.8315 18.084C26.7985 18.3351 26.7163 18.5773 26.5897 18.7967C26.4631 19.0161 26.2945 19.2084 26.0936 19.3626C25.8926 19.5168 25.6633 19.63 25.4186 19.6955L5.85806 24.9364C5.36403 25.0686 4.83771 24.9992 4.39485 24.7434C3.95199 24.4877 3.62886 24.0664 3.49653 23.5724L2.96473 21.5874C2.88574 21.292 2.88876 20.9807 2.97346 20.6868C3.05815 20.393 3.22132 20.1278 3.44542 19.9197L3.52401 19.8522C3.88433 19.5583 4.15196 19.1664 4.29465 18.7238C4.43734 18.2812 4.44901 17.8068 4.32825 17.3577C4.20748 16.9087 3.95944 16.5041 3.61401 16.1928C3.26858 15.8815 2.84049 15.6767 2.38133 15.6031C2.06377 15.5519 1.76779 15.4099 1.52904 15.1944C1.29029 14.9788 1.11896 14.6988 1.03567 14.3881L0.501457 12.3954C0.43592 12.1507 0.419227 11.8955 0.452333 11.6444C0.485438 11.3932 0.567694 11.1511 0.694401 10.9317C0.821108 10.7124 0.989785 10.5202 1.1908 10.366C1.39181 10.2119 1.62122 10.0988 1.86592 10.0334L21.425 4.79249C21.6697 4.72686 21.9248 4.71007 22.176 4.74308C22.4271 4.77609 22.6693 4.85825 22.8887 4.98486C23.1081 5.11148 23.3004 5.28008 23.4546 5.48102C23.6088 5.68196 23.7219 5.91132 23.7875 6.15599M21.7794 6.44865L2.38712 11.6447C2.11953 11.7165 1.96042 11.9918 2.03226 12.2594L2.41364 13.6832C3.23835 13.8494 4.00029 14.2425 4.61362 14.8184C5.22695 15.3942 5.6673 16.1299 5.88506 16.9425C6.10287 17.7551 6.08941 18.6125 5.8462 19.4179C5.603 20.2233 5.13972 20.9448 4.50855 21.5011L4.88992 22.9249C4.96224 23.1925 5.23706 23.3516 5.50465 23.2798L24.8964 18.0837C25.164 18.0119 25.3231 17.7366 25.2513 17.469L24.8704 16.0457C24.0456 15.8795 23.2836 15.4863 22.6703 14.9103C22.057 14.3344 21.6167 13.5986 21.399 12.7859C21.1811 11.9733 21.1945 11.116 21.4376 10.3106C21.6807 9.50517 22.1439 8.78363 22.775 8.22727L22.3936 6.8035C22.3766 6.73981 22.3472 6.68009 22.3071 6.62777C22.267 6.57545 22.217 6.53155 22.1599 6.49859C22.1028 6.46563 22.0397 6.44425 21.9744 6.43568C21.909 6.42711 21.843 6.43152 21.7794 6.44865ZM21.1603 16.8432C21.2094 17.0267 21.222 17.218 21.1971 17.4063C21.1723 17.5947 21.1106 17.7763 21.0156 17.9408C20.9206 18.1052 20.7942 18.2494 20.6434 18.365C20.4927 18.4806 20.3207 18.5654 20.1372 18.6146C19.9537 18.6637 19.7623 18.6762 19.574 18.6514C19.3857 18.6266 19.2041 18.5649 19.0396 18.4699C18.8751 18.3749 18.731 18.2484 18.6153 18.0977C18.4997 17.947 18.4149 17.7749 18.3658 17.5914C18.2666 17.2209 18.3186 16.8261 18.5105 16.4939C18.7024 16.1617 19.0183 15.9193 19.3889 15.8201C19.7595 15.7208 20.1543 15.7729 20.4865 15.9647C20.8187 16.1566 21.0611 16.4726 21.1603 16.8432ZM20.1623 13.1172C20.2616 13.4877 20.2096 13.8826 20.0178 14.2148C19.8259 14.5471 19.51 14.7895 19.1394 14.8888C18.7688 14.9881 18.374 14.9361 18.0418 14.7443C17.7095 14.5525 17.4671 14.2365 17.3678 13.8659C17.2741 13.4973 17.3295 13.1066 17.5218 12.7785C17.7141 12.4503 18.0279 12.2112 18.3953 12.1127C18.7626 12.0143 19.154 12.0645 19.4846 12.2525C19.8153 12.4405 20.059 12.7511 20.1623 13.1172ZM19.1633 9.39165C19.2124 9.57514 19.225 9.76651 19.2002 9.95485C19.1754 10.1432 19.1137 10.3248 19.0188 10.4893C18.9238 10.6538 18.7973 10.798 18.6466 10.9137C18.4959 11.0293 18.3239 11.1141 18.1404 11.1633C17.9569 11.2124 17.7655 11.225 17.5772 11.2002C17.3889 11.1754 17.2073 11.1137 17.0428 11.0188C16.8782 10.9238 16.734 10.7973 16.6184 10.6466C16.5028 10.4959 16.4179 10.3239 16.3688 10.1404C16.2695 9.76984 16.3215 9.375 16.5133 9.04276C16.7051 8.71051 17.0211 8.46807 17.3916 8.36878C17.7622 8.26949 18.1571 8.32147 18.4893 8.5133C18.8215 8.70512 19.064 9.02107 19.1633 9.39165ZM14.1668 3.06015L15.3973 4.81708C15.4153 4.84311 15.4325 4.86947 15.4488 4.89615L3.67733 8.05033L11.4808 2.5862C11.8998 2.293 12.4181 2.17821 12.9217 2.26709C13.4253 2.35597 13.8735 2.64123 14.1668 3.06015Z" fill="white"/>
</svg>
