<svg width="60" height="60" viewBox="0 0 60 60" fill="none" xmlns="http://www.w3.org/2000/svg">
<g clip-path="url(#clip0_2881_262)">
<path d="M30 54.375C36.4646 54.375 42.6645 51.8069 47.2357 47.2357C51.8069 42.6645 54.375 36.4647 54.375 30C54.375 23.5353 51.8069 17.3355 47.2357 12.7643C42.6645 8.19307 36.4647 5.625 30 5.625C23.5353 5.625 17.3355 8.19307 12.7643 12.7643C8.19307 17.3355 5.625 23.5353 5.625 30C5.625 36.4646 8.19307 42.6645 12.7643 47.2357C17.3355 51.8069 23.5353 54.375 30 54.375ZM30 -1.31134e-06C37.9565 -9.63552e-07 45.5871 3.16071 51.2132 8.7868C56.8393 14.4129 60 22.0435 60 30C60 37.9565 56.8393 45.5871 51.2132 51.2132C45.5871 56.8393 37.9565 60 30 60C22.0435 60 14.4129 56.8393 8.78679 51.2132C3.1607 45.5871 -1.65913e-06 37.9565 -1.31134e-06 30C-9.63552e-07 22.0435 3.1607 14.4129 8.78679 8.78679C14.4129 3.1607 22.0435 -1.65913e-06 30 -1.31134e-06ZM41.25 30C41.25 32.9837 40.0647 35.8452 37.9549 37.955C35.8452 40.0647 32.9837 41.25 30 41.25C27.0163 41.25 24.1548 40.0647 22.045 37.955C19.9353 35.8452 18.75 32.9837 18.75 30C18.75 27.0163 19.9353 24.1548 22.045 22.045C24.1548 19.9353 27.0163 18.75 30 18.75C32.9837 18.75 35.8452 19.9353 37.9549 22.045C40.0647 24.1548 41.25 27.0163 41.25 30Z" fill="white"/>
</g>
<defs>
<clipPath id="clip0_2881_262">
<rect width="60" height="60" fill="white" transform="translate(60) rotate(90)"/>
</clipPath>
</defs>
</svg>
