<svg width="58" height="58" viewBox="0 0 58 58" fill="none" xmlns="http://www.w3.org/2000/svg">
<g clip-path="url(#clip0_106_53)">
<path d="M17.9886 10.177C17.7854 10.1837 17.5843 10.221 17.3922 10.2876L5.7916 14.3752C5.29018 14.5519 4.83845 14.9593 4.6088 15.4388C4.37914 15.9179 4.34556 16.5262 4.52211 17.0275L11.6874 37.3697C11.8639 37.871 12.2711 38.3263 12.7505 38.5558C13.2298 38.7856 13.8382 38.8193 14.3393 38.6426L25.9401 34.5549C26.4415 34.3783 26.8932 33.971 27.1229 33.4916L27.1263 33.4847C27.3531 33.0064 27.3852 32.4017 27.2095 31.9027L20.0442 11.5605C19.8687 11.0616 19.4645 10.6084 18.988 10.3777L18.9812 10.3743C18.7415 10.2593 18.4688 10.1944 18.1939 10.1795C18.1251 10.1759 18.057 10.1745 17.9886 10.177ZM22.3175 11.7498L29.1739 31.2112C29.5397 32.2529 29.4773 33.397 29.0005 34.3927C28.5239 35.3875 27.6718 36.1524 26.6316 36.5192L23.5625 37.5999L30.2376 37.9958C30.7683 38.0275 31.3432 37.8253 31.7407 37.4726C32.1381 37.1195 32.406 36.5715 32.4375 36.0409L33.718 14.5136C33.7496 13.9832 33.5511 13.405 33.1983 13.0074C32.8454 12.6098 32.2975 12.3422 31.7668 12.3105L22.3174 11.7496L22.3175 11.7498ZM35.7392 15.6254L34.5131 36.1654C34.4476 37.2673 33.9475 38.2981 33.1226 39.0317C32.2969 39.7632 31.2146 40.1371 30.1134 40.0714L27.2142 39.8981L34.9036 42.5689C35.4057 42.7431 36.0165 42.7065 36.4947 42.4748C36.9731 42.2427 37.3763 41.7866 37.5506 41.2844L44.6229 20.911C44.7972 20.4086 44.7606 19.7979 44.5288 19.3196C44.2968 18.8412 43.8408 18.4345 43.3385 18.2604L35.7393 15.6257L35.7392 15.6254ZM12.8853 17.3723C15.5721 20.1834 20.4317 19.445 21.8088 22.5569C23.0933 25.4602 20.1273 27.6574 17.5267 26.7777L19.3748 30.2288L17.2743 30.9705L16.1024 27.4273C14.9132 29.9308 11.2756 30.0087 10.0745 27.2903C8.61092 23.9783 12.8265 21.2914 12.8853 17.3723ZM46.3846 22.1723L39.518 41.9674C39.1562 43.0097 38.3955 43.8659 37.403 44.3477L37.3924 44.3509C36.4018 44.8277 35.2627 44.893 34.224 44.5326L31.9655 43.7485L36.7336 47.9331C37.1333 48.2836 37.7136 48.4779 38.244 48.4432C38.7744 48.4086 39.3188 48.141 39.6693 47.7413L53.8937 31.5242C54.2442 31.1246 54.4385 30.5476 54.4037 30.0172C54.3692 29.4868 54.0981 28.939 53.6985 28.5885L46.3847 22.1722L46.3846 22.1723Z" fill="white"/>
</g>
<defs>
<clipPath id="clip0_106_53">
<rect width="57" height="57" fill="white" transform="translate(0.737305) rotate(0.741074)"/>
</clipPath>
</defs>
</svg>
