<svg width="61" height="60" viewBox="0 0 61 60" fill="none" xmlns="http://www.w3.org/2000/svg">
<path d="M30.4872 4.0249C16.1422 4.0249 4.51221 15.6549 4.51221 29.9999C4.51221 44.3449 16.1422 55.9749 30.4872 55.9749C44.8322 55.9749 56.4622 44.3449 56.4622 29.9999C56.4622 15.6549 44.8322 4.0249 30.4872 4.0249ZM40.1697 40.7599C37.8147 42.9299 34.6047 44.2049 30.7697 44.2049C28.9049 44.2042 27.0586 43.8363 25.336 43.1221C23.6134 42.4079 22.0484 41.3613 20.7303 40.0423C19.4121 38.7232 18.3667 37.1575 17.6537 35.4344C16.9407 33.7113 16.574 31.8647 16.5747 29.9999C16.5734 28.1343 16.9397 26.2867 17.6527 24.5627C18.3658 22.8387 19.4115 21.2722 20.7303 19.9525C22.049 18.6329 23.6148 17.586 25.3383 16.8718C27.0618 16.1575 28.9091 15.7899 30.7747 15.7899C34.5997 15.7899 37.8122 17.1974 40.2747 19.4899L36.2072 23.5649C34.7322 22.1549 32.8622 21.4399 30.7797 21.4399C27.0797 21.4399 23.9497 23.9399 22.8297 27.2974C22.5472 28.1499 22.3847 29.0599 22.3847 29.9999C22.3847 30.9399 22.5472 31.8499 22.8297 32.6999C23.9497 36.0599 27.0797 38.5574 30.7747 38.5574C32.6872 38.5574 34.3097 38.0524 35.5797 37.1999C36.3192 36.7152 36.952 36.0848 37.4395 35.3472C37.9269 34.6095 38.2588 33.7802 38.4147 32.9099H30.7747V27.4149H44.1497C44.318 28.3482 44.403 29.3166 44.4047 30.3199C44.4047 34.6499 42.8522 38.2849 40.1697 40.7599Z" fill="white"/>
</svg>
