<svg width="289" height="274" viewBox="0 0 289 274" fill="none" xmlns="http://www.w3.org/2000/svg">
<ellipse cx="144.83" cy="138.122" rx="130.124" ry="125.721" fill="#0F131E"/>
<mask id="path-2-outside-1_2656_107" maskUnits="userSpaceOnUse" x="0" y="0.638184" width="139" height="132" fill="black">
<rect fill="white" y="0.638184" width="139" height="132"/>
<path fill-rule="evenodd" clip-rule="evenodd" d="M134.115 1.85773C123.999 2.56664 122.099 2.8285 112.693 4.80857C88.1182 9.98128 67.7812 19.98 48.0242 36.6026C46.201 38.1364 37.2961 47.0616 35.0334 49.6232C28.0784 57.4959 21.78 66.5046 16.6245 75.9543C14.12 80.5447 10.3288 88.4752 10.087 89.6295C10.0347 89.8796 9.62468 90.9058 9.17606 91.9104C7.79206 95.0091 4.46451 106.008 3.83896 109.551C3.74302 110.095 3.38248 111.489 3.03805 112.649C2.32285 115.057 1.04937 123.269 1.34505 123.564C1.45278 123.672 1.37687 124.322 1.17596 125.008C0.761148 126.428 1.14332 131.565 1.6635 131.565C1.85183 131.565 2.00595 131.299 2.00595 130.975C2.00595 130.651 2.13884 130.385 2.30084 130.385C2.46283 130.385 2.6087 129.987 2.62442 129.501C2.64054 129.014 2.77739 127.908 2.92877 127.043C3.08014 126.178 3.47175 123.878 3.79927 121.932C6.62507 105.131 12.3117 88.5806 19.7153 75.6103C27.8884 61.2914 41.1821 45.4567 53.1077 35.8347C67.3464 24.3467 85.0161 15.0325 101.875 10.1283C111.181 7.42128 122.39 5.326 131.883 4.51959L137.583 4.03521L137.818 2.86195C137.947 2.21674 138.007 1.66784 137.952 1.64228C137.896 1.61672 136.17 1.71344 134.115 1.85773ZM133.133 7.22468C126.341 7.57776 114.289 9.57081 106.396 11.6456C77.246 19.308 50.5822 37.2136 32.9185 60.9886C31.4724 62.9348 30.1394 64.7179 29.9566 64.9511C29.7734 65.1846 29.1325 66.1538 28.5321 67.1049C27.9314 68.0564 27.1874 69.0873 26.8788 69.396C26.5701 69.7046 26.1479 70.3278 25.9403 70.7808C25.5097 71.7209 24.942 72.6751 23.823 74.3395C20.9386 78.6283 13.2533 94.9863 14.114 95.0047C14.2666 95.0083 14.2072 95.1408 13.9823 95.2996C13.7574 95.4585 13.3544 96.2963 13.0867 97.1613C10.5888 105.235 9.86569 107.738 9.71117 108.846C9.61248 109.556 9.24719 111.159 8.89883 112.41C8.55087 113.66 8.36412 114.842 8.48444 115.037C8.60475 115.231 8.52295 115.501 8.30316 115.637C8.08337 115.773 7.90369 116.061 7.90369 116.277C7.90369 116.493 8.10307 116.547 8.34645 116.397C8.66375 116.2 8.67829 116.322 8.39795 116.822C8.18288 117.207 8.09992 117.879 8.21355 118.314C8.34094 118.8 8.26384 119.009 8.01456 118.855C7.74837 118.69 7.67013 119.245 7.7873 120.464C8.01534 122.844 8.16872 123.308 8.72586 123.308C9.05259 123.308 9.04274 123.143 8.69005 122.718C8.29176 122.238 8.31102 122.128 8.79464 122.128C9.42058 122.128 9.68718 121.164 10.1004 117.41C10.2309 116.221 10.4696 115.159 10.63 115.051C10.7905 114.943 11.3248 113.085 11.8171 110.923C13.058 105.473 15.4249 97.9045 17.3507 93.2295C18.2413 91.067 19.0772 88.9438 19.2077 88.5113C19.5132 87.5024 25.1629 76.5567 25.6005 76.1265C26.1211 75.6146 27.9561 72.558 27.9561 72.2026C27.9561 71.982 28.133 71.8011 28.3493 71.8011C28.5655 71.8011 28.7425 71.5357 28.7425 71.2113C28.7425 70.8869 28.9194 70.6215 29.1356 70.6215C29.3519 70.6215 29.5288 70.4462 29.5288 70.2319C29.5288 70.0172 30.1528 69.0001 30.9152 67.9711C32.8571 65.3505 33.1846 64.8992 33.8538 63.9201C34.7931 62.5468 39.6486 56.4799 41.3766 54.5211C43.5655 52.0393 50.0632 45.4755 51.8432 43.9476C58.9138 37.878 67.6735 31.6044 75.0028 27.3612C78.8128 25.1551 87.9283 20.6409 90.3314 19.7696C91.1658 19.4673 93.7946 18.4957 96.1734 17.611C107.383 13.4413 123.389 10.1236 134.902 9.58301C137.033 9.48314 137.066 9.46307 137.188 8.19545C137.303 6.99781 137.236 6.91682 136.205 7.0159C135.597 7.07449 134.214 7.16846 133.133 7.22468ZM124.543 17.8678C124.186 18.2633 123.893 18.9711 123.893 19.4406C123.893 20.4719 125.199 21.8668 126.164 21.8668C127.398 21.8668 128.611 20.7168 128.611 19.5463C128.611 17.4373 125.933 16.332 124.543 17.8678ZM105.801 20.4974C105.369 21.0176 105.391 21.2268 105.936 21.7713C106.701 22.5373 107.536 21.9864 107.318 20.8599C107.134 19.9116 106.427 19.7425 105.801 20.4974ZM96.7631 23.3975C96.7631 24.1441 97.6608 24.7701 98.1008 24.3298C98.665 23.7659 98.2993 22.6532 97.5495 22.6532C97.04 22.6532 96.7631 22.9154 96.7631 23.3975ZM110.663 28.9308C103.408 30.8511 95.2333 33.9903 88.1131 37.5903C73.8351 44.8087 62.6832 53.9754 50.3676 68.6163C48.4481 70.8979 43.0472 78.5875 42.4692 79.8614C42.1126 80.6473 41.4069 81.8107 40.8124 82.592C40.2717 83.3025 38.1973 87.2142 36.9431 89.8875C36.2837 91.2931 35.2304 93.5299 34.6025 94.8585C33.9746 96.1871 33.4606 97.5227 33.4606 97.827C33.4606 98.1313 33.2983 98.5485 33.1001 98.7538C32.5316 99.3427 30.0156 106.936 30.2079 107.482C30.303 107.753 30.189 107.974 29.9546 107.974C29.7207 107.974 29.5265 108.372 29.5237 108.859C29.521 109.345 29.1836 110.812 28.7739 112.118C28.0006 114.584 27.6801 116.051 27.2948 118.885C27.1111 120.234 27.1855 120.556 27.6817 120.556C28.1307 120.556 28.4665 119.737 28.9316 117.509C29.4714 114.924 29.9964 112.651 30.4528 110.923C30.857 109.392 33.1677 102.122 33.4516 101.486C33.6451 101.054 34.6304 98.7537 35.6409 96.375C43.2305 78.5139 56.331 61.62 71.4665 50.1764C84.3936 40.4027 99.9141 33.0521 114.187 29.9436C114.957 29.7762 115.256 29.4966 115.166 29.0283C114.988 28.0906 113.924 28.0674 110.663 28.9308ZM81.8222 30.4937C81.8222 31.5525 82.5661 31.9076 83.2825 31.1908C83.9992 30.4744 83.6442 29.7305 82.5853 29.7305C82.0919 29.7305 81.8222 30.0002 81.8222 30.4937ZM55.7935 46.5391C55.5104 47.1335 54.8817 47.7949 54.3961 48.0084C53.2508 48.5117 53.2826 48.6658 54.6949 49.4695C55.383 49.8611 55.8721 50.4642 55.8721 50.9207C55.8721 52.1974 56.5579 52.2371 57.2868 51.0029C57.6615 50.3687 58.3811 49.6617 58.8859 49.4317C60.0136 48.9178 60.0859 48.2101 59.0113 48.2101C58.4923 48.2101 57.9918 47.7347 57.5624 46.8339C56.7709 45.1747 56.467 45.124 55.7935 46.5391ZM45.4449 59.625C45.2923 59.8719 45.3525 60.2592 45.5786 60.4853C46.107 61.0137 47.3389 60.5529 47.1238 59.9069C46.9052 59.2499 45.7925 59.0627 45.4449 59.625ZM26.1392 89.05C25.9489 89.19 25.3646 89.7896 24.8405 90.3825L23.887 91.4602L24.6919 92.3449C25.1346 92.8316 25.5711 93.4733 25.6619 93.7713C25.7771 94.1492 26.2827 93.8838 27.3321 92.8942L28.8368 91.4747L27.6608 90.1352C27.0136 89.3984 26.3291 88.91 26.1392 89.05ZM17.7333 115.804C17.7333 116.002 17.2179 116.651 16.588 117.245L15.443 118.326L16.588 119.471C17.2179 120.101 17.7333 120.779 17.7333 120.979C17.7333 121.179 18.4619 120.613 19.3524 119.723C20.6039 118.471 20.8497 118.026 20.4337 117.763C20.138 117.576 19.7594 117.42 19.5927 117.416C19.4256 117.413 19.0878 116.968 18.8413 116.427C18.4033 115.466 17.7333 115.089 17.7333 115.804Z"/>
</mask>
<path fill-rule="evenodd" clip-rule="evenodd" d="M134.115 1.85773C123.999 2.56664 122.099 2.8285 112.693 4.80857C88.1182 9.98128 67.7812 19.98 48.0242 36.6026C46.201 38.1364 37.2961 47.0616 35.0334 49.6232C28.0784 57.4959 21.78 66.5046 16.6245 75.9543C14.12 80.5447 10.3288 88.4752 10.087 89.6295C10.0347 89.8796 9.62468 90.9058 9.17606 91.9104C7.79206 95.0091 4.46451 106.008 3.83896 109.551C3.74302 110.095 3.38248 111.489 3.03805 112.649C2.32285 115.057 1.04937 123.269 1.34505 123.564C1.45278 123.672 1.37687 124.322 1.17596 125.008C0.761148 126.428 1.14332 131.565 1.6635 131.565C1.85183 131.565 2.00595 131.299 2.00595 130.975C2.00595 130.651 2.13884 130.385 2.30084 130.385C2.46283 130.385 2.6087 129.987 2.62442 129.501C2.64054 129.014 2.77739 127.908 2.92877 127.043C3.08014 126.178 3.47175 123.878 3.79927 121.932C6.62507 105.131 12.3117 88.5806 19.7153 75.6103C27.8884 61.2914 41.1821 45.4567 53.1077 35.8347C67.3464 24.3467 85.0161 15.0325 101.875 10.1283C111.181 7.42128 122.39 5.326 131.883 4.51959L137.583 4.03521L137.818 2.86195C137.947 2.21674 138.007 1.66784 137.952 1.64228C137.896 1.61672 136.17 1.71344 134.115 1.85773ZM133.133 7.22468C126.341 7.57776 114.289 9.57081 106.396 11.6456C77.246 19.308 50.5822 37.2136 32.9185 60.9886C31.4724 62.9348 30.1394 64.7179 29.9566 64.9511C29.7734 65.1846 29.1325 66.1538 28.5321 67.1049C27.9314 68.0564 27.1874 69.0873 26.8788 69.396C26.5701 69.7046 26.1479 70.3278 25.9403 70.7808C25.5097 71.7209 24.942 72.6751 23.823 74.3395C20.9386 78.6283 13.2533 94.9863 14.114 95.0047C14.2666 95.0083 14.2072 95.1408 13.9823 95.2996C13.7574 95.4585 13.3544 96.2963 13.0867 97.1613C10.5888 105.235 9.86569 107.738 9.71117 108.846C9.61248 109.556 9.24719 111.159 8.89883 112.41C8.55087 113.66 8.36412 114.842 8.48444 115.037C8.60475 115.231 8.52295 115.501 8.30316 115.637C8.08337 115.773 7.90369 116.061 7.90369 116.277C7.90369 116.493 8.10307 116.547 8.34645 116.397C8.66375 116.2 8.67829 116.322 8.39795 116.822C8.18288 117.207 8.09992 117.879 8.21355 118.314C8.34094 118.8 8.26384 119.009 8.01456 118.855C7.74837 118.69 7.67013 119.245 7.7873 120.464C8.01534 122.844 8.16872 123.308 8.72586 123.308C9.05259 123.308 9.04274 123.143 8.69005 122.718C8.29176 122.238 8.31102 122.128 8.79464 122.128C9.42058 122.128 9.68718 121.164 10.1004 117.41C10.2309 116.221 10.4696 115.159 10.63 115.051C10.7905 114.943 11.3248 113.085 11.8171 110.923C13.058 105.473 15.4249 97.9045 17.3507 93.2295C18.2413 91.067 19.0772 88.9438 19.2077 88.5113C19.5132 87.5024 25.1629 76.5567 25.6005 76.1265C26.1211 75.6146 27.9561 72.558 27.9561 72.2026C27.9561 71.982 28.133 71.8011 28.3493 71.8011C28.5655 71.8011 28.7425 71.5357 28.7425 71.2113C28.7425 70.8869 28.9194 70.6215 29.1356 70.6215C29.3519 70.6215 29.5288 70.4462 29.5288 70.2319C29.5288 70.0172 30.1528 69.0001 30.9152 67.9711C32.8571 65.3505 33.1846 64.8992 33.8538 63.9201C34.7931 62.5468 39.6486 56.4799 41.3766 54.5211C43.5655 52.0393 50.0632 45.4755 51.8432 43.9476C58.9138 37.878 67.6735 31.6044 75.0028 27.3612C78.8128 25.1551 87.9283 20.6409 90.3314 19.7696C91.1658 19.4673 93.7946 18.4957 96.1734 17.611C107.383 13.4413 123.389 10.1236 134.902 9.58301C137.033 9.48314 137.066 9.46307 137.188 8.19545C137.303 6.99781 137.236 6.91682 136.205 7.0159C135.597 7.07449 134.214 7.16846 133.133 7.22468ZM124.543 17.8678C124.186 18.2633 123.893 18.9711 123.893 19.4406C123.893 20.4719 125.199 21.8668 126.164 21.8668C127.398 21.8668 128.611 20.7168 128.611 19.5463C128.611 17.4373 125.933 16.332 124.543 17.8678ZM105.801 20.4974C105.369 21.0176 105.391 21.2268 105.936 21.7713C106.701 22.5373 107.536 21.9864 107.318 20.8599C107.134 19.9116 106.427 19.7425 105.801 20.4974ZM96.7631 23.3975C96.7631 24.1441 97.6608 24.7701 98.1008 24.3298C98.665 23.7659 98.2993 22.6532 97.5495 22.6532C97.04 22.6532 96.7631 22.9154 96.7631 23.3975ZM110.663 28.9308C103.408 30.8511 95.2333 33.9903 88.1131 37.5903C73.8351 44.8087 62.6832 53.9754 50.3676 68.6163C48.4481 70.8979 43.0472 78.5875 42.4692 79.8614C42.1126 80.6473 41.4069 81.8107 40.8124 82.592C40.2717 83.3025 38.1973 87.2142 36.9431 89.8875C36.2837 91.2931 35.2304 93.5299 34.6025 94.8585C33.9746 96.1871 33.4606 97.5227 33.4606 97.827C33.4606 98.1313 33.2983 98.5485 33.1001 98.7538C32.5316 99.3427 30.0156 106.936 30.2079 107.482C30.303 107.753 30.189 107.974 29.9546 107.974C29.7207 107.974 29.5265 108.372 29.5237 108.859C29.521 109.345 29.1836 110.812 28.7739 112.118C28.0006 114.584 27.6801 116.051 27.2948 118.885C27.1111 120.234 27.1855 120.556 27.6817 120.556C28.1307 120.556 28.4665 119.737 28.9316 117.509C29.4714 114.924 29.9964 112.651 30.4528 110.923C30.857 109.392 33.1677 102.122 33.4516 101.486C33.6451 101.054 34.6304 98.7537 35.6409 96.375C43.2305 78.5139 56.331 61.62 71.4665 50.1764C84.3936 40.4027 99.9141 33.0521 114.187 29.9436C114.957 29.7762 115.256 29.4966 115.166 29.0283C114.988 28.0906 113.924 28.0674 110.663 28.9308ZM81.8222 30.4937C81.8222 31.5525 82.5661 31.9076 83.2825 31.1908C83.9992 30.4744 83.6442 29.7305 82.5853 29.7305C82.0919 29.7305 81.8222 30.0002 81.8222 30.4937ZM55.7935 46.5391C55.5104 47.1335 54.8817 47.7949 54.3961 48.0084C53.2508 48.5117 53.2826 48.6658 54.6949 49.4695C55.383 49.8611 55.8721 50.4642 55.8721 50.9207C55.8721 52.1974 56.5579 52.2371 57.2868 51.0029C57.6615 50.3687 58.3811 49.6617 58.8859 49.4317C60.0136 48.9178 60.0859 48.2101 59.0113 48.2101C58.4923 48.2101 57.9918 47.7347 57.5624 46.8339C56.7709 45.1747 56.467 45.124 55.7935 46.5391ZM45.4449 59.625C45.2923 59.8719 45.3525 60.2592 45.5786 60.4853C46.107 61.0137 47.3389 60.5529 47.1238 59.9069C46.9052 59.2499 45.7925 59.0627 45.4449 59.625ZM26.1392 89.05C25.9489 89.19 25.3646 89.7896 24.8405 90.3825L23.887 91.4602L24.6919 92.3449C25.1346 92.8316 25.5711 93.4733 25.6619 93.7713C25.7771 94.1492 26.2827 93.8838 27.3321 92.8942L28.8368 91.4747L27.6608 90.1352C27.0136 89.3984 26.3291 88.91 26.1392 89.05ZM17.7333 115.804C17.7333 116.002 17.2179 116.651 16.588 117.245L15.443 118.326L16.588 119.471C17.2179 120.101 17.7333 120.779 17.7333 120.979C17.7333 121.179 18.4619 120.613 19.3524 119.723C20.6039 118.471 20.8497 118.026 20.4337 117.763C20.138 117.576 19.7594 117.42 19.5927 117.416C19.4256 117.413 19.0878 116.968 18.8413 116.427C18.4033 115.466 17.7333 115.089 17.7333 115.804Z" fill="#E1C191"/>
<path fill-rule="evenodd" clip-rule="evenodd" d="M134.115 1.85773C123.999 2.56664 122.099 2.8285 112.693 4.80857C88.1182 9.98128 67.7812 19.98 48.0242 36.6026C46.201 38.1364 37.2961 47.0616 35.0334 49.6232C28.0784 57.4959 21.78 66.5046 16.6245 75.9543C14.12 80.5447 10.3288 88.4752 10.087 89.6295C10.0347 89.8796 9.62468 90.9058 9.17606 91.9104C7.79206 95.0091 4.46451 106.008 3.83896 109.551C3.74302 110.095 3.38248 111.489 3.03805 112.649C2.32285 115.057 1.04937 123.269 1.34505 123.564C1.45278 123.672 1.37687 124.322 1.17596 125.008C0.761148 126.428 1.14332 131.565 1.6635 131.565C1.85183 131.565 2.00595 131.299 2.00595 130.975C2.00595 130.651 2.13884 130.385 2.30084 130.385C2.46283 130.385 2.6087 129.987 2.62442 129.501C2.64054 129.014 2.77739 127.908 2.92877 127.043C3.08014 126.178 3.47175 123.878 3.79927 121.932C6.62507 105.131 12.3117 88.5806 19.7153 75.6103C27.8884 61.2914 41.1821 45.4567 53.1077 35.8347C67.3464 24.3467 85.0161 15.0325 101.875 10.1283C111.181 7.42128 122.39 5.326 131.883 4.51959L137.583 4.03521L137.818 2.86195C137.947 2.21674 138.007 1.66784 137.952 1.64228C137.896 1.61672 136.17 1.71344 134.115 1.85773ZM133.133 7.22468C126.341 7.57776 114.289 9.57081 106.396 11.6456C77.246 19.308 50.5822 37.2136 32.9185 60.9886C31.4724 62.9348 30.1394 64.7179 29.9566 64.9511C29.7734 65.1846 29.1325 66.1538 28.5321 67.1049C27.9314 68.0564 27.1874 69.0873 26.8788 69.396C26.5701 69.7046 26.1479 70.3278 25.9403 70.7808C25.5097 71.7209 24.942 72.6751 23.823 74.3395C20.9386 78.6283 13.2533 94.9863 14.114 95.0047C14.2666 95.0083 14.2072 95.1408 13.9823 95.2996C13.7574 95.4585 13.3544 96.2963 13.0867 97.1613C10.5888 105.235 9.86569 107.738 9.71117 108.846C9.61248 109.556 9.24719 111.159 8.89883 112.41C8.55087 113.66 8.36412 114.842 8.48444 115.037C8.60475 115.231 8.52295 115.501 8.30316 115.637C8.08337 115.773 7.90369 116.061 7.90369 116.277C7.90369 116.493 8.10307 116.547 8.34645 116.397C8.66375 116.2 8.67829 116.322 8.39795 116.822C8.18288 117.207 8.09992 117.879 8.21355 118.314C8.34094 118.8 8.26384 119.009 8.01456 118.855C7.74837 118.69 7.67013 119.245 7.7873 120.464C8.01534 122.844 8.16872 123.308 8.72586 123.308C9.05259 123.308 9.04274 123.143 8.69005 122.718C8.29176 122.238 8.31102 122.128 8.79464 122.128C9.42058 122.128 9.68718 121.164 10.1004 117.41C10.2309 116.221 10.4696 115.159 10.63 115.051C10.7905 114.943 11.3248 113.085 11.8171 110.923C13.058 105.473 15.4249 97.9045 17.3507 93.2295C18.2413 91.067 19.0772 88.9438 19.2077 88.5113C19.5132 87.5024 25.1629 76.5567 25.6005 76.1265C26.1211 75.6146 27.9561 72.558 27.9561 72.2026C27.9561 71.982 28.133 71.8011 28.3493 71.8011C28.5655 71.8011 28.7425 71.5357 28.7425 71.2113C28.7425 70.8869 28.9194 70.6215 29.1356 70.6215C29.3519 70.6215 29.5288 70.4462 29.5288 70.2319C29.5288 70.0172 30.1528 69.0001 30.9152 67.9711C32.8571 65.3505 33.1846 64.8992 33.8538 63.9201C34.7931 62.5468 39.6486 56.4799 41.3766 54.5211C43.5655 52.0393 50.0632 45.4755 51.8432 43.9476C58.9138 37.878 67.6735 31.6044 75.0028 27.3612C78.8128 25.1551 87.9283 20.6409 90.3314 19.7696C91.1658 19.4673 93.7946 18.4957 96.1734 17.611C107.383 13.4413 123.389 10.1236 134.902 9.58301C137.033 9.48314 137.066 9.46307 137.188 8.19545C137.303 6.99781 137.236 6.91682 136.205 7.0159C135.597 7.07449 134.214 7.16846 133.133 7.22468ZM124.543 17.8678C124.186 18.2633 123.893 18.9711 123.893 19.4406C123.893 20.4719 125.199 21.8668 126.164 21.8668C127.398 21.8668 128.611 20.7168 128.611 19.5463C128.611 17.4373 125.933 16.332 124.543 17.8678ZM105.801 20.4974C105.369 21.0176 105.391 21.2268 105.936 21.7713C106.701 22.5373 107.536 21.9864 107.318 20.8599C107.134 19.9116 106.427 19.7425 105.801 20.4974ZM96.7631 23.3975C96.7631 24.1441 97.6608 24.7701 98.1008 24.3298C98.665 23.7659 98.2993 22.6532 97.5495 22.6532C97.04 22.6532 96.7631 22.9154 96.7631 23.3975ZM110.663 28.9308C103.408 30.8511 95.2333 33.9903 88.1131 37.5903C73.8351 44.8087 62.6832 53.9754 50.3676 68.6163C48.4481 70.8979 43.0472 78.5875 42.4692 79.8614C42.1126 80.6473 41.4069 81.8107 40.8124 82.592C40.2717 83.3025 38.1973 87.2142 36.9431 89.8875C36.2837 91.2931 35.2304 93.5299 34.6025 94.8585C33.9746 96.1871 33.4606 97.5227 33.4606 97.827C33.4606 98.1313 33.2983 98.5485 33.1001 98.7538C32.5316 99.3427 30.0156 106.936 30.2079 107.482C30.303 107.753 30.189 107.974 29.9546 107.974C29.7207 107.974 29.5265 108.372 29.5237 108.859C29.521 109.345 29.1836 110.812 28.7739 112.118C28.0006 114.584 27.6801 116.051 27.2948 118.885C27.1111 120.234 27.1855 120.556 27.6817 120.556C28.1307 120.556 28.4665 119.737 28.9316 117.509C29.4714 114.924 29.9964 112.651 30.4528 110.923C30.857 109.392 33.1677 102.122 33.4516 101.486C33.6451 101.054 34.6304 98.7537 35.6409 96.375C43.2305 78.5139 56.331 61.62 71.4665 50.1764C84.3936 40.4027 99.9141 33.0521 114.187 29.9436C114.957 29.7762 115.256 29.4966 115.166 29.0283C114.988 28.0906 113.924 28.0674 110.663 28.9308ZM81.8222 30.4937C81.8222 31.5525 82.5661 31.9076 83.2825 31.1908C83.9992 30.4744 83.6442 29.7305 82.5853 29.7305C82.0919 29.7305 81.8222 30.0002 81.8222 30.4937ZM55.7935 46.5391C55.5104 47.1335 54.8817 47.7949 54.3961 48.0084C53.2508 48.5117 53.2826 48.6658 54.6949 49.4695C55.383 49.8611 55.8721 50.4642 55.8721 50.9207C55.8721 52.1974 56.5579 52.2371 57.2868 51.0029C57.6615 50.3687 58.3811 49.6617 58.8859 49.4317C60.0136 48.9178 60.0859 48.2101 59.0113 48.2101C58.4923 48.2101 57.9918 47.7347 57.5624 46.8339C56.7709 45.1747 56.467 45.124 55.7935 46.5391ZM45.4449 59.625C45.2923 59.8719 45.3525 60.2592 45.5786 60.4853C46.107 61.0137 47.3389 60.5529 47.1238 59.9069C46.9052 59.2499 45.7925 59.0627 45.4449 59.625ZM26.1392 89.05C25.9489 89.19 25.3646 89.7896 24.8405 90.3825L23.887 91.4602L24.6919 92.3449C25.1346 92.8316 25.5711 93.4733 25.6619 93.7713C25.7771 94.1492 26.2827 93.8838 27.3321 92.8942L28.8368 91.4747L27.6608 90.1352C27.0136 89.3984 26.3291 88.91 26.1392 89.05ZM17.7333 115.804C17.7333 116.002 17.2179 116.651 16.588 117.245L15.443 118.326L16.588 119.471C17.2179 120.101 17.7333 120.779 17.7333 120.979C17.7333 121.179 18.4619 120.613 19.3524 119.723C20.6039 118.471 20.8497 118.026 20.4337 117.763C20.138 117.576 19.7594 117.42 19.5927 117.416C19.4256 117.413 19.0878 116.968 18.8413 116.427C18.4033 115.466 17.7333 115.089 17.7333 115.804Z" stroke="#E1C191" stroke-width="2" mask="url(#path-2-outside-1_2656_107)"/>
<mask id="path-3-outside-2_2656_107" maskUnits="userSpaceOnUse" x="147.723" y="0.638184" width="139" height="132" fill="black">
<rect fill="white" x="147.723" y="0.638184" width="139" height="132"/>
<path fill-rule="evenodd" clip-rule="evenodd" d="M152.607 1.85773C162.723 2.56664 164.624 2.8285 174.03 4.80857C198.604 9.98128 218.941 19.98 238.698 36.6026C240.522 38.1364 249.427 47.0616 251.689 49.6232C258.644 57.4959 264.943 66.5046 270.098 75.9543C272.603 80.5447 276.394 88.4752 276.636 89.6295C276.688 89.8796 277.098 90.9058 277.547 91.9104C278.931 95.0091 282.258 106.008 282.884 109.551C282.98 110.095 283.34 111.489 283.685 112.649C284.4 115.057 285.673 123.269 285.378 123.564C285.27 123.672 285.346 124.322 285.547 125.008C285.962 126.428 285.579 131.565 285.059 131.565C284.871 131.565 284.717 131.299 284.717 130.975C284.717 130.651 284.584 130.385 284.422 130.385C284.26 130.385 284.114 129.987 284.098 129.501C284.082 129.014 283.945 127.908 283.794 127.043C283.643 126.178 283.251 123.878 282.923 121.932C280.098 105.131 274.411 88.5806 267.007 75.6103C258.834 61.2914 245.541 45.4567 233.615 35.8347C219.376 24.3467 201.707 15.0325 184.848 10.1283C175.541 7.42128 164.332 5.326 154.84 4.51959L149.139 4.03521L148.905 2.86195C148.776 2.21674 148.715 1.66784 148.771 1.64228C148.826 1.61672 150.553 1.71344 152.607 1.85773ZM153.59 7.22468C160.382 7.57776 172.433 9.57081 180.326 11.6456C209.477 19.308 236.14 37.2136 253.804 60.9886C255.25 62.9348 256.583 64.7179 256.766 64.9511C256.949 65.1846 257.59 66.1538 258.191 67.1049C258.791 68.0564 259.535 69.0873 259.844 69.396C260.153 69.7046 260.575 70.3278 260.782 70.7808C261.213 71.7209 261.781 72.6751 262.9 74.3395C265.784 78.6283 273.469 94.9863 272.609 95.0047C272.456 95.0083 272.515 95.1408 272.74 95.2996C272.965 95.4585 273.368 96.2963 273.636 97.1613C276.134 105.235 276.857 107.738 277.011 108.846C277.11 109.556 277.475 111.159 277.824 112.41C278.172 113.66 278.359 114.842 278.238 115.037C278.118 115.231 278.2 115.501 278.419 115.637C278.639 115.773 278.819 116.061 278.819 116.277C278.819 116.493 278.62 116.547 278.376 116.397C278.059 116.2 278.044 116.322 278.325 116.822C278.54 117.207 278.623 117.879 278.509 118.314C278.382 118.8 278.459 119.009 278.708 118.855C278.974 118.69 279.053 119.245 278.935 120.464C278.707 122.844 278.554 123.308 277.997 123.308C277.67 123.308 277.68 123.143 278.033 122.718C278.431 122.238 278.412 122.128 277.928 122.128C277.302 122.128 277.035 121.164 276.622 117.41C276.492 116.221 276.253 115.159 276.093 115.051C275.932 114.943 275.398 113.085 274.906 110.923C273.665 105.473 271.298 97.9045 269.372 93.2295C268.481 91.067 267.645 88.9438 267.515 88.5113C267.209 87.5024 261.56 76.5567 261.122 76.1265C260.602 75.6146 258.767 72.558 258.767 72.2026C258.767 71.982 258.59 71.8011 258.373 71.8011C258.157 71.8011 257.98 71.5357 257.98 71.2113C257.98 70.8869 257.803 70.6215 257.587 70.6215C257.371 70.6215 257.194 70.4462 257.194 70.2319C257.194 70.0172 256.57 69.0001 255.807 67.9711C253.866 65.3505 253.538 64.8992 252.869 63.9201C251.93 62.5468 247.074 56.4799 245.346 54.5211C243.157 52.0393 236.659 45.4755 234.879 43.9476C227.809 37.878 219.049 31.6044 211.72 27.3612C207.91 25.1551 198.794 20.6409 196.391 19.7696C195.557 19.4673 192.928 18.4957 190.549 17.611C179.339 13.4413 163.334 10.1236 151.821 9.58301C149.69 9.48314 149.656 9.46307 149.534 8.19545C149.419 6.99781 149.486 6.91682 150.517 7.0159C151.126 7.07449 152.509 7.16846 153.59 7.22468ZM162.179 17.8678C162.537 18.2633 162.83 18.9711 162.83 19.4406C162.83 20.4719 161.524 21.8668 160.559 21.8668C159.324 21.8668 158.112 20.7168 158.112 19.5463C158.112 17.4373 160.79 16.332 162.179 17.8678ZM180.922 20.4974C181.354 21.0176 181.331 21.2268 180.787 21.7713C180.021 22.5373 179.187 21.9864 179.405 20.8599C179.589 19.9116 180.295 19.7425 180.922 20.4974ZM189.96 23.3975C189.96 24.1441 189.062 24.7701 188.622 24.3298C188.058 23.7659 188.423 22.6532 189.173 22.6532C189.683 22.6532 189.96 22.9154 189.96 23.3975ZM176.06 28.9308C183.315 30.8511 191.489 33.9903 198.61 37.5903C212.888 44.8087 224.039 53.9754 236.355 68.6163C238.275 70.8979 243.675 78.5875 244.253 79.8614C244.61 80.6473 245.316 81.8107 245.91 82.592C246.451 83.3025 248.525 87.2142 249.78 89.8875C250.439 91.2931 251.492 93.5299 252.12 94.8585C252.748 96.1871 253.262 97.5227 253.262 97.827C253.262 98.1313 253.424 98.5485 253.623 98.7538C254.191 99.3427 256.707 106.936 256.515 107.482C256.42 107.753 256.534 107.974 256.768 107.974C257.002 107.974 257.196 108.372 257.199 108.859C257.202 109.345 257.539 110.812 257.949 112.118C258.722 114.584 259.043 116.051 259.428 118.885C259.612 120.234 259.537 120.556 259.041 120.556C258.592 120.556 258.256 119.737 257.791 117.509C257.251 114.924 256.726 112.651 256.27 110.923C255.866 109.392 253.555 102.122 253.271 101.486C253.078 101.054 252.092 98.7537 251.082 96.375C243.492 78.5139 230.392 61.62 215.256 50.1764C202.329 40.4027 186.809 33.0521 172.535 29.9436C171.766 29.7762 171.467 29.4966 171.556 29.0283C171.735 28.0906 172.799 28.0674 176.06 28.9308ZM204.9 30.4937C204.9 31.5525 204.157 31.9076 203.44 31.1908C202.723 30.4744 203.078 29.7305 204.137 29.7305C204.631 29.7305 204.9 30.0002 204.9 30.4937ZM230.929 46.5391C231.212 47.1335 231.841 47.7949 232.327 48.0084C233.472 48.5117 233.44 48.6658 232.028 49.4695C231.34 49.8611 230.851 50.4642 230.851 50.9207C230.851 52.1974 230.165 52.2371 229.436 51.0029C229.061 50.3687 228.342 49.6617 227.837 49.4317C226.709 48.9178 226.637 48.2101 227.711 48.2101C228.23 48.2101 228.731 47.7347 229.16 46.8339C229.952 45.1747 230.256 45.124 230.929 46.5391ZM241.278 59.625C241.43 59.8719 241.37 60.2592 241.144 60.4853C240.616 61.0137 239.384 60.5529 239.599 59.9069C239.817 59.2499 240.93 59.0627 241.278 59.625ZM260.583 89.05C260.774 89.19 261.358 89.7896 261.882 90.3825L262.836 91.4602L262.031 92.3449C261.588 92.8316 261.152 93.4733 261.061 93.7713C260.946 94.1492 260.44 93.8838 259.391 92.8942L257.886 91.4747L259.062 90.1352C259.709 89.3984 260.394 88.91 260.583 89.05ZM268.989 115.804C268.989 116.002 269.505 116.651 270.135 117.245L271.28 118.326L270.135 119.471C269.505 120.101 268.989 120.779 268.989 120.979C268.989 121.179 268.261 120.613 267.37 119.723C266.119 118.471 265.873 118.026 266.289 117.763C266.585 117.576 266.963 117.42 267.13 117.416C267.297 117.413 267.635 116.968 267.881 116.427C268.319 115.466 268.989 115.089 268.989 115.804Z"/>
</mask>
<path fill-rule="evenodd" clip-rule="evenodd" d="M152.607 1.85773C162.723 2.56664 164.624 2.8285 174.03 4.80857C198.604 9.98128 218.941 19.98 238.698 36.6026C240.522 38.1364 249.427 47.0616 251.689 49.6232C258.644 57.4959 264.943 66.5046 270.098 75.9543C272.603 80.5447 276.394 88.4752 276.636 89.6295C276.688 89.8796 277.098 90.9058 277.547 91.9104C278.931 95.0091 282.258 106.008 282.884 109.551C282.98 110.095 283.34 111.489 283.685 112.649C284.4 115.057 285.673 123.269 285.378 123.564C285.27 123.672 285.346 124.322 285.547 125.008C285.962 126.428 285.579 131.565 285.059 131.565C284.871 131.565 284.717 131.299 284.717 130.975C284.717 130.651 284.584 130.385 284.422 130.385C284.26 130.385 284.114 129.987 284.098 129.501C284.082 129.014 283.945 127.908 283.794 127.043C283.643 126.178 283.251 123.878 282.923 121.932C280.098 105.131 274.411 88.5806 267.007 75.6103C258.834 61.2914 245.541 45.4567 233.615 35.8347C219.376 24.3467 201.707 15.0325 184.848 10.1283C175.541 7.42128 164.332 5.326 154.84 4.51959L149.139 4.03521L148.905 2.86195C148.776 2.21674 148.715 1.66784 148.771 1.64228C148.826 1.61672 150.553 1.71344 152.607 1.85773ZM153.59 7.22468C160.382 7.57776 172.433 9.57081 180.326 11.6456C209.477 19.308 236.14 37.2136 253.804 60.9886C255.25 62.9348 256.583 64.7179 256.766 64.9511C256.949 65.1846 257.59 66.1538 258.191 67.1049C258.791 68.0564 259.535 69.0873 259.844 69.396C260.153 69.7046 260.575 70.3278 260.782 70.7808C261.213 71.7209 261.781 72.6751 262.9 74.3395C265.784 78.6283 273.469 94.9863 272.609 95.0047C272.456 95.0083 272.515 95.1408 272.74 95.2996C272.965 95.4585 273.368 96.2963 273.636 97.1613C276.134 105.235 276.857 107.738 277.011 108.846C277.11 109.556 277.475 111.159 277.824 112.41C278.172 113.66 278.359 114.842 278.238 115.037C278.118 115.231 278.2 115.501 278.419 115.637C278.639 115.773 278.819 116.061 278.819 116.277C278.819 116.493 278.62 116.547 278.376 116.397C278.059 116.2 278.044 116.322 278.325 116.822C278.54 117.207 278.623 117.879 278.509 118.314C278.382 118.8 278.459 119.009 278.708 118.855C278.974 118.69 279.053 119.245 278.935 120.464C278.707 122.844 278.554 123.308 277.997 123.308C277.67 123.308 277.68 123.143 278.033 122.718C278.431 122.238 278.412 122.128 277.928 122.128C277.302 122.128 277.035 121.164 276.622 117.41C276.492 116.221 276.253 115.159 276.093 115.051C275.932 114.943 275.398 113.085 274.906 110.923C273.665 105.473 271.298 97.9045 269.372 93.2295C268.481 91.067 267.645 88.9438 267.515 88.5113C267.209 87.5024 261.56 76.5567 261.122 76.1265C260.602 75.6146 258.767 72.558 258.767 72.2026C258.767 71.982 258.59 71.8011 258.373 71.8011C258.157 71.8011 257.98 71.5357 257.98 71.2113C257.98 70.8869 257.803 70.6215 257.587 70.6215C257.371 70.6215 257.194 70.4462 257.194 70.2319C257.194 70.0172 256.57 69.0001 255.807 67.9711C253.866 65.3505 253.538 64.8992 252.869 63.9201C251.93 62.5468 247.074 56.4799 245.346 54.5211C243.157 52.0393 236.659 45.4755 234.879 43.9476C227.809 37.878 219.049 31.6044 211.72 27.3612C207.91 25.1551 198.794 20.6409 196.391 19.7696C195.557 19.4673 192.928 18.4957 190.549 17.611C179.339 13.4413 163.334 10.1236 151.821 9.58301C149.69 9.48314 149.656 9.46307 149.534 8.19545C149.419 6.99781 149.486 6.91682 150.517 7.0159C151.126 7.07449 152.509 7.16846 153.59 7.22468ZM162.179 17.8678C162.537 18.2633 162.83 18.9711 162.83 19.4406C162.83 20.4719 161.524 21.8668 160.559 21.8668C159.324 21.8668 158.112 20.7168 158.112 19.5463C158.112 17.4373 160.79 16.332 162.179 17.8678ZM180.922 20.4974C181.354 21.0176 181.331 21.2268 180.787 21.7713C180.021 22.5373 179.187 21.9864 179.405 20.8599C179.589 19.9116 180.295 19.7425 180.922 20.4974ZM189.96 23.3975C189.96 24.1441 189.062 24.7701 188.622 24.3298C188.058 23.7659 188.423 22.6532 189.173 22.6532C189.683 22.6532 189.96 22.9154 189.96 23.3975ZM176.06 28.9308C183.315 30.8511 191.489 33.9903 198.61 37.5903C212.888 44.8087 224.039 53.9754 236.355 68.6163C238.275 70.8979 243.675 78.5875 244.253 79.8614C244.61 80.6473 245.316 81.8107 245.91 82.592C246.451 83.3025 248.525 87.2142 249.78 89.8875C250.439 91.2931 251.492 93.5299 252.12 94.8585C252.748 96.1871 253.262 97.5227 253.262 97.827C253.262 98.1313 253.424 98.5485 253.623 98.7538C254.191 99.3427 256.707 106.936 256.515 107.482C256.42 107.753 256.534 107.974 256.768 107.974C257.002 107.974 257.196 108.372 257.199 108.859C257.202 109.345 257.539 110.812 257.949 112.118C258.722 114.584 259.043 116.051 259.428 118.885C259.612 120.234 259.537 120.556 259.041 120.556C258.592 120.556 258.256 119.737 257.791 117.509C257.251 114.924 256.726 112.651 256.27 110.923C255.866 109.392 253.555 102.122 253.271 101.486C253.078 101.054 252.092 98.7537 251.082 96.375C243.492 78.5139 230.392 61.62 215.256 50.1764C202.329 40.4027 186.809 33.0521 172.535 29.9436C171.766 29.7762 171.467 29.4966 171.556 29.0283C171.735 28.0906 172.799 28.0674 176.06 28.9308ZM204.9 30.4937C204.9 31.5525 204.157 31.9076 203.44 31.1908C202.723 30.4744 203.078 29.7305 204.137 29.7305C204.631 29.7305 204.9 30.0002 204.9 30.4937ZM230.929 46.5391C231.212 47.1335 231.841 47.7949 232.327 48.0084C233.472 48.5117 233.44 48.6658 232.028 49.4695C231.34 49.8611 230.851 50.4642 230.851 50.9207C230.851 52.1974 230.165 52.2371 229.436 51.0029C229.061 50.3687 228.342 49.6617 227.837 49.4317C226.709 48.9178 226.637 48.2101 227.711 48.2101C228.23 48.2101 228.731 47.7347 229.16 46.8339C229.952 45.1747 230.256 45.124 230.929 46.5391ZM241.278 59.625C241.43 59.8719 241.37 60.2592 241.144 60.4853C240.616 61.0137 239.384 60.5529 239.599 59.9069C239.817 59.2499 240.93 59.0627 241.278 59.625ZM260.583 89.05C260.774 89.19 261.358 89.7896 261.882 90.3825L262.836 91.4602L262.031 92.3449C261.588 92.8316 261.152 93.4733 261.061 93.7713C260.946 94.1492 260.44 93.8838 259.391 92.8942L257.886 91.4747L259.062 90.1352C259.709 89.3984 260.394 88.91 260.583 89.05ZM268.989 115.804C268.989 116.002 269.505 116.651 270.135 117.245L271.28 118.326L270.135 119.471C269.505 120.101 268.989 120.779 268.989 120.979C268.989 121.179 268.261 120.613 267.37 119.723C266.119 118.471 265.873 118.026 266.289 117.763C266.585 117.576 266.963 117.42 267.13 117.416C267.297 117.413 267.635 116.968 267.881 116.427C268.319 115.466 268.989 115.089 268.989 115.804Z" fill="#E1C191"/>
<path fill-rule="evenodd" clip-rule="evenodd" d="M152.607 1.85773C162.723 2.56664 164.624 2.8285 174.03 4.80857C198.604 9.98128 218.941 19.98 238.698 36.6026C240.522 38.1364 249.427 47.0616 251.689 49.6232C258.644 57.4959 264.943 66.5046 270.098 75.9543C272.603 80.5447 276.394 88.4752 276.636 89.6295C276.688 89.8796 277.098 90.9058 277.547 91.9104C278.931 95.0091 282.258 106.008 282.884 109.551C282.98 110.095 283.34 111.489 283.685 112.649C284.4 115.057 285.673 123.269 285.378 123.564C285.27 123.672 285.346 124.322 285.547 125.008C285.962 126.428 285.579 131.565 285.059 131.565C284.871 131.565 284.717 131.299 284.717 130.975C284.717 130.651 284.584 130.385 284.422 130.385C284.26 130.385 284.114 129.987 284.098 129.501C284.082 129.014 283.945 127.908 283.794 127.043C283.643 126.178 283.251 123.878 282.923 121.932C280.098 105.131 274.411 88.5806 267.007 75.6103C258.834 61.2914 245.541 45.4567 233.615 35.8347C219.376 24.3467 201.707 15.0325 184.848 10.1283C175.541 7.42128 164.332 5.326 154.84 4.51959L149.139 4.03521L148.905 2.86195C148.776 2.21674 148.715 1.66784 148.771 1.64228C148.826 1.61672 150.553 1.71344 152.607 1.85773ZM153.59 7.22468C160.382 7.57776 172.433 9.57081 180.326 11.6456C209.477 19.308 236.14 37.2136 253.804 60.9886C255.25 62.9348 256.583 64.7179 256.766 64.9511C256.949 65.1846 257.59 66.1538 258.191 67.1049C258.791 68.0564 259.535 69.0873 259.844 69.396C260.153 69.7046 260.575 70.3278 260.782 70.7808C261.213 71.7209 261.781 72.6751 262.9 74.3395C265.784 78.6283 273.469 94.9863 272.609 95.0047C272.456 95.0083 272.515 95.1408 272.74 95.2996C272.965 95.4585 273.368 96.2963 273.636 97.1613C276.134 105.235 276.857 107.738 277.011 108.846C277.11 109.556 277.475 111.159 277.824 112.41C278.172 113.66 278.359 114.842 278.238 115.037C278.118 115.231 278.2 115.501 278.419 115.637C278.639 115.773 278.819 116.061 278.819 116.277C278.819 116.493 278.62 116.547 278.376 116.397C278.059 116.2 278.044 116.322 278.325 116.822C278.54 117.207 278.623 117.879 278.509 118.314C278.382 118.8 278.459 119.009 278.708 118.855C278.974 118.69 279.053 119.245 278.935 120.464C278.707 122.844 278.554 123.308 277.997 123.308C277.67 123.308 277.68 123.143 278.033 122.718C278.431 122.238 278.412 122.128 277.928 122.128C277.302 122.128 277.035 121.164 276.622 117.41C276.492 116.221 276.253 115.159 276.093 115.051C275.932 114.943 275.398 113.085 274.906 110.923C273.665 105.473 271.298 97.9045 269.372 93.2295C268.481 91.067 267.645 88.9438 267.515 88.5113C267.209 87.5024 261.56 76.5567 261.122 76.1265C260.602 75.6146 258.767 72.558 258.767 72.2026C258.767 71.982 258.59 71.8011 258.373 71.8011C258.157 71.8011 257.98 71.5357 257.98 71.2113C257.98 70.8869 257.803 70.6215 257.587 70.6215C257.371 70.6215 257.194 70.4462 257.194 70.2319C257.194 70.0172 256.57 69.0001 255.807 67.9711C253.866 65.3505 253.538 64.8992 252.869 63.9201C251.93 62.5468 247.074 56.4799 245.346 54.5211C243.157 52.0393 236.659 45.4755 234.879 43.9476C227.809 37.878 219.049 31.6044 211.72 27.3612C207.91 25.1551 198.794 20.6409 196.391 19.7696C195.557 19.4673 192.928 18.4957 190.549 17.611C179.339 13.4413 163.334 10.1236 151.821 9.58301C149.69 9.48314 149.656 9.46307 149.534 8.19545C149.419 6.99781 149.486 6.91682 150.517 7.0159C151.126 7.07449 152.509 7.16846 153.59 7.22468ZM162.179 17.8678C162.537 18.2633 162.83 18.9711 162.83 19.4406C162.83 20.4719 161.524 21.8668 160.559 21.8668C159.324 21.8668 158.112 20.7168 158.112 19.5463C158.112 17.4373 160.79 16.332 162.179 17.8678ZM180.922 20.4974C181.354 21.0176 181.331 21.2268 180.787 21.7713C180.021 22.5373 179.187 21.9864 179.405 20.8599C179.589 19.9116 180.295 19.7425 180.922 20.4974ZM189.96 23.3975C189.96 24.1441 189.062 24.7701 188.622 24.3298C188.058 23.7659 188.423 22.6532 189.173 22.6532C189.683 22.6532 189.96 22.9154 189.96 23.3975ZM176.06 28.9308C183.315 30.8511 191.489 33.9903 198.61 37.5903C212.888 44.8087 224.039 53.9754 236.355 68.6163C238.275 70.8979 243.675 78.5875 244.253 79.8614C244.61 80.6473 245.316 81.8107 245.91 82.592C246.451 83.3025 248.525 87.2142 249.78 89.8875C250.439 91.2931 251.492 93.5299 252.12 94.8585C252.748 96.1871 253.262 97.5227 253.262 97.827C253.262 98.1313 253.424 98.5485 253.623 98.7538C254.191 99.3427 256.707 106.936 256.515 107.482C256.42 107.753 256.534 107.974 256.768 107.974C257.002 107.974 257.196 108.372 257.199 108.859C257.202 109.345 257.539 110.812 257.949 112.118C258.722 114.584 259.043 116.051 259.428 118.885C259.612 120.234 259.537 120.556 259.041 120.556C258.592 120.556 258.256 119.737 257.791 117.509C257.251 114.924 256.726 112.651 256.27 110.923C255.866 109.392 253.555 102.122 253.271 101.486C253.078 101.054 252.092 98.7537 251.082 96.375C243.492 78.5139 230.392 61.62 215.256 50.1764C202.329 40.4027 186.809 33.0521 172.535 29.9436C171.766 29.7762 171.467 29.4966 171.556 29.0283C171.735 28.0906 172.799 28.0674 176.06 28.9308ZM204.9 30.4937C204.9 31.5525 204.157 31.9076 203.44 31.1908C202.723 30.4744 203.078 29.7305 204.137 29.7305C204.631 29.7305 204.9 30.0002 204.9 30.4937ZM230.929 46.5391C231.212 47.1335 231.841 47.7949 232.327 48.0084C233.472 48.5117 233.44 48.6658 232.028 49.4695C231.34 49.8611 230.851 50.4642 230.851 50.9207C230.851 52.1974 230.165 52.2371 229.436 51.0029C229.061 50.3687 228.342 49.6617 227.837 49.4317C226.709 48.9178 226.637 48.2101 227.711 48.2101C228.23 48.2101 228.731 47.7347 229.16 46.8339C229.952 45.1747 230.256 45.124 230.929 46.5391ZM241.278 59.625C241.43 59.8719 241.37 60.2592 241.144 60.4853C240.616 61.0137 239.384 60.5529 239.599 59.9069C239.817 59.2499 240.93 59.0627 241.278 59.625ZM260.583 89.05C260.774 89.19 261.358 89.7896 261.882 90.3825L262.836 91.4602L262.031 92.3449C261.588 92.8316 261.152 93.4733 261.061 93.7713C260.946 94.1492 260.44 93.8838 259.391 92.8942L257.886 91.4747L259.062 90.1352C259.709 89.3984 260.394 88.91 260.583 89.05ZM268.989 115.804C268.989 116.002 269.505 116.651 270.135 117.245L271.28 118.326L270.135 119.471C269.505 120.101 268.989 120.779 268.989 120.979C268.989 121.179 268.261 120.613 267.37 119.723C266.119 118.471 265.873 118.026 266.289 117.763C266.585 117.576 266.963 117.42 267.13 117.416C267.297 117.413 267.635 116.968 267.881 116.427C268.319 115.466 268.989 115.089 268.989 115.804Z" stroke="#E1C191" stroke-width="2" mask="url(#path-3-outside-2_2656_107)"/>
<mask id="path-4-outside-3_2656_107" maskUnits="userSpaceOnUse" x="2.91406" y="143.834" width="140" height="131" fill="black">
<rect fill="white" x="2.91406" y="143.834" width="140" height="131"/>
<path fill-rule="evenodd" clip-rule="evenodd" d="M140.658 271.585C140.407 270.356 140.363 270.334 137.862 270.182C118.007 268.979 102.043 265.047 84.6793 257.085C75.5264 252.889 68.5917 248.694 58.8938 241.487C53.6189 237.568 39.8909 224.094 35.3522 218.382C32.6927 215.035 24.6414 203.418 23.9725 201.963C23.8243 201.64 23.3271 200.76 22.8673 200.008C21.4999 197.769 17.655 189.919 15.9736 185.934C13.3841 179.796 10.569 170.873 8.63543 162.674C8.18195 160.75 6.5643 151.514 6.32778 149.498C6.12606 147.778 5.89424 147.214 5.3137 147.03C4.32464 146.716 3.48764 147.202 4.21907 147.666C4.55058 147.876 4.58026 148.004 4.29801 148.008C2.86876 148.027 7.94506 172.466 10.8364 179.484C11.1022 180.129 11.3783 180.957 11.4502 181.324C12.06 184.438 21.0894 203.029 22.202 203.461C22.3861 203.533 22.537 203.764 22.537 203.974C22.537 204.318 28.1962 212.989 30.1602 215.655C40.7267 230 53.8883 242.165 69.1698 251.712C71.1507 252.949 76.1144 255.623 80.1996 257.654C97.9331 266.469 116.705 271.472 136.163 272.567L140.914 272.834L140.658 271.585ZM139.744 267.293C139.96 267.16 140.044 266.568 139.931 265.977C139.738 264.967 139.602 264.903 137.658 264.903C131.785 264.903 119.966 263.136 111.243 260.955C91.3834 255.988 73.5131 246.868 57.6971 233.628C54.038 230.565 43.9133 220.271 41.1631 216.818C39.7076 214.99 38.0876 212.967 37.5629 212.322C36.6259 211.17 32.4948 205.278 31.72 203.988C31.5027 203.627 30.5473 202.011 29.5969 200.399C28.6462 198.786 27.6504 197.203 27.3842 196.88C27.1176 196.558 25.9878 194.457 24.8733 192.213C20.3103 183.023 18.0378 176.907 15.7145 167.561C14.9928 164.658 14.2699 161.755 14.1085 161.11C13.9466 160.465 13.7715 159.732 13.7191 159.481C12.5819 154.018 11.2813 149.979 11.5717 152.811C11.612 153.2 11.4189 153.458 11.1316 153.398C10.7602 153.32 10.6464 153.772 10.7148 155.051C10.8231 157.069 12.4744 165.546 13.3802 168.733C13.716 169.916 14.1597 171.587 14.3658 172.447C14.5718 173.307 15.2891 175.594 15.9596 177.529C22.8888 197.52 35.6126 216.772 51.8734 231.869C56.1467 235.837 56.823 236.391 62.5236 240.603C79.0111 252.784 95.2063 260.078 115.513 264.469C122.521 265.984 121.653 265.87 137.728 267.382C138.622 267.466 139.529 267.426 139.744 267.293ZM131.203 256.719C132.604 254.101 130.164 251.726 127.785 253.393C126.753 254.115 126.618 255.949 127.53 256.861C128.419 257.749 130.698 257.661 131.203 256.719ZM105.415 252.849C105.415 251.856 104.998 251.537 104.376 252.053C103.595 252.702 103.741 253.566 104.633 253.566C105.13 253.566 105.415 253.305 105.415 252.849ZM117.143 245.615C117.143 244.796 116.735 244.618 112.354 243.525C98.924 240.175 82.6539 231.792 70.8203 222.126C62.7679 215.548 53.5826 205.31 48.1725 196.88C47.5517 195.913 46.7194 194.645 46.323 194.062C45.9266 193.479 45.6021 192.916 45.6021 192.809C45.6021 192.702 45.1478 191.947 44.5923 191.131C43.4684 189.481 37.3925 177.174 37.3925 176.548C37.3925 176.33 37.2232 175.845 37.0164 175.471C35.896 173.451 33.6192 165.925 32.3158 159.937C31.2591 155.082 30.9679 154.147 30.4566 153.977C29.9581 153.811 30.1305 157.155 30.7239 159.155C30.9151 159.801 31.1903 161.03 31.3353 161.888C31.6215 163.58 33.9124 171.329 34.688 173.229C34.9515 173.874 35.2157 174.645 35.2752 174.942C35.335 175.238 35.5719 175.67 35.8018 175.9C36.0316 176.129 36.2197 176.579 36.2197 176.898C36.2197 177.51 36.5203 178.19 39.6959 184.762C45.4782 196.728 52.2421 206.235 61.8258 215.867C72.3731 226.466 81.9815 233.041 96.8143 239.805C101.867 242.11 111.887 245.507 115.872 246.267C117.006 246.483 117.143 246.413 117.143 245.615ZM83.374 242.052C83.677 241.262 83.2262 240.665 82.3266 240.665C81.7778 240.665 81.5679 240.935 81.5679 241.642C81.5679 242.364 81.7755 242.62 82.3619 242.62C82.7989 242.62 83.2544 242.364 83.374 242.052ZM73.7492 237.118C73.7492 236.116 72.4552 236.23 72.259 237.249C72.1687 237.718 72.3794 237.928 72.9388 237.928C73.4983 237.928 73.7492 237.677 73.7492 237.118ZM70.1847 234.829C70.7859 234.458 70.6355 233.176 69.9642 232.953C69.7097 232.868 69.3176 233.143 69.0928 233.563C68.6069 234.471 69.3575 235.341 70.1847 234.829ZM59.8242 228.155C60.2038 227.295 60.7652 226.591 61.0721 226.591C61.8653 226.591 61.7636 225.908 60.902 225.447C60.5017 225.233 59.9524 224.523 59.6819 223.87C59.1127 222.496 58.6584 222.358 58.3101 223.455C58.1752 223.88 57.4618 224.725 56.7245 225.333L55.384 226.437L56.7143 226.919C57.6201 227.246 58.1737 227.77 58.4489 228.559C58.6713 229.197 58.9165 229.719 58.9939 229.719C59.0709 229.719 59.4446 229.015 59.8242 228.155ZM41.595 205.591C42.0974 205.411 42.2666 204.23 41.8499 203.814C41.4187 203.382 40.52 203.993 40.52 204.718C40.52 205.541 40.8925 205.843 41.595 205.591ZM38.0321 198.251C38.1673 197.898 38.0907 197.422 37.8616 197.193C37.2658 196.597 36.1376 197.142 36.2932 197.95C36.4663 198.85 37.7189 199.067 38.0321 198.251ZM26.0167 171.643C27.0366 169.914 27.0429 169.445 26.0554 168.733C25.6254 168.423 25.2736 167.945 25.2736 167.67C25.2736 166.88 24.4397 167.088 24.2188 167.933C24.109 168.353 23.5894 168.978 23.064 169.323L22.109 169.949L23.3001 171.061C23.9557 171.674 24.4917 172.368 24.4917 172.604C24.4917 173.459 25.2137 173.004 26.0167 171.643ZM5.4646 145.831C5.33403 145.49 5.11785 145.359 4.98376 145.538C4.85006 145.717 4.58107 145.996 4.38677 146.157C4.19209 146.318 4.40865 146.45 4.8676 146.45C5.46847 146.45 5.63583 146.277 5.4646 145.831Z"/>
</mask>
<path fill-rule="evenodd" clip-rule="evenodd" d="M140.658 271.585C140.407 270.356 140.363 270.334 137.862 270.182C118.007 268.979 102.043 265.047 84.6793 257.085C75.5264 252.889 68.5917 248.694 58.8938 241.487C53.6189 237.568 39.8909 224.094 35.3522 218.382C32.6927 215.035 24.6414 203.418 23.9725 201.963C23.8243 201.64 23.3271 200.76 22.8673 200.008C21.4999 197.769 17.655 189.919 15.9736 185.934C13.3841 179.796 10.569 170.873 8.63543 162.674C8.18195 160.75 6.5643 151.514 6.32778 149.498C6.12606 147.778 5.89424 147.214 5.3137 147.03C4.32464 146.716 3.48764 147.202 4.21907 147.666C4.55058 147.876 4.58026 148.004 4.29801 148.008C2.86876 148.027 7.94506 172.466 10.8364 179.484C11.1022 180.129 11.3783 180.957 11.4502 181.324C12.06 184.438 21.0894 203.029 22.202 203.461C22.3861 203.533 22.537 203.764 22.537 203.974C22.537 204.318 28.1962 212.989 30.1602 215.655C40.7267 230 53.8883 242.165 69.1698 251.712C71.1507 252.949 76.1144 255.623 80.1996 257.654C97.9331 266.469 116.705 271.472 136.163 272.567L140.914 272.834L140.658 271.585ZM139.744 267.293C139.96 267.16 140.044 266.568 139.931 265.977C139.738 264.967 139.602 264.903 137.658 264.903C131.785 264.903 119.966 263.136 111.243 260.955C91.3834 255.988 73.5131 246.868 57.6971 233.628C54.038 230.565 43.9133 220.271 41.1631 216.818C39.7076 214.99 38.0876 212.967 37.5629 212.322C36.6259 211.17 32.4948 205.278 31.72 203.988C31.5027 203.627 30.5473 202.011 29.5969 200.399C28.6462 198.786 27.6504 197.203 27.3842 196.88C27.1176 196.558 25.9878 194.457 24.8733 192.213C20.3103 183.023 18.0378 176.907 15.7145 167.561C14.9928 164.658 14.2699 161.755 14.1085 161.11C13.9466 160.465 13.7715 159.732 13.7191 159.481C12.5819 154.018 11.2813 149.979 11.5717 152.811C11.612 153.2 11.4189 153.458 11.1316 153.398C10.7602 153.32 10.6464 153.772 10.7148 155.051C10.8231 157.069 12.4744 165.546 13.3802 168.733C13.716 169.916 14.1597 171.587 14.3658 172.447C14.5718 173.307 15.2891 175.594 15.9596 177.529C22.8888 197.52 35.6126 216.772 51.8734 231.869C56.1467 235.837 56.823 236.391 62.5236 240.603C79.0111 252.784 95.2063 260.078 115.513 264.469C122.521 265.984 121.653 265.87 137.728 267.382C138.622 267.466 139.529 267.426 139.744 267.293ZM131.203 256.719C132.604 254.101 130.164 251.726 127.785 253.393C126.753 254.115 126.618 255.949 127.53 256.861C128.419 257.749 130.698 257.661 131.203 256.719ZM105.415 252.849C105.415 251.856 104.998 251.537 104.376 252.053C103.595 252.702 103.741 253.566 104.633 253.566C105.13 253.566 105.415 253.305 105.415 252.849ZM117.143 245.615C117.143 244.796 116.735 244.618 112.354 243.525C98.924 240.175 82.6539 231.792 70.8203 222.126C62.7679 215.548 53.5826 205.31 48.1725 196.88C47.5517 195.913 46.7194 194.645 46.323 194.062C45.9266 193.479 45.6021 192.916 45.6021 192.809C45.6021 192.702 45.1478 191.947 44.5923 191.131C43.4684 189.481 37.3925 177.174 37.3925 176.548C37.3925 176.33 37.2232 175.845 37.0164 175.471C35.896 173.451 33.6192 165.925 32.3158 159.937C31.2591 155.082 30.9679 154.147 30.4566 153.977C29.9581 153.811 30.1305 157.155 30.7239 159.155C30.9151 159.801 31.1903 161.03 31.3353 161.888C31.6215 163.58 33.9124 171.329 34.688 173.229C34.9515 173.874 35.2157 174.645 35.2752 174.942C35.335 175.238 35.5719 175.67 35.8018 175.9C36.0316 176.129 36.2197 176.579 36.2197 176.898C36.2197 177.51 36.5203 178.19 39.6959 184.762C45.4782 196.728 52.2421 206.235 61.8258 215.867C72.3731 226.466 81.9815 233.041 96.8143 239.805C101.867 242.11 111.887 245.507 115.872 246.267C117.006 246.483 117.143 246.413 117.143 245.615ZM83.374 242.052C83.677 241.262 83.2262 240.665 82.3266 240.665C81.7778 240.665 81.5679 240.935 81.5679 241.642C81.5679 242.364 81.7755 242.62 82.3619 242.62C82.7989 242.62 83.2544 242.364 83.374 242.052ZM73.7492 237.118C73.7492 236.116 72.4552 236.23 72.259 237.249C72.1687 237.718 72.3794 237.928 72.9388 237.928C73.4983 237.928 73.7492 237.677 73.7492 237.118ZM70.1847 234.829C70.7859 234.458 70.6355 233.176 69.9642 232.953C69.7097 232.868 69.3176 233.143 69.0928 233.563C68.6069 234.471 69.3575 235.341 70.1847 234.829ZM59.8242 228.155C60.2038 227.295 60.7652 226.591 61.0721 226.591C61.8653 226.591 61.7636 225.908 60.902 225.447C60.5017 225.233 59.9524 224.523 59.6819 223.87C59.1127 222.496 58.6584 222.358 58.3101 223.455C58.1752 223.88 57.4618 224.725 56.7245 225.333L55.384 226.437L56.7143 226.919C57.6201 227.246 58.1737 227.77 58.4489 228.559C58.6713 229.197 58.9165 229.719 58.9939 229.719C59.0709 229.719 59.4446 229.015 59.8242 228.155ZM41.595 205.591C42.0974 205.411 42.2666 204.23 41.8499 203.814C41.4187 203.382 40.52 203.993 40.52 204.718C40.52 205.541 40.8925 205.843 41.595 205.591ZM38.0321 198.251C38.1673 197.898 38.0907 197.422 37.8616 197.193C37.2658 196.597 36.1376 197.142 36.2932 197.95C36.4663 198.85 37.7189 199.067 38.0321 198.251ZM26.0167 171.643C27.0366 169.914 27.0429 169.445 26.0554 168.733C25.6254 168.423 25.2736 167.945 25.2736 167.67C25.2736 166.88 24.4397 167.088 24.2188 167.933C24.109 168.353 23.5894 168.978 23.064 169.323L22.109 169.949L23.3001 171.061C23.9557 171.674 24.4917 172.368 24.4917 172.604C24.4917 173.459 25.2137 173.004 26.0167 171.643ZM5.4646 145.831C5.33403 145.49 5.11785 145.359 4.98376 145.538C4.85006 145.717 4.58107 145.996 4.38677 146.157C4.19209 146.318 4.40865 146.45 4.8676 146.45C5.46847 146.45 5.63583 146.277 5.4646 145.831Z" fill="#243444"/>
<path fill-rule="evenodd" clip-rule="evenodd" d="M140.658 271.585C140.407 270.356 140.363 270.334 137.862 270.182C118.007 268.979 102.043 265.047 84.6793 257.085C75.5264 252.889 68.5917 248.694 58.8938 241.487C53.6189 237.568 39.8909 224.094 35.3522 218.382C32.6927 215.035 24.6414 203.418 23.9725 201.963C23.8243 201.64 23.3271 200.76 22.8673 200.008C21.4999 197.769 17.655 189.919 15.9736 185.934C13.3841 179.796 10.569 170.873 8.63543 162.674C8.18195 160.75 6.5643 151.514 6.32778 149.498C6.12606 147.778 5.89424 147.214 5.3137 147.03C4.32464 146.716 3.48764 147.202 4.21907 147.666C4.55058 147.876 4.58026 148.004 4.29801 148.008C2.86876 148.027 7.94506 172.466 10.8364 179.484C11.1022 180.129 11.3783 180.957 11.4502 181.324C12.06 184.438 21.0894 203.029 22.202 203.461C22.3861 203.533 22.537 203.764 22.537 203.974C22.537 204.318 28.1962 212.989 30.1602 215.655C40.7267 230 53.8883 242.165 69.1698 251.712C71.1507 252.949 76.1144 255.623 80.1996 257.654C97.9331 266.469 116.705 271.472 136.163 272.567L140.914 272.834L140.658 271.585ZM139.744 267.293C139.96 267.16 140.044 266.568 139.931 265.977C139.738 264.967 139.602 264.903 137.658 264.903C131.785 264.903 119.966 263.136 111.243 260.955C91.3834 255.988 73.5131 246.868 57.6971 233.628C54.038 230.565 43.9133 220.271 41.1631 216.818C39.7076 214.99 38.0876 212.967 37.5629 212.322C36.6259 211.17 32.4948 205.278 31.72 203.988C31.5027 203.627 30.5473 202.011 29.5969 200.399C28.6462 198.786 27.6504 197.203 27.3842 196.88C27.1176 196.558 25.9878 194.457 24.8733 192.213C20.3103 183.023 18.0378 176.907 15.7145 167.561C14.9928 164.658 14.2699 161.755 14.1085 161.11C13.9466 160.465 13.7715 159.732 13.7191 159.481C12.5819 154.018 11.2813 149.979 11.5717 152.811C11.612 153.2 11.4189 153.458 11.1316 153.398C10.7602 153.32 10.6464 153.772 10.7148 155.051C10.8231 157.069 12.4744 165.546 13.3802 168.733C13.716 169.916 14.1597 171.587 14.3658 172.447C14.5718 173.307 15.2891 175.594 15.9596 177.529C22.8888 197.52 35.6126 216.772 51.8734 231.869C56.1467 235.837 56.823 236.391 62.5236 240.603C79.0111 252.784 95.2063 260.078 115.513 264.469C122.521 265.984 121.653 265.87 137.728 267.382C138.622 267.466 139.529 267.426 139.744 267.293ZM131.203 256.719C132.604 254.101 130.164 251.726 127.785 253.393C126.753 254.115 126.618 255.949 127.53 256.861C128.419 257.749 130.698 257.661 131.203 256.719ZM105.415 252.849C105.415 251.856 104.998 251.537 104.376 252.053C103.595 252.702 103.741 253.566 104.633 253.566C105.13 253.566 105.415 253.305 105.415 252.849ZM117.143 245.615C117.143 244.796 116.735 244.618 112.354 243.525C98.924 240.175 82.6539 231.792 70.8203 222.126C62.7679 215.548 53.5826 205.31 48.1725 196.88C47.5517 195.913 46.7194 194.645 46.323 194.062C45.9266 193.479 45.6021 192.916 45.6021 192.809C45.6021 192.702 45.1478 191.947 44.5923 191.131C43.4684 189.481 37.3925 177.174 37.3925 176.548C37.3925 176.33 37.2232 175.845 37.0164 175.471C35.896 173.451 33.6192 165.925 32.3158 159.937C31.2591 155.082 30.9679 154.147 30.4566 153.977C29.9581 153.811 30.1305 157.155 30.7239 159.155C30.9151 159.801 31.1903 161.03 31.3353 161.888C31.6215 163.58 33.9124 171.329 34.688 173.229C34.9515 173.874 35.2157 174.645 35.2752 174.942C35.335 175.238 35.5719 175.67 35.8018 175.9C36.0316 176.129 36.2197 176.579 36.2197 176.898C36.2197 177.51 36.5203 178.19 39.6959 184.762C45.4782 196.728 52.2421 206.235 61.8258 215.867C72.3731 226.466 81.9815 233.041 96.8143 239.805C101.867 242.11 111.887 245.507 115.872 246.267C117.006 246.483 117.143 246.413 117.143 245.615ZM83.374 242.052C83.677 241.262 83.2262 240.665 82.3266 240.665C81.7778 240.665 81.5679 240.935 81.5679 241.642C81.5679 242.364 81.7755 242.62 82.3619 242.62C82.7989 242.62 83.2544 242.364 83.374 242.052ZM73.7492 237.118C73.7492 236.116 72.4552 236.23 72.259 237.249C72.1687 237.718 72.3794 237.928 72.9388 237.928C73.4983 237.928 73.7492 237.677 73.7492 237.118ZM70.1847 234.829C70.7859 234.458 70.6355 233.176 69.9642 232.953C69.7097 232.868 69.3176 233.143 69.0928 233.563C68.6069 234.471 69.3575 235.341 70.1847 234.829ZM59.8242 228.155C60.2038 227.295 60.7652 226.591 61.0721 226.591C61.8653 226.591 61.7636 225.908 60.902 225.447C60.5017 225.233 59.9524 224.523 59.6819 223.87C59.1127 222.496 58.6584 222.358 58.3101 223.455C58.1752 223.88 57.4618 224.725 56.7245 225.333L55.384 226.437L56.7143 226.919C57.6201 227.246 58.1737 227.77 58.4489 228.559C58.6713 229.197 58.9165 229.719 58.9939 229.719C59.0709 229.719 59.4446 229.015 59.8242 228.155ZM41.595 205.591C42.0974 205.411 42.2666 204.23 41.8499 203.814C41.4187 203.382 40.52 203.993 40.52 204.718C40.52 205.541 40.8925 205.843 41.595 205.591ZM38.0321 198.251C38.1673 197.898 38.0907 197.422 37.8616 197.193C37.2658 196.597 36.1376 197.142 36.2932 197.95C36.4663 198.85 37.7189 199.067 38.0321 198.251ZM26.0167 171.643C27.0366 169.914 27.0429 169.445 26.0554 168.733C25.6254 168.423 25.2736 167.945 25.2736 167.67C25.2736 166.88 24.4397 167.088 24.2188 167.933C24.109 168.353 23.5894 168.978 23.064 169.323L22.109 169.949L23.3001 171.061C23.9557 171.674 24.4917 172.368 24.4917 172.604C24.4917 173.459 25.2137 173.004 26.0167 171.643ZM5.4646 145.831C5.33403 145.49 5.11785 145.359 4.98376 145.538C4.85006 145.717 4.58107 145.996 4.38677 146.157C4.19209 146.318 4.40865 146.45 4.8676 146.45C5.46847 146.45 5.63583 146.277 5.4646 145.831Z" stroke="#243444" stroke-width="2" mask="url(#path-4-outside-3_2656_107)"/>
<mask id="path-5-outside-4_2656_107" maskUnits="userSpaceOnUse" x="148.695" y="143.834" width="140" height="131" fill="black">
<rect fill="white" x="148.695" y="143.834" width="140" height="131"/>
<path fill-rule="evenodd" clip-rule="evenodd" d="M150.951 271.585C151.202 270.356 151.247 270.334 153.747 270.182C173.603 268.979 189.566 265.047 206.93 257.085C216.083 252.889 223.018 248.694 232.716 241.487C237.99 237.568 251.718 224.094 256.257 218.382C258.917 215.035 266.968 203.418 267.637 201.963C267.785 201.64 268.282 200.76 268.742 200.008C270.11 197.769 273.954 189.919 275.636 185.934C278.225 179.796 281.04 170.873 282.974 162.674C283.427 160.75 285.045 151.514 285.282 149.498C285.483 147.778 285.715 147.214 286.296 147.03C287.285 146.716 288.122 147.202 287.39 147.666C287.059 147.876 287.029 148.004 287.311 148.008C288.741 148.027 283.664 172.466 280.773 179.484C280.507 180.129 280.231 180.957 280.159 181.324C279.549 184.438 270.52 203.029 269.407 203.461C269.223 203.533 269.072 203.764 269.072 203.974C269.072 204.318 263.413 212.989 261.449 215.655C250.883 230 237.721 242.165 222.44 251.712C220.459 252.949 215.495 255.623 211.41 257.654C193.676 266.469 174.905 271.472 155.447 272.567L150.695 272.834L150.951 271.585ZM151.865 267.293C151.65 267.16 151.566 266.568 151.679 265.977C151.872 264.967 152.007 264.903 153.951 264.903C159.824 264.903 171.644 263.136 180.367 260.955C200.226 255.988 218.096 246.868 233.912 233.628C237.571 230.565 247.696 220.271 250.446 216.818C251.902 214.99 253.522 212.967 254.046 212.322C254.984 211.17 259.115 205.278 259.889 203.988C260.107 203.627 261.062 202.011 262.012 200.399C262.963 198.786 263.959 197.203 264.225 196.88C264.492 196.558 265.622 194.457 266.736 192.213C271.299 183.023 273.572 176.907 275.895 167.561C276.617 164.658 277.339 161.755 277.501 161.11C277.663 160.465 277.838 159.732 277.89 159.481C279.027 154.018 280.328 149.979 280.038 152.811C279.997 153.2 280.19 153.458 280.478 153.398C280.849 153.32 280.963 153.772 280.895 155.051C280.786 157.069 279.135 165.546 278.229 168.733C277.893 169.916 277.45 171.587 277.244 172.447C277.038 173.307 276.32 175.594 275.65 177.529C268.721 197.52 255.997 216.772 239.736 231.869C235.463 235.837 234.786 236.391 229.086 240.603C212.598 252.784 196.403 260.078 176.097 264.469C169.089 265.984 169.957 265.87 153.881 267.382C152.988 267.466 152.08 267.426 151.865 267.293ZM160.407 256.719C159.006 254.101 161.446 251.726 163.824 253.393C164.856 254.115 164.991 255.949 164.079 256.861C163.191 257.749 160.911 257.661 160.407 256.719ZM186.195 252.849C186.195 251.856 186.611 251.537 187.234 252.053C188.015 252.702 187.868 253.566 186.977 253.566C186.479 253.566 186.195 253.305 186.195 252.849ZM174.467 245.615C174.467 244.796 174.874 244.618 179.256 243.525C192.685 240.175 208.956 231.792 220.789 222.126C228.841 215.548 238.027 205.31 243.437 196.88C244.058 195.913 244.89 194.645 245.286 194.062C245.683 193.479 246.007 192.916 246.007 192.809C246.007 192.702 246.462 191.947 247.017 191.131C248.141 189.481 254.217 177.174 254.217 176.548C254.217 176.33 254.386 175.845 254.593 175.471C255.713 173.451 257.99 165.925 259.294 159.937C260.35 155.082 260.641 154.147 261.153 153.977C261.651 153.811 261.479 157.155 260.885 159.155C260.694 159.801 260.419 161.03 260.274 161.888C259.988 163.58 257.697 171.329 256.921 173.229C256.658 173.874 256.394 174.645 256.334 174.942C256.274 175.238 256.037 175.67 255.808 175.9C255.578 176.129 255.39 176.579 255.39 176.898C255.39 177.51 255.089 178.19 251.914 184.762C246.131 196.728 239.367 206.235 229.784 215.867C219.236 226.466 209.628 233.041 194.795 239.805C189.743 242.11 179.722 245.507 175.737 246.267C174.603 246.483 174.467 246.413 174.467 245.615ZM208.235 242.052C207.932 241.262 208.383 240.665 209.283 240.665C209.832 240.665 210.041 240.935 210.041 241.642C210.041 242.364 209.834 242.62 209.248 242.62C208.81 242.62 208.355 242.364 208.235 242.052ZM217.86 237.118C217.86 236.116 219.154 236.23 219.35 237.249C219.441 237.718 219.23 237.928 218.671 237.928C218.111 237.928 217.86 237.677 217.86 237.118ZM221.425 234.829C220.823 234.458 220.974 233.176 221.645 232.953C221.9 232.868 222.292 233.143 222.517 233.563C223.002 234.471 222.252 235.341 221.425 234.829ZM231.785 228.155C231.406 227.295 230.844 226.591 230.537 226.591C229.744 226.591 229.846 225.908 230.707 225.447C231.108 225.233 231.657 224.523 231.927 223.87C232.497 222.496 232.951 222.358 233.299 223.455C233.434 223.88 234.148 224.725 234.885 225.333L236.225 226.437L234.895 226.919C233.989 227.246 233.436 227.77 233.16 228.559C232.938 229.197 232.693 229.719 232.616 229.719C232.538 229.719 232.165 229.015 231.785 228.155ZM250.014 205.591C249.512 205.411 249.343 204.23 249.759 203.814C250.191 203.382 251.089 203.993 251.089 204.718C251.089 205.541 250.717 205.843 250.014 205.591ZM253.577 198.251C253.442 197.898 253.519 197.422 253.748 197.193C254.344 196.597 255.472 197.142 255.316 197.95C255.143 198.85 253.89 199.067 253.577 198.251ZM265.593 171.643C264.573 169.914 264.566 169.445 265.554 168.733C265.984 168.423 266.336 167.945 266.336 167.67C266.336 166.88 267.17 167.088 267.391 167.933C267.5 168.353 268.02 168.978 268.545 169.323L269.5 169.949L268.309 171.061C267.654 171.674 267.118 172.368 267.118 172.604C267.118 173.459 266.396 173.004 265.593 171.643ZM286.145 145.831C286.275 145.49 286.492 145.359 286.626 145.538C286.759 145.717 287.028 145.996 287.223 146.157C287.417 146.318 287.201 146.45 286.742 146.45C286.141 146.45 285.974 146.277 286.145 145.831Z"/>
</mask>
<path fill-rule="evenodd" clip-rule="evenodd" d="M150.951 271.585C151.202 270.356 151.247 270.334 153.747 270.182C173.603 268.979 189.566 265.047 206.93 257.085C216.083 252.889 223.018 248.694 232.716 241.487C237.99 237.568 251.718 224.094 256.257 218.382C258.917 215.035 266.968 203.418 267.637 201.963C267.785 201.64 268.282 200.76 268.742 200.008C270.11 197.769 273.954 189.919 275.636 185.934C278.225 179.796 281.04 170.873 282.974 162.674C283.427 160.75 285.045 151.514 285.282 149.498C285.483 147.778 285.715 147.214 286.296 147.03C287.285 146.716 288.122 147.202 287.39 147.666C287.059 147.876 287.029 148.004 287.311 148.008C288.741 148.027 283.664 172.466 280.773 179.484C280.507 180.129 280.231 180.957 280.159 181.324C279.549 184.438 270.52 203.029 269.407 203.461C269.223 203.533 269.072 203.764 269.072 203.974C269.072 204.318 263.413 212.989 261.449 215.655C250.883 230 237.721 242.165 222.44 251.712C220.459 252.949 215.495 255.623 211.41 257.654C193.676 266.469 174.905 271.472 155.447 272.567L150.695 272.834L150.951 271.585ZM151.865 267.293C151.65 267.16 151.566 266.568 151.679 265.977C151.872 264.967 152.007 264.903 153.951 264.903C159.824 264.903 171.644 263.136 180.367 260.955C200.226 255.988 218.096 246.868 233.912 233.628C237.571 230.565 247.696 220.271 250.446 216.818C251.902 214.99 253.522 212.967 254.046 212.322C254.984 211.17 259.115 205.278 259.889 203.988C260.107 203.627 261.062 202.011 262.012 200.399C262.963 198.786 263.959 197.203 264.225 196.88C264.492 196.558 265.622 194.457 266.736 192.213C271.299 183.023 273.572 176.907 275.895 167.561C276.617 164.658 277.339 161.755 277.501 161.11C277.663 160.465 277.838 159.732 277.89 159.481C279.027 154.018 280.328 149.979 280.038 152.811C279.997 153.2 280.19 153.458 280.478 153.398C280.849 153.32 280.963 153.772 280.895 155.051C280.786 157.069 279.135 165.546 278.229 168.733C277.893 169.916 277.45 171.587 277.244 172.447C277.038 173.307 276.32 175.594 275.65 177.529C268.721 197.52 255.997 216.772 239.736 231.869C235.463 235.837 234.786 236.391 229.086 240.603C212.598 252.784 196.403 260.078 176.097 264.469C169.089 265.984 169.957 265.87 153.881 267.382C152.988 267.466 152.08 267.426 151.865 267.293ZM160.407 256.719C159.006 254.101 161.446 251.726 163.824 253.393C164.856 254.115 164.991 255.949 164.079 256.861C163.191 257.749 160.911 257.661 160.407 256.719ZM186.195 252.849C186.195 251.856 186.611 251.537 187.234 252.053C188.015 252.702 187.868 253.566 186.977 253.566C186.479 253.566 186.195 253.305 186.195 252.849ZM174.467 245.615C174.467 244.796 174.874 244.618 179.256 243.525C192.685 240.175 208.956 231.792 220.789 222.126C228.841 215.548 238.027 205.31 243.437 196.88C244.058 195.913 244.89 194.645 245.286 194.062C245.683 193.479 246.007 192.916 246.007 192.809C246.007 192.702 246.462 191.947 247.017 191.131C248.141 189.481 254.217 177.174 254.217 176.548C254.217 176.33 254.386 175.845 254.593 175.471C255.713 173.451 257.99 165.925 259.294 159.937C260.35 155.082 260.641 154.147 261.153 153.977C261.651 153.811 261.479 157.155 260.885 159.155C260.694 159.801 260.419 161.03 260.274 161.888C259.988 163.58 257.697 171.329 256.921 173.229C256.658 173.874 256.394 174.645 256.334 174.942C256.274 175.238 256.037 175.67 255.808 175.9C255.578 176.129 255.39 176.579 255.39 176.898C255.39 177.51 255.089 178.19 251.914 184.762C246.131 196.728 239.367 206.235 229.784 215.867C219.236 226.466 209.628 233.041 194.795 239.805C189.743 242.11 179.722 245.507 175.737 246.267C174.603 246.483 174.467 246.413 174.467 245.615ZM208.235 242.052C207.932 241.262 208.383 240.665 209.283 240.665C209.832 240.665 210.041 240.935 210.041 241.642C210.041 242.364 209.834 242.62 209.248 242.62C208.81 242.62 208.355 242.364 208.235 242.052ZM217.86 237.118C217.86 236.116 219.154 236.23 219.35 237.249C219.441 237.718 219.23 237.928 218.671 237.928C218.111 237.928 217.86 237.677 217.86 237.118ZM221.425 234.829C220.823 234.458 220.974 233.176 221.645 232.953C221.9 232.868 222.292 233.143 222.517 233.563C223.002 234.471 222.252 235.341 221.425 234.829ZM231.785 228.155C231.406 227.295 230.844 226.591 230.537 226.591C229.744 226.591 229.846 225.908 230.707 225.447C231.108 225.233 231.657 224.523 231.927 223.87C232.497 222.496 232.951 222.358 233.299 223.455C233.434 223.88 234.148 224.725 234.885 225.333L236.225 226.437L234.895 226.919C233.989 227.246 233.436 227.77 233.16 228.559C232.938 229.197 232.693 229.719 232.616 229.719C232.538 229.719 232.165 229.015 231.785 228.155ZM250.014 205.591C249.512 205.411 249.343 204.23 249.759 203.814C250.191 203.382 251.089 203.993 251.089 204.718C251.089 205.541 250.717 205.843 250.014 205.591ZM253.577 198.251C253.442 197.898 253.519 197.422 253.748 197.193C254.344 196.597 255.472 197.142 255.316 197.95C255.143 198.85 253.89 199.067 253.577 198.251ZM265.593 171.643C264.573 169.914 264.566 169.445 265.554 168.733C265.984 168.423 266.336 167.945 266.336 167.67C266.336 166.88 267.17 167.088 267.391 167.933C267.5 168.353 268.02 168.978 268.545 169.323L269.5 169.949L268.309 171.061C267.654 171.674 267.118 172.368 267.118 172.604C267.118 173.459 266.396 173.004 265.593 171.643ZM286.145 145.831C286.275 145.49 286.492 145.359 286.626 145.538C286.759 145.717 287.028 145.996 287.223 146.157C287.417 146.318 287.201 146.45 286.742 146.45C286.141 146.45 285.974 146.277 286.145 145.831Z" fill="#233040"/>
<path fill-rule="evenodd" clip-rule="evenodd" d="M150.951 271.585C151.202 270.356 151.247 270.334 153.747 270.182C173.603 268.979 189.566 265.047 206.93 257.085C216.083 252.889 223.018 248.694 232.716 241.487C237.99 237.568 251.718 224.094 256.257 218.382C258.917 215.035 266.968 203.418 267.637 201.963C267.785 201.64 268.282 200.76 268.742 200.008C270.11 197.769 273.954 189.919 275.636 185.934C278.225 179.796 281.04 170.873 282.974 162.674C283.427 160.75 285.045 151.514 285.282 149.498C285.483 147.778 285.715 147.214 286.296 147.03C287.285 146.716 288.122 147.202 287.39 147.666C287.059 147.876 287.029 148.004 287.311 148.008C288.741 148.027 283.664 172.466 280.773 179.484C280.507 180.129 280.231 180.957 280.159 181.324C279.549 184.438 270.52 203.029 269.407 203.461C269.223 203.533 269.072 203.764 269.072 203.974C269.072 204.318 263.413 212.989 261.449 215.655C250.883 230 237.721 242.165 222.44 251.712C220.459 252.949 215.495 255.623 211.41 257.654C193.676 266.469 174.905 271.472 155.447 272.567L150.695 272.834L150.951 271.585ZM151.865 267.293C151.65 267.16 151.566 266.568 151.679 265.977C151.872 264.967 152.007 264.903 153.951 264.903C159.824 264.903 171.644 263.136 180.367 260.955C200.226 255.988 218.096 246.868 233.912 233.628C237.571 230.565 247.696 220.271 250.446 216.818C251.902 214.99 253.522 212.967 254.046 212.322C254.984 211.17 259.115 205.278 259.889 203.988C260.107 203.627 261.062 202.011 262.012 200.399C262.963 198.786 263.959 197.203 264.225 196.88C264.492 196.558 265.622 194.457 266.736 192.213C271.299 183.023 273.572 176.907 275.895 167.561C276.617 164.658 277.339 161.755 277.501 161.11C277.663 160.465 277.838 159.732 277.89 159.481C279.027 154.018 280.328 149.979 280.038 152.811C279.997 153.2 280.19 153.458 280.478 153.398C280.849 153.32 280.963 153.772 280.895 155.051C280.786 157.069 279.135 165.546 278.229 168.733C277.893 169.916 277.45 171.587 277.244 172.447C277.038 173.307 276.32 175.594 275.65 177.529C268.721 197.52 255.997 216.772 239.736 231.869C235.463 235.837 234.786 236.391 229.086 240.603C212.598 252.784 196.403 260.078 176.097 264.469C169.089 265.984 169.957 265.87 153.881 267.382C152.988 267.466 152.08 267.426 151.865 267.293ZM160.407 256.719C159.006 254.101 161.446 251.726 163.824 253.393C164.856 254.115 164.991 255.949 164.079 256.861C163.191 257.749 160.911 257.661 160.407 256.719ZM186.195 252.849C186.195 251.856 186.611 251.537 187.234 252.053C188.015 252.702 187.868 253.566 186.977 253.566C186.479 253.566 186.195 253.305 186.195 252.849ZM174.467 245.615C174.467 244.796 174.874 244.618 179.256 243.525C192.685 240.175 208.956 231.792 220.789 222.126C228.841 215.548 238.027 205.31 243.437 196.88C244.058 195.913 244.89 194.645 245.286 194.062C245.683 193.479 246.007 192.916 246.007 192.809C246.007 192.702 246.462 191.947 247.017 191.131C248.141 189.481 254.217 177.174 254.217 176.548C254.217 176.33 254.386 175.845 254.593 175.471C255.713 173.451 257.99 165.925 259.294 159.937C260.35 155.082 260.641 154.147 261.153 153.977C261.651 153.811 261.479 157.155 260.885 159.155C260.694 159.801 260.419 161.03 260.274 161.888C259.988 163.58 257.697 171.329 256.921 173.229C256.658 173.874 256.394 174.645 256.334 174.942C256.274 175.238 256.037 175.67 255.808 175.9C255.578 176.129 255.39 176.579 255.39 176.898C255.39 177.51 255.089 178.19 251.914 184.762C246.131 196.728 239.367 206.235 229.784 215.867C219.236 226.466 209.628 233.041 194.795 239.805C189.743 242.11 179.722 245.507 175.737 246.267C174.603 246.483 174.467 246.413 174.467 245.615ZM208.235 242.052C207.932 241.262 208.383 240.665 209.283 240.665C209.832 240.665 210.041 240.935 210.041 241.642C210.041 242.364 209.834 242.62 209.248 242.62C208.81 242.62 208.355 242.364 208.235 242.052ZM217.86 237.118C217.86 236.116 219.154 236.23 219.35 237.249C219.441 237.718 219.23 237.928 218.671 237.928C218.111 237.928 217.86 237.677 217.86 237.118ZM221.425 234.829C220.823 234.458 220.974 233.176 221.645 232.953C221.9 232.868 222.292 233.143 222.517 233.563C223.002 234.471 222.252 235.341 221.425 234.829ZM231.785 228.155C231.406 227.295 230.844 226.591 230.537 226.591C229.744 226.591 229.846 225.908 230.707 225.447C231.108 225.233 231.657 224.523 231.927 223.87C232.497 222.496 232.951 222.358 233.299 223.455C233.434 223.88 234.148 224.725 234.885 225.333L236.225 226.437L234.895 226.919C233.989 227.246 233.436 227.77 233.16 228.559C232.938 229.197 232.693 229.719 232.616 229.719C232.538 229.719 232.165 229.015 231.785 228.155ZM250.014 205.591C249.512 205.411 249.343 204.23 249.759 203.814C250.191 203.382 251.089 203.993 251.089 204.718C251.089 205.541 250.717 205.843 250.014 205.591ZM253.577 198.251C253.442 197.898 253.519 197.422 253.748 197.193C254.344 196.597 255.472 197.142 255.316 197.95C255.143 198.85 253.89 199.067 253.577 198.251ZM265.593 171.643C264.573 169.914 264.566 169.445 265.554 168.733C265.984 168.423 266.336 167.945 266.336 167.67C266.336 166.88 267.17 167.088 267.391 167.933C267.5 168.353 268.02 168.978 268.545 169.323L269.5 169.949L268.309 171.061C267.654 171.674 267.118 172.368 267.118 172.604C267.118 173.459 266.396 173.004 265.593 171.643ZM286.145 145.831C286.275 145.49 286.492 145.359 286.626 145.538C286.759 145.717 287.028 145.996 287.223 146.157C287.417 146.318 287.201 146.45 286.742 146.45C286.141 146.45 285.974 146.277 286.145 145.831Z" stroke="#233040" stroke-width="2" mask="url(#path-5-outside-4_2656_107)"/>
<path d="M112.344 78.667C114.088 69.4305 119.844 61.3118 127.518 57.2626C143.748 48.6961 163.353 55.2218 171.94 72.0469C178.744 85.3745 174.995 96.7591 158.712 112.23C144.753 125.49 141.719 127.198 138.606 123.551C137.306 122.029 131.595 115.973 125.912 110.098C114.638 98.4361 110.443 88.7209 112.344 78.667Z" fill="#DB3608"/>
<path d="M87.6732 163.655C64.7432 150.839 66.5239 117.228 90.7248 106.058C99.7973 101.87 106.927 101.812 115.916 105.85L122.901 108.989H109.221C93.6071 108.989 87.5368 112.071 82.0801 122.773C76.8984 132.935 77.8762 143.711 84.8076 152.84C92.0577 162.388 96.3674 164.513 108.562 164.547C115.35 164.567 117.262 165.076 115.305 166.341C110.057 169.733 96.1231 168.378 87.6732 163.655Z" fill="#DB3608"/>
<path d="M163.439 113.881C168.003 109.051 173.383 105.388 177.249 104.479C187.567 102.052 192.022 102.411 200.1 106.322C218.571 115.265 224.917 140.58 212.41 155.442C203.205 166.385 188.182 170.833 175.962 166.232C168.14 163.289 157.316 151.755 155.28 144.197C152.25 132.944 154.967 122.848 163.439 113.881Z" fill="#DB3608"/>
<path d="M122.873 175.698C127.765 167.382 133.445 156.558 135.592 152.254C140.655 142.098 143.812 143.649 149.575 154.83C153.486 162.42 161.216 174.177 170.502 186.949C182.832 203.909 196.74 221.541 196.74 222.66C196.74 224.127 166.492 237.335 143.908 237.335C121.627 237.335 95.3134 227.529 94.011 224.616C93.2472 222.908 107.523 201.496 110.154 197.222C112.075 194.1 119.264 184.21 122.873 175.698Z" fill="#507DA4"/>
<path fill-rule="evenodd" clip-rule="evenodd" d="M182.247 110.58C174.772 112.179 167.478 118.289 164.513 125.434C160.607 134.849 162.278 143.656 169.383 151.103C173.23 155.136 178.62 158.001 184.059 158.903C190.925 160.042 199 157.33 204.194 152.139C207.113 149.221 209.806 144.535 210.88 140.5C211.843 136.879 211.339 129.318 209.878 125.509C207.647 119.688 201.881 114.03 195.875 111.768C192.203 110.385 185.776 109.824 182.247 110.58ZM196.687 115.332C205.416 119.656 209.951 129.251 208.009 139.281C207.485 141.983 204.956 146.522 202.417 149.315C194.354 158.183 180.391 158.27 171.685 149.507C167.285 145.078 165.935 141.694 165.892 134.985C165.86 129.952 165.969 129.388 167.631 125.984C169.823 121.494 173.626 117.587 177.69 115.65C182.378 113.415 183.06 113.276 188.371 113.471C192.602 113.627 193.777 113.89 196.687 115.332ZM188.133 117.505L186.96 118.491L188.18 120.156L189.4 121.82L190.824 120.324L192.249 118.827L191.009 117.656C189.533 116.26 189.611 116.264 188.133 117.505ZM189.32 128.285C188.803 130.69 188.141 131.485 185.842 132.462L183.977 133.255L185.309 133.775C187.873 134.775 188.183 135.084 188.952 137.407L189.728 139.749L190.643 137.369C191.43 135.324 191.88 134.885 193.849 134.241C195.96 133.552 196.062 133.436 195.152 132.766C194.609 132.367 193.761 132.04 193.266 132.04C192.104 132.04 191.34 131.081 190.446 128.497L189.724 126.407L189.32 128.285Z" fill="#C6CAB9"/>
<path d="M93.5101 118.162C96.7504 115.013 99.0143 113.672 103.586 112.196C108.513 110.605 115.724 111.033 116.002 112.933C116.12 113.733 115.532 113.856 111.577 113.856C104.02 113.856 98.3831 116.442 94.0621 121.89C90.5247 126.351 89.6723 128.827 89.609 134.83C89.5579 139.668 89.6872 140.337 91.3155 143.635C94.3268 149.735 100.081 154.789 105.949 156.488C107.13 156.83 108.064 157.357 108.024 157.66C107.875 158.789 103.692 158.079 100.052 156.305C93.2196 152.976 87.9504 146.088 86.4492 138.522C85.1185 131.814 87.9939 123.524 93.5101 118.162Z" fill="#DEAE6D"/>
<path d="M98.3545 134.028C101.508 132.823 103.802 130.038 105.037 125.917L106.006 122.681L106.776 124.762C108.8 130.232 111.256 133.08 115.016 134.321C116.5 134.811 116.723 135.07 116.201 135.699C115.848 136.125 115.201 136.473 114.764 136.473C112.302 136.473 108.234 141.515 106.829 146.308L106.123 148.715L105.189 145.403C103.722 140.198 101.56 137.427 98.1344 136.358C96.8956 135.971 95.882 135.501 95.882 135.313C95.882 135.126 96.9947 134.547 98.3545 134.028Z" fill="#DEAE6D"/>
<path fill-rule="evenodd" clip-rule="evenodd" d="M143.007 59.0101C142.903 59.344 142.7 60.1658 142.554 60.837C142.32 61.9092 141.889 62.1324 139.007 62.676C131.86 64.0229 124.958 69.2619 121.886 75.6706C119.68 80.2718 119.041 83.914 119.588 88.7652L120.023 92.6213L131.136 92.7519L142.249 92.8824L142.256 101.003C142.261 105.469 142.458 109.428 142.695 109.801C142.933 110.173 143.479 110.344 143.909 110.18C144.585 109.922 144.691 108.731 144.691 101.42V92.9577L155.642 92.7892C161.665 92.697 166.776 92.4383 166.999 92.2151C167.223 91.9913 167.376 89.152 167.338 85.9054C167.279 80.7882 167.104 79.5957 166.022 76.951C163.16 69.956 157.599 65.1096 150.311 63.2575C148.209 62.7231 146.104 62.2863 145.633 62.2863C145.015 62.2863 144.685 61.7466 144.447 60.3449C144.127 58.4602 143.39 57.7768 143.007 59.0101ZM142.249 73.9349C142.249 78.74 142.158 82.6715 142.046 82.6715C141.934 82.6715 140.78 81.6857 139.481 80.481C136.141 77.3825 136.088 78.9347 139.405 82.6792C142.155 85.7821 142.773 87.1232 142.384 89.1447L142.144 90.3896L132.305 90.2921L122.465 90.1945L122.469 85.818C122.474 79.369 123.802 76.2506 128.571 71.4917C131.892 68.1776 132.601 67.7126 136.143 66.5322C138.292 65.8163 140.545 65.2232 141.15 65.2145L142.249 65.1985V73.9349ZM153.206 67.3511C157.221 69.2697 161.612 73.5045 163.208 76.9971C165.229 81.4173 165.784 88.9836 164.162 90.0043C163.797 90.2344 159.266 90.4256 154.095 90.4299L144.691 90.4372L144.708 88.3744C144.729 85.9151 145.244 84.9167 147.989 82.0128C151.201 78.6138 150.593 77.4398 147.198 80.4873C146.157 81.4217 145.168 82.1861 144.999 82.1861C144.83 82.1861 144.691 78.3333 144.691 73.6248V65.063L147.165 65.3543C148.524 65.5144 151.243 66.4129 153.206 67.3511Z" fill="white"/>
<path d="M138.783 214.242C139.501 210.76 140.354 208.361 140.781 206.601C142.933 206.123 142.697 205.645 144.614 207.078C146.426 214.306 148.767 225.998 148.767 226.801C148.767 227.401 146.921 227.647 142.427 227.647C137.999 227.647 136.348 227.638 136.086 226.451C135.932 225.753 136.258 224.646 136.783 222.894C137.165 221.617 138.065 217.723 138.783 214.242Z" fill="#FEEAB7"/>
<path d="M139.687 186.591C140.129 184.059 140.187 182.456 140.45 181.175C141.774 180.828 143.184 180.133 144.363 181.175C145.478 186.432 145.831 195.141 145.831 195.725C145.831 196.161 144.695 196.341 141.93 196.341C139.205 196.341 138.189 196.334 138.028 195.471C137.933 194.963 138.133 194.158 138.456 192.884C138.691 191.955 139.245 189.123 139.687 186.591Z" fill="#FEEAB7"/>
<path d="M141.018 160.893C141.294 159.31 141.622 158.22 141.786 157.42C142.614 157.203 142.523 156.986 143.261 157.637C143.957 160.922 144.858 166.237 144.858 166.601C144.858 166.874 144.148 166.986 142.419 166.986C140.716 166.986 140.081 166.982 139.981 166.443C139.921 166.125 140.047 165.622 140.249 164.826C140.396 164.245 140.742 162.476 141.018 160.893Z" fill="#FEEAB7"/>
</svg>
