<svg width="30" height="34" viewBox="0 0 30 34" fill="none" xmlns="http://www.w3.org/2000/svg">
<path d="M15 0.333496C18.8333 0.333496 22.1667 3.66683 22.1667 7.3335C22.1451 8.62585 21.7862 9.89014 21.1255 11.001C20.4648 12.112 19.5253 13.0309 18.4 13.6668C20.0667 12.8335 22.5 12.8335 22.5 12.8335C26.6667 12.8335 30 15.8335 30 20.0002C30 24.1668 26.6667 27.0002 22.5 27.0002C22.5 27.0002 20 27.0002 16.6667 25.3335C16.6667 25.3335 16.1667 28.6668 20 33.6668H10C13.8333 28.6668 13.3333 25.3335 13.3333 25.3335C10 27.0002 7.5 27.0002 7.5 27.0002C3.33333 27.0002 0 24.1668 0 20.0002C0 15.8335 3.33333 12.8335 7.5 12.8335C7.5 12.8335 9.93333 12.8335 11.6 13.6668C11.1 13.3835 7.98333 11.6168 7.83333 7.3335C7.83333 3.66683 11.1667 0.333496 15 0.333496Z" fill="black"/>
</svg>
