<svg width="31" height="31" viewBox="0 0 31 31" fill="none" xmlns="http://www.w3.org/2000/svg">
<path d="M4.52082 10.3332C4.52108 9.10854 4.83789 7.90479 5.44051 6.83872C6.04313 5.77264 6.91111 4.88045 7.96019 4.24871C9.00928 3.61698 10.2039 3.26716 11.428 3.2332C12.6521 3.19924 13.8643 3.4823 14.9468 4.0549C16.0293 4.62751 16.9453 5.47021 17.6061 6.50124C18.2669 7.53227 18.65 8.7166 18.7181 9.93932C18.7863 11.162 18.5372 12.3816 17.9951 13.4797C17.4529 14.5777 16.6362 15.517 15.624 16.2064C17.8037 17.0058 19.6943 18.4393 21.0524 20.3223C22.4105 22.2053 23.1741 24.4516 23.2448 26.7722C23.2418 27.0224 23.1422 27.2618 22.9669 27.4403C22.7916 27.6188 22.554 27.7226 22.3039 27.7301C22.0538 27.7376 21.8105 27.6482 21.6248 27.4805C21.4391 27.3129 21.3253 27.0799 21.3073 26.8303C21.2304 24.3135 20.1765 21.9254 18.369 20.1723C16.5615 18.4192 14.1424 17.4387 11.6243 17.4387C9.1063 17.4387 6.6872 18.4192 4.87968 20.1723C3.07217 21.9254 2.01828 24.3135 1.94136 26.8303C1.92843 27.0833 1.81695 27.3211 1.63079 27.4929C1.44464 27.6646 1.19863 27.7566 0.945454 27.7492C0.692281 27.7418 0.452087 27.6355 0.276329 27.4531C0.100571 27.2707 0.00322833 27.0268 0.00515502 26.7735C0.0756172 24.4527 0.839064 22.206 2.19722 20.3228C3.55538 18.4396 5.4461 17.0059 7.62599 16.2064C6.66896 15.5546 5.88576 14.6787 5.34456 13.6551C4.80337 12.6315 4.52058 11.4911 4.52082 10.3332ZM11.625 5.16649C10.2547 5.16649 8.94054 5.71083 7.9716 6.67977C7.00267 7.64871 6.45832 8.96287 6.45832 10.3332C6.45832 11.7034 7.00267 13.0176 7.9716 13.9865C8.94054 14.9555 10.2547 15.4998 11.625 15.4998C12.9953 15.4998 14.3094 14.9555 15.2784 13.9865C16.2473 13.0176 16.7917 11.7034 16.7917 10.3332C16.7917 8.96287 16.2473 7.64871 15.2784 6.67977C14.3094 5.71083 12.9953 5.16649 11.625 5.16649ZM22.3329 10.3332C22.1426 10.3332 21.9557 10.3461 21.7723 10.3719C21.6443 10.3948 21.5129 10.3917 21.3861 10.3628C21.2592 10.3339 21.1395 10.2797 21.0341 10.2035C20.9286 10.1272 20.8396 10.0306 20.7724 9.91923C20.7051 9.80787 20.661 9.68411 20.6426 9.55532C20.6242 9.42654 20.6319 9.29536 20.6653 9.16963C20.6987 9.04389 20.7571 8.92617 20.8369 8.82349C20.9168 8.72081 21.0166 8.63527 21.1302 8.57197C21.2439 8.50867 21.3691 8.46891 21.4985 8.45507C22.7831 8.26933 24.0931 8.51603 25.2222 9.15635C26.3513 9.79666 27.2354 10.7942 27.7354 11.9921C28.2355 13.1899 28.323 14.52 27.9843 15.7731C27.6455 17.0261 26.8998 18.1309 25.8643 18.9137C27.3864 19.5952 28.6788 20.7027 29.5854 22.1024C30.4921 23.502 30.9744 25.1342 30.9742 26.8019C30.9742 27.0588 30.8721 27.3052 30.6904 27.4869C30.5087 27.6686 30.2623 27.7707 30.0054 27.7707C29.7485 27.7707 29.5021 27.6686 29.3204 27.4869C29.1387 27.3052 29.0367 27.0588 29.0367 26.8019C29.0371 25.3604 28.573 23.9572 27.713 22.8004C26.853 21.6435 25.6431 20.7947 24.2627 20.3797L23.5729 20.1731V18.0082L24.1025 17.7383C24.8875 17.3406 25.5156 16.69 25.8854 15.8915C26.2552 15.093 26.345 14.1931 26.1405 13.3373C25.936 12.4814 25.449 11.7194 24.7581 11.1743C24.0673 10.6293 23.2129 10.3329 22.3329 10.3332Z" fill="#D9D9D9"/>
</svg>
