<svg width="43" height="43" viewBox="0 0 43 43" fill="none" xmlns="http://www.w3.org/2000/svg">
<g clip-path="url(#clip0_2956_34)">
<path d="M16.306 42.4457V28.1482H11.8734V21.5781H16.306V18.7473C16.306 11.4283 19.617 8.03671 26.8015 8.03671C27.52 8.03671 28.5126 8.11196 29.4317 8.22125C30.1199 8.29372 30.8028 8.41042 31.476 8.57062V14.5279C31.0869 14.4923 30.6967 14.4707 30.306 14.4634C29.8684 14.4521 29.4306 14.4467 28.9927 14.4473C27.726 14.4473 26.737 14.6193 25.9917 15.0009C25.4914 15.2534 25.0704 15.639 24.7752 16.1153C24.3129 16.8678 24.1051 17.898 24.1051 19.2543V21.5781H31.1266L30.435 25.346L29.9208 28.1482H24.1051V42.9205C34.7512 41.634 43 32.57 43 21.5781C43 9.70475 33.3734 0.078125 21.5 0.078125C9.62663 0.078125 0 9.70475 0 21.5781C0 31.6616 6.94092 40.1219 16.306 42.4457Z" fill="white"/>
</g>
<defs>
<clipPath id="clip0_2956_34">
<rect width="43" height="43" fill="white"/>
</clipPath>
</defs>
</svg>
