<svg width="43" height="43" viewBox="0 0 43 43" fill="none" xmlns="http://www.w3.org/2000/svg">
<path d="M34.6916 17.6719C34.8434 17.6667 34.9946 17.692 35.1364 17.7465C35.2782 17.801 35.4075 17.8834 35.5167 17.9889C35.6259 18.0945 35.7128 18.2209 35.7721 18.3607C35.8314 18.5005 35.862 18.6508 35.862 18.8027C35.862 18.9545 35.8314 19.1048 35.7721 19.2446C35.7128 19.3844 35.6259 19.5109 35.5167 19.6164C35.4075 19.7219 35.2782 19.8043 35.1364 19.8588C34.9946 19.9133 34.8434 19.9387 34.6916 19.9334H31.5486V21.949H34.6916C34.8443 21.9416 34.9969 21.9652 35.1402 22.0185C35.2834 22.0718 35.4144 22.1536 35.5251 22.2591C35.6358 22.3645 35.7239 22.4913 35.7841 22.6318C35.8444 22.7723 35.8754 22.9236 35.8754 23.0765C35.8754 23.2293 35.8444 23.3806 35.7841 23.5211C35.7239 23.6616 35.6358 23.7884 35.5251 23.8938C35.4144 23.9993 35.2834 24.0811 35.1402 24.1344C34.9969 24.1877 34.8443 24.2113 34.6916 24.2039H30.4225C30.1241 24.2028 29.8382 24.0836 29.6274 23.8723C29.4167 23.661 29.2981 23.3749 29.2978 23.0765V14.5302C29.2978 13.908 29.8017 13.3974 30.4225 13.3974H34.6997C34.9898 13.4124 35.2631 13.5385 35.4629 13.7494C35.6626 13.9604 35.7736 14.2402 35.7727 14.5307C35.7718 14.8213 35.6592 15.1003 35.4582 15.3101C35.2572 15.5199 34.9832 15.6443 34.6929 15.6576H31.5499V17.6732L34.6916 17.6719ZM27.7928 23.0751C27.7903 23.3744 27.6698 23.6606 27.4574 23.8715C27.245 24.0823 26.9579 24.2008 26.6587 24.2012C26.4815 24.2029 26.3063 24.1634 26.147 24.0857C25.9877 24.008 25.8487 23.8944 25.7409 23.7537L21.367 17.8049V23.0738C21.367 23.3728 21.2482 23.6595 21.0368 23.871C20.8253 24.0824 20.5386 24.2012 20.2396 24.2012C19.9406 24.2012 19.6538 24.0824 19.4424 23.871C19.2309 23.6595 19.1122 23.3728 19.1122 23.0738V14.5275C19.1122 14.0451 19.4279 13.6124 19.8821 13.4579C19.9946 13.4194 20.1126 13.3999 20.2315 13.4001C20.5809 13.4001 20.9034 13.5896 21.1197 13.8556L25.5286 19.8179V14.5275C25.5286 13.9054 26.0325 13.3947 26.656 13.3947C27.2795 13.3947 27.7901 13.9054 27.7901 14.5275L27.7928 23.0751ZM17.505 23.0751C17.5036 23.3748 17.3835 23.6618 17.1709 23.8731C16.9583 24.0844 16.6706 24.2029 16.3709 24.2025C16.0734 24.2 15.7889 24.0802 15.5793 23.8691C15.3697 23.658 15.2519 23.3726 15.2516 23.0751V14.5289C15.2516 13.9067 15.7555 13.3961 16.379 13.3961C17.0025 13.3961 17.5064 13.9067 17.5064 14.5289L17.505 23.0751ZM13.0881 24.2025H8.81097C8.51156 24.2018 8.22451 24.083 8.01216 23.8719C7.79982 23.6609 7.67932 23.3745 7.67684 23.0751V14.5289C7.67684 13.9067 8.18747 13.3961 8.81097 13.3961C9.43447 13.3961 9.93838 13.9067 9.93838 14.5289V21.9477H13.0881C13.3871 21.9477 13.6739 22.0665 13.8853 22.2779C14.0968 22.4893 14.2155 22.7761 14.2155 23.0751C14.2155 23.3741 14.0968 23.6609 13.8853 23.8723C13.6739 24.0837 13.3871 24.2025 13.0881 24.2025ZM43 18.4755C43 8.85286 33.3478 1.02148 21.5 1.02148C9.65216 1.02148 0 8.85286 0 18.4755C0 27.0983 7.64997 34.321 17.9794 35.6929C18.6795 35.8394 19.6308 36.1552 19.8768 36.7505C20.0931 37.288 20.0165 38.1211 19.9466 38.6895L19.6523 40.5156C19.5677 41.0545 19.2183 42.6374 21.5282 41.6713C23.8448 40.7051 33.923 34.3653 38.4366 29.1704C41.5232 25.7908 43 22.3186 43 18.4755Z" fill="white"/>
</svg>
