<svg width="1050" height="552" viewBox="0 0 1050 552" fill="none" xmlns="http://www.w3.org/2000/svg">
<path d="M368.943 268.033L87.7727 10.341C76.5618 5.76228 43.5119 -0.647972 1 10.341" stroke="white"/>
<path d="M369.617 268.582H671.64L984.102 3.50391H1049V551H3.01953V3.50391H94.5036L369.617 268.582Z" fill="#B2A280"/>
<path d="M3.01953 551L369.617 268.582M3.01953 551V3.50391H94.5036L369.617 268.582M3.01953 551H1049M369.617 268.582H671.64M671.64 268.582L1049 551M671.64 268.582L984.102 3.50391H1049V551" stroke="white"/>
<path d="M666.258 268.582L819.96 142.209L973.662 15.8352C976.128 12.3553 994.111 4.51648 1046.31 1" stroke="white"/>
</svg>
