<svg width="32" height="32" viewBox="0 0 32 32" fill="none" xmlns="http://www.w3.org/2000/svg">
<path d="M20.66 11.8691C19.53 11.8691 18.512 12.8031 18.512 13.9861C18.512 15.1691 19.53 16.1041 20.66 16.1041C21.8 16.1041 22.781 15.1591 22.781 13.9861C22.781 12.8141 21.801 11.8691 20.66 11.8691ZM19.512 13.9861C19.512 13.3881 20.05 12.8691 20.66 12.8691C21.26 12.8691 21.781 13.3771 21.781 13.9861C21.781 14.5961 21.259 15.1041 20.66 15.1041C20.05 15.1041 19.512 14.5851 19.512 13.9861ZM20.66 16.9061C19.541 16.9061 18.5 17.8151 18.5 19.0081C18.5 20.1891 19.528 21.1421 20.66 21.1421C21.817 21.1421 22.756 20.1641 22.756 19.0081C22.7565 18.4515 22.5361 17.9175 22.143 17.5233C21.75 17.1292 21.2166 16.9072 20.66 16.9061ZM19.5 19.0081C19.5 18.4201 20.039 17.9061 20.66 17.9061C21.256 17.9061 21.756 18.3961 21.756 19.0081C21.756 19.6341 21.243 20.1421 20.66 20.1421C20.052 20.1421 19.5 19.6081 19.5 19.0081ZM15.426 21.0001H5.584C5.26 21.0001 5 20.7771 5 20.5001C5 20.2231 5.26 20.0001 5.584 20.0001H15.416C15.739 20.0001 16 20.2231 16 20.5001C16.01 20.7681 15.74 21.0001 15.426 21.0001ZM15.426 19.0001H5.584C5.26 19.0001 5 18.7771 5 18.5001C5 18.2231 5.26 18.0001 5.584 18.0001H15.416C15.739 18.0001 16 18.2231 16 18.5001C16.01 18.7771 15.74 19.0001 15.426 19.0001ZM27.261 17.0001H24.74C24.33 17.0001 24.001 17.3301 24.001 17.7391V20.2611C24.001 20.6711 24.331 21.0001 24.74 21.0001H27.262C27.672 21.0001 28.001 20.6701 28.001 20.2611V17.7401C28.0013 17.643 27.9823 17.5468 27.9453 17.457C27.9082 17.3672 27.8538 17.2857 27.7851 17.217C27.7165 17.1483 27.6349 17.0939 27.5451 17.0569C27.4553 17.0198 27.3591 17.0009 27.262 17.0011M10.116 14.0001H5.884C5.395 14.0001 5 13.5691 5 13.0351C5 12.5011 5.395 12.0701 5.884 12.0701H10.116C10.605 12.0701 11 12.5011 11 13.0351C11 13.5801 10.605 14.0001 10.116 14.0001Z" fill="white"/>
<path d="M4.19 8C2.406 8 1 9.474 1 11.242V21.758C1 23.526 2.406 25 4.19 25H18.62C19.365 25 19.933 24.481 20.112 23.855C20.1455 23.7341 20.2167 23.627 20.3153 23.5493C20.4138 23.4716 20.5346 23.4274 20.66 23.423C20.906 23.423 21.134 23.591 21.207 23.851L21.208 23.854C21.387 24.481 21.955 25 22.7 25H27.81C29.594 25 31 23.526 31 21.758V11.242C31 9.474 29.594 8 27.81 8H22.7C21.955 8 21.387 8.519 21.208 9.145C21.1745 9.26593 21.1033 9.37301 21.0047 9.4507C20.9062 9.52839 20.7854 9.57263 20.66 9.577C20.5346 9.57506 20.4133 9.53219 20.3146 9.45492C20.2158 9.37765 20.145 9.27022 20.113 9.149L20.112 9.146C19.933 8.519 19.365 8 18.62 8H4.19ZM3 11.242C3 10.533 3.554 10 4.19 10H18.296C18.4913 10.4662 18.8197 10.8645 19.2402 11.145C19.6607 11.4255 20.1545 11.5757 20.66 11.577C21.165 11.5742 21.6581 11.4234 22.0781 11.143C22.4981 10.8627 22.8267 10.4653 23.023 10H27.81C28.446 10 29 10.533 29 11.242V21.758C29 22.467 28.446 23 27.81 23H23.024C22.8287 22.5338 22.5003 22.1355 22.0798 21.855C21.6593 21.5745 21.1655 21.4243 20.66 21.423C20.155 21.4258 19.6619 21.5766 19.2419 21.857C18.8219 22.1373 18.4933 22.5347 18.297 23H4.19C3.554 23 3 22.467 3 21.758V11.242Z" fill="white"/>
</svg>
