<svg width="40" height="40" viewBox="0 0 40 40" fill="none" xmlns="http://www.w3.org/2000/svg">
<g clip-path="url(#clip0_3448_26)">
<path d="M35.7499 19.5802C35.7505 18.5023 35.3969 17.4541 34.7436 16.5969C34.0902 15.7396 33.1733 15.1208 32.1338 14.8357C31.0944 14.5505 29.99 14.6148 28.9907 15.0186C27.9914 15.4224 27.1524 16.1434 26.6029 17.0707C24.7343 16.5428 22.8078 16.2466 20.8669 16.1887L22.4074 5.90916L26.9404 7.44966C26.9166 7.59126 26.8996 7.73392 26.8894 7.87716C26.8894 8.87172 27.2845 9.82555 27.9878 10.5288C28.691 11.2321 29.6448 11.6272 30.6394 11.6272C31.634 11.6272 32.5878 11.2321 33.2911 10.5288C33.9943 9.82555 34.3894 8.87172 34.3894 7.87716V7.86216C34.3669 6.87912 33.9631 5.94334 33.2633 5.25254C32.5636 4.56173 31.6226 4.17002 30.6394 4.16016C29.9881 4.16666 29.3497 4.34271 28.7871 4.67096C28.2245 4.99921 27.7571 5.46834 27.4309 6.03216L22.0414 4.20066C21.9374 4.16542 21.8269 4.15345 21.7178 4.16559C21.6087 4.17773 21.5036 4.21369 21.4099 4.27091C21.3161 4.32814 21.2361 4.40524 21.1755 4.49678C21.1149 4.58832 21.0751 4.69205 21.0589 4.80066L19.3519 16.1812C17.3374 16.2265 15.3367 16.5253 13.3969 17.0707C13.0607 16.4905 12.6091 15.9854 12.07 15.5866C11.5308 15.1879 10.9157 14.9039 10.2625 14.7522C9.60934 14.6005 8.93199 14.5844 8.27233 14.7048C7.61267 14.8252 6.9847 15.0796 6.42722 15.4522C5.86973 15.8249 5.39458 16.3079 5.03111 16.8714C4.66764 17.4349 4.42357 18.0669 4.31399 18.7285C4.2044 19.39 4.23163 20.067 4.39398 20.7176C4.55633 21.3682 4.85036 21.9787 5.2579 22.5112C4.61535 23.5297 4.26654 24.706 4.2499 25.9102C4.2499 31.2862 11.3149 35.6602 19.9999 35.6602C28.6849 35.6602 35.7499 31.2862 35.7499 25.9102C35.7334 24.7066 35.3852 23.531 34.7434 22.5127C35.3862 21.6692 35.7392 20.6406 35.7499 19.5802ZM28.3894 7.89366C28.3918 7.2977 28.6305 6.72704 29.0532 6.3069C29.4758 5.88676 30.0479 5.65147 30.6439 5.65266C31.2398 5.65385 31.811 5.89143 32.232 6.31326C32.6529 6.73508 32.8894 7.3067 32.8894 7.90266C32.8894 8.49861 32.6529 9.07023 32.232 9.49205C31.811 9.91388 31.2398 10.1515 30.6439 10.1527C30.0479 10.1538 29.4758 9.91855 29.0532 9.49841C28.6305 9.07827 28.3918 8.50761 28.3894 7.91166V7.89366ZM32.8354 16.7872C34.2454 17.7997 34.6654 19.7152 33.8044 21.2242C32.2245 19.5629 30.2671 18.3074 28.0984 17.5642C28.6236 16.833 29.4176 16.3404 30.306 16.1947C31.1943 16.0489 32.1042 16.2621 32.8354 16.7872ZM7.4554 16.6072C8.18413 16.1906 9.04103 16.058 9.8616 16.2346C10.6822 16.4112 11.4086 16.8847 11.9014 17.5642C9.73268 18.3074 7.7753 19.5629 6.1954 21.2242C5.97496 20.8383 5.83269 20.4127 5.77672 19.9719C5.72074 19.531 5.75215 19.0834 5.86915 18.6547C5.98615 18.226 6.18646 17.8245 6.45863 17.4732C6.7308 17.1218 7.0695 16.8276 7.4554 16.6072ZM19.9999 34.1602C12.1429 34.1602 5.7499 30.4597 5.7499 25.9102C5.7499 22.7677 8.8039 20.0302 13.2829 18.6382C13.2919 18.6352 13.3009 18.6382 13.3084 18.6337L13.3129 18.6307C15.4813 17.9768 17.7351 17.6497 19.9999 17.6602C22.2649 17.6497 24.5179 17.9752 26.6869 18.6307L26.6914 18.6337L26.7169 18.6382C31.1959 20.0317 34.2499 22.7677 34.2499 25.9102C34.2499 30.4597 27.8569 34.1602 19.9999 34.1602ZM24.7999 20.6617C24.2032 20.6617 23.6309 20.8987 23.2089 21.3207C22.787 21.7426 22.5499 22.3149 22.5499 22.9117C22.5499 23.5084 22.787 24.0807 23.2089 24.5026C23.6309 24.9246 24.2032 25.1617 24.7999 25.1617C25.3966 25.1617 25.9689 24.9246 26.3909 24.5026C26.8128 24.0807 27.0499 23.5084 27.0499 22.9117C27.0499 22.3149 26.8128 21.7426 26.3909 21.3207C25.9689 20.8987 25.3966 20.6617 24.7999 20.6617ZM15.7999 25.1632C16.3966 25.1636 16.9691 24.9269 17.3913 24.5052C17.8136 24.0835 18.051 23.5114 18.0514 22.9147C18.0518 22.3179 17.8151 21.7455 17.3935 21.3232C16.9718 20.901 16.3996 20.6636 15.8029 20.6632C15.2062 20.6626 14.6336 20.899 14.2113 21.3206C13.7889 21.7421 13.5512 22.3142 13.5507 22.9109C13.5501 23.5076 13.7865 24.0802 14.2081 24.5026C14.6296 24.9249 15.2032 25.1626 15.7999 25.1632ZM15.0499 22.9132C15.0499 22.7649 15.0939 22.6199 15.1762 22.4966C15.2585 22.3733 15.3756 22.2772 15.5125 22.2204C15.6495 22.1636 15.8002 22.1486 15.9457 22.1775C16.0911 22.2063 16.2248 22.2776 16.3297 22.3823C16.4347 22.487 16.5062 22.6205 16.5353 22.7659C16.5644 22.9113 16.5498 23.0621 16.4932 23.1991C16.4367 23.3362 16.3408 23.4534 16.2177 23.536C16.0945 23.6186 15.9497 23.6629 15.8014 23.6632C15.6025 23.6632 15.4117 23.5841 15.2711 23.4435C15.1304 23.3028 15.0514 23.1121 15.0514 22.9132M24.1474 27.7432C22.9904 28.6492 21.5255 29.0679 20.0644 28.9102C18.6043 29.0671 17.1406 28.6485 15.9844 27.7432C15.8438 27.6023 15.653 27.5231 15.4539 27.523C15.2549 27.5228 15.064 27.6018 14.9232 27.7424C14.7823 27.883 14.7031 28.0739 14.703 28.2729C14.7028 28.4719 14.7818 28.6628 14.9224 28.8037C15.6302 29.399 16.4493 29.8476 17.332 30.1234C18.2148 30.3992 19.1436 30.4967 20.0644 30.4102C20.9853 30.4962 21.9141 30.3987 22.797 30.1232C23.6799 29.8477 24.4994 29.3997 25.2079 28.8052C25.3487 28.6645 25.4279 28.4737 25.4281 28.2747C25.4282 28.0757 25.3493 27.8847 25.2087 27.7439C25.068 27.6031 24.8772 27.5239 24.6782 27.5237C24.4792 27.5236 24.2882 27.6025 24.1474 27.7432Z" fill="white"/>
</g>
<defs>
<clipPath id="clip0_3448_26">
<rect width="40" height="40" fill="white"/>
</clipPath>
</defs>
</svg>
