<svg width="40" height="40" viewBox="0 0 40 40" fill="none" xmlns="http://www.w3.org/2000/svg">
<path d="M35.5663 24.6667H27.9997C27.1156 24.6667 26.2678 25.0179 25.6427 25.643C25.0175 26.2682 24.6663 27.116 24.6663 28.0001V35.5667M11.333 5.2334V8.00007C11.333 9.32615 11.8598 10.5979 12.7975 11.5356C13.7352 12.4733 15.0069 13.0001 16.333 13.0001C17.2171 13.0001 18.0649 13.3513 18.69 13.9764C19.3152 14.6015 19.6663 15.4493 19.6663 16.3334C19.6663 18.1667 21.1663 19.6667 22.9997 19.6667C23.8837 19.6667 24.7316 19.3155 25.3567 18.6904C25.9818 18.0653 26.333 17.2175 26.333 16.3334C26.333 14.5001 27.833 13.0001 29.6663 13.0001H34.9497M17.9997 36.2501V29.6667C17.9997 28.7827 17.6485 27.9348 17.0234 27.3097C16.3982 26.6846 15.5504 26.3334 14.6663 26.3334C13.7823 26.3334 12.9344 25.9822 12.3093 25.3571C11.6842 24.732 11.333 23.8841 11.333 23.0001V21.3334C11.333 20.4493 10.9818 19.6015 10.3567 18.9764C9.73158 18.3513 8.88373 18.0001 7.99967 18.0001H3.08301" stroke="white" stroke-width="2" stroke-linecap="round" stroke-linejoin="round"/>
<path d="M19.6667 36.3333C28.8714 36.3333 36.3333 28.8714 36.3333 19.6667C36.3333 10.4619 28.8714 3 19.6667 3C10.4619 3 3 10.4619 3 19.6667C3 28.8714 10.4619 36.3333 19.6667 36.3333Z" stroke="white" stroke-width="2" stroke-linecap="round" stroke-linejoin="round"/>
</svg>
