<svg width="36" height="37" viewBox="0 0 36 37" fill="none" xmlns="http://www.w3.org/2000/svg">
<path d="M33.8994 23.5002H26.3327C25.4486 23.5002 24.6008 23.8514 23.9757 24.4765C23.3505 25.1017 22.9993 25.9495 22.9993 26.8336V34.4002M9.66602 4.06689V6.83356C9.66602 8.15964 10.1928 9.43141 11.1305 10.3691C12.0682 11.3068 13.3399 11.8336 14.666 11.8336C15.5501 11.8336 16.3979 12.1848 17.023 12.8099C17.6482 13.435 17.9993 14.2828 17.9993 15.1669C17.9993 17.0002 19.4993 18.5002 21.3327 18.5002C22.2167 18.5002 23.0646 18.149 23.6897 17.5239C24.3148 16.8988 24.666 16.0509 24.666 15.1669C24.666 13.3336 26.166 11.8336 27.9993 11.8336H33.2827M16.3327 35.0836V28.5002C16.3327 27.6162 15.9815 26.7683 15.3564 26.1432C14.7312 25.5181 13.8834 25.1669 12.9993 25.1669C12.1153 25.1669 11.2674 24.8157 10.6423 24.1906C10.0172 23.5655 9.66602 22.7176 9.66602 21.8336V20.1669C9.66602 19.2828 9.31483 18.435 8.68971 17.8099C8.06458 17.1848 7.21674 16.8336 6.33268 16.8336H1.41602" stroke="white" stroke-width="2" stroke-linecap="round" stroke-linejoin="round"/>
<path d="M17.9997 35.1668C27.2044 35.1668 34.6663 27.7049 34.6663 18.5002C34.6663 9.29542 27.2044 1.8335 17.9997 1.8335C8.79493 1.8335 1.33301 9.29542 1.33301 18.5002C1.33301 27.7049 8.79493 35.1668 17.9997 35.1668Z" stroke="white" stroke-width="2" stroke-linecap="round" stroke-linejoin="round"/>
</svg>
