<svg width="40" height="41" viewBox="0 0 40 41" fill="none" xmlns="http://www.w3.org/2000/svg">
<path d="M35.8994 25.5002H28.3327C27.4486 25.5002 26.6008 25.8514 25.9757 26.4765C25.3505 27.1017 24.9993 27.9495 24.9993 28.8336V36.4002M11.666 6.06689V8.83356C11.666 10.1596 12.1928 11.4314 13.1305 12.3691C14.0682 13.3068 15.3399 13.8336 16.666 13.8336C17.5501 13.8336 18.3979 14.1848 19.023 14.8099C19.6482 15.435 19.9993 16.2828 19.9993 17.1669C19.9993 19.0002 21.4993 20.5002 23.3327 20.5002C24.2167 20.5002 25.0646 20.149 25.6897 19.5239C26.3148 18.8988 26.666 18.0509 26.666 17.1669C26.666 15.3336 28.166 13.8336 29.9993 13.8336H35.2827M18.3327 37.0836V30.5002C18.3327 29.6162 17.9815 28.7683 17.3564 28.1432C16.7312 27.5181 15.8834 27.1669 14.9993 27.1669C14.1153 27.1669 13.2674 26.8157 12.6423 26.1906C12.0172 25.5655 11.666 24.7176 11.666 23.8336V22.1669C11.666 21.2828 11.3148 20.435 10.6897 19.8099C10.0646 19.1848 9.21674 18.8336 8.33268 18.8336H3.41602" stroke="url(#paint0_linear_818_535)" stroke-width="2" stroke-linecap="round" stroke-linejoin="round"/>
<path d="M19.9997 37.1668C29.2044 37.1668 36.6663 29.7049 36.6663 20.5002C36.6663 11.2954 29.2044 3.8335 19.9997 3.8335C10.7949 3.8335 3.33301 11.2954 3.33301 20.5002C3.33301 29.7049 10.7949 37.1668 19.9997 37.1668Z" stroke="url(#paint1_linear_818_535)" stroke-width="2" stroke-linecap="round" stroke-linejoin="round"/>
<defs>
<linearGradient id="paint0_linear_818_535" x1="4.05046" y1="21.3738" x2="35.9035" y2="21.4937" gradientUnits="userSpaceOnUse">
<stop stop-color="#078FF2"/>
<stop offset="0.496667" stop-color="#00FFFF"/>
<stop offset="0.936667" stop-color="#5BCAE8"/>
</linearGradient>
<linearGradient id="paint1_linear_818_535" x1="3.98405" y1="20.2837" x2="36.6706" y2="20.4012" gradientUnits="userSpaceOnUse">
<stop stop-color="#078FF2"/>
<stop offset="0.496667" stop-color="#00FFFF"/>
<stop offset="0.936667" stop-color="#5BCAE8"/>
</linearGradient>
</defs>
</svg>
