<svg width="40" height="41" viewBox="0 0 40 41" fill="none" xmlns="http://www.w3.org/2000/svg">
<path d="M34.2934 13.8349C35.7217 13.0249 36.4351 12.6199 36.6217 11.9332C36.8084 11.2466 36.3967 10.5449 35.5734 9.14157L33.8251 6.16491C33.0017 4.76324 32.5901 4.06157 31.8917 3.87657C31.1917 3.69324 30.4784 4.09824 29.0501 4.90824L22.9117 8.39158C21.5251 9.17824 20.8334 9.57158 20.6534 10.2449C20.4717 10.9199 20.8751 11.6066 21.6817 12.9782L23.5484 16.1582C24.3334 17.4949 24.7267 18.1632 25.3867 18.3399C26.0467 18.5166 26.7201 18.1332 28.0684 17.3682M20.4051 10.8066L14.2651 14.2899C12.8801 15.0766 12.1867 15.4699 12.0067 16.1432C11.8267 16.8166 12.2301 17.5032 13.0367 18.8766L14.0284 20.5682C14.8151 21.9049 15.2067 22.5732 15.8667 22.7499C16.5267 22.9266 17.2001 22.5432 18.5501 21.7782L24.7751 18.2449M11.7601 16.7049L5.70673 20.1399C4.2784 20.9499 3.56506 21.3566 3.3784 22.0432C3.19173 22.7299 3.6034 23.4316 4.42673 24.8349C5.25006 26.2366 5.66173 26.9382 6.36173 27.1232C7.06173 27.3082 7.77506 26.9016 9.20173 26.0916L15.2567 22.6549" stroke="url(#paint0_linear_818_515)" stroke-width="1.5" stroke-linecap="round" stroke-linejoin="round"/>
<path d="M26.6663 37.1663L19.9997 21.333L13.333 37.1663" stroke="url(#paint1_linear_818_515)" stroke-width="1.5" stroke-linecap="round"/>
<defs>
<linearGradient id="paint0_linear_818_515" x1="3.985" y1="15.3487" x2="36.6699" y2="15.5165" gradientUnits="userSpaceOnUse">
<stop stop-color="#078FF2"/>
<stop offset="0.496667" stop-color="#00FFFF"/>
<stop offset="0.936667" stop-color="#5BCAE8"/>
</linearGradient>
<linearGradient id="paint1_linear_818_515" x1="13.5934" y1="29.1469" x2="26.6681" y2="29.1864" gradientUnits="userSpaceOnUse">
<stop stop-color="#078FF2"/>
<stop offset="0.496667" stop-color="#00FFFF"/>
<stop offset="0.936667" stop-color="#5BCAE8"/>
</linearGradient>
</defs>
</svg>
