<svg width="40" height="40" viewBox="0 0 40 40" fill="none" xmlns="http://www.w3.org/2000/svg">
<g clip-path="url(#clip0_3448_18)">
<path d="M12.2574 24.0909C11.0441 25.1818 9.56618 25.7273 7.82353 25.7273H5.70588V24.0909H4.64706C4.50368 24.0909 4.3796 23.8906 4.27482 23.4901C4.17004 23.0895 4.11765 22.608 4.11765 22.0455C4.11765 21.6364 4.15625 21.2187 4.23346 20.7926C3.59375 20.7585 3.06158 20.669 2.63695 20.5241C2.21232 20.3793 2 20.2045 2 20C2 19.7955 2.21232 19.6207 2.63695 19.4759C3.06158 19.331 3.59375 19.2415 4.23346 19.2074C4.15625 18.7812 4.11765 18.3636 4.11765 17.9545C4.11765 17.392 4.17004 16.9105 4.27482 16.5099C4.3796 16.1094 4.50368 15.9091 4.64706 15.9091H5.70588V14.2727H7.82353C9.56618 14.2727 11.0441 14.8182 12.2574 15.9091H30.671C31.1342 16.0284 31.7215 16.1818 32.4329 16.3693C33.1443 16.5568 33.5882 16.6761 33.7647 16.7273C34.7463 16.983 35.5735 17.3281 36.2463 17.7628C36.9191 18.1974 37.3796 18.6023 37.6278 18.9773C37.8759 19.3523 38 19.6932 38 20C38 20.3068 37.8759 20.6477 37.6278 21.0227C37.3796 21.3977 36.9191 21.8026 36.2463 22.2372C35.5735 22.6719 34.7463 23.017 33.7647 23.2727C33.5882 23.3239 33.1443 23.4432 32.4329 23.6307C31.7215 23.8182 31.1342 23.9716 30.671 24.0909H12.2574ZM30.7702 17.6477C31.3548 18.2614 31.6471 19.0455 31.6471 20C31.6471 20.9545 31.3548 21.7386 30.7702 22.3523L32.1103 23.1193C32.8603 22.3011 33.2353 21.2614 33.2353 20C33.2353 18.7386 32.8603 17.6989 32.1103 16.8807L30.7702 17.6477ZM12.3401 24.5H29.1324C26.739 25.1477 24.2243 25.8295 21.5882 26.5455C20.9596 26.5455 20.3364 26.75 19.7187 27.1591C19.1011 27.5682 18.6434 27.9773 18.3456 28.3864L17.8824 29L13.1176 36.3636C12.8309 36.8068 12.4421 37.1903 11.9513 37.5142C11.4605 37.8381 10.9669 38 10.4706 38H8.88235L7.34375 26.1364H7.82353C9.55515 26.1364 11.0607 25.5909 12.3401 24.5ZM7.82353 13.8636H7.34375L8.88235 2H10.4706C10.9779 2 11.4743 2.16193 11.9596 2.4858C12.4449 2.80966 12.8309 3.19318 13.1176 3.63636L17.8824 11C17.9265 11.0682 17.9871 11.1577 18.0643 11.2685C18.1415 11.3793 18.3097 11.5753 18.5689 11.8565C18.8281 12.1378 19.0956 12.3849 19.3713 12.598C19.6471 12.8111 19.9862 13.0071 20.3888 13.1861C20.7914 13.3651 21.1912 13.4545 21.5882 13.4545L29.1324 15.5H12.3401C11.0607 14.4091 9.55515 13.8636 7.82353 13.8636Z" fill="white"/>
</g>
<defs>
<clipPath id="clip0_3448_18">
<rect width="40" height="40" fill="white"/>
</clipPath>
</defs>
</svg>
