<svg width="40" height="41" viewBox="0 0 40 41" fill="none" xmlns="http://www.w3.org/2000/svg">
<path d="M2.48548 0.5V10.5H0V15.5H1.24274V25.5H0V30.5H2.48548V40.5H8.15609C11.2144 40.4959 14.1468 38.8664 16.3109 35.9683L21.7094 28.7817L31.6898 27.635C33.2671 27.4655 34.7955 26.8201 36.1607 25.7471C37.5259 24.674 38.6927 23.2011 39.5737 21.4383L40 20.5L39.5737 19.5617C38.6925 17.7992 37.5257 16.3266 36.1605 15.2538C34.7953 14.1811 33.267 13.536 31.6898 13.3667L21.7094 12.22L16.5048 5.24167L16.3109 5.03333C14.1467 2.13425 11.2137 0.504053 8.15484 0.5H2.48548ZM4.97095 3.83333H8.15609C10.5573 3.83013 12.8614 5.10372 14.5636 7.375L18.098 12.1667H12.4274V15.5H21.1265L31.4574 16.6467C33.5539 16.88 35.3745 18.3967 36.7391 20.5C35.3745 22.6033 33.5539 24.12 31.4574 24.355L21.0085 25.5H12.4274V28.8333H18.098L14.5636 33.625C12.8614 35.8963 10.5573 37.1699 8.15609 37.1667H4.97095V25.5H3.72821V15.5H4.97095V3.83333ZM29.8257 18.8333V22.1667H32.3112V18.8333H29.8257ZM7.45643 28.8333V33.8333H9.9419V28.8333H7.45643Z" fill="white"/>
</svg>
