<svg width="40" height="41" viewBox="0 0 40 41" fill="none" xmlns="http://www.w3.org/2000/svg">
<path d="M20 4.25009C16.3475 4.25009 13.0825 5.47509 10.39 7.49259L9.53125 8.11759L10 9.05509C9.975 9.00509 10 9.00009 10 9.25009C10 9.94384 9.44375 10.5001 8.75 10.5001C8.5 10.5001 8.50625 10.4751 8.555 10.5001L7.6175 10.0313L6.9925 10.8913C4.975 13.5826 3.75 16.8476 3.75 20.5001C3.75 26.7213 7.2475 32.2788 12.5375 34.9926L13.36 35.4213L14.0225 34.7588C14.3763 34.4051 14.6663 34.2501 15 34.2501C15.5837 34.2501 16.1925 34.8063 16.25 35.3826L16.3675 36.3601L17.305 36.4763C18.1637 36.6013 19.005 36.7513 20 36.7513C28.3687 36.7513 35.1875 30.5226 36.1325 22.4138L36.2113 21.4388L35.3487 21.0888C35.3112 21.0726 34.9988 20.6963 34.9988 20.5013C34.9988 20.3063 35.3112 19.9301 35.3487 19.9138L36.2113 19.5638L36.1313 18.5888C35.6776 14.6328 33.7813 10.9829 30.8051 8.3375C27.829 5.69205 23.9819 4.23677 20 4.25009ZM18.945 6.78759C19.6012 7.22509 21.485 8.63009 23.2025 11.4001L23.555 11.9838H24.4925C24.6269 11.98 24.7607 12.0037 24.8857 12.0535C25.0106 12.1032 25.1241 12.178 25.2191 12.2731C25.3142 12.3683 25.3888 12.4818 25.4384 12.6068C25.4879 12.7318 25.5115 12.8657 25.5075 13.0001C25.5075 13.3338 25.4263 13.4326 25 13.8601L24.4525 14.4063L24.6875 15.1488C24.7875 15.4438 24.925 15.9438 25.0788 16.3988L25.3125 17.0988L26.055 17.2176C26.2275 17.2463 26.25 17.2963 26.25 17.4926C26.25 17.6176 26.1825 17.7013 26.055 17.7638L25.39 18.1163V18.8588C25.39 19.5663 25.5075 20.2088 25.5075 20.4988C25.5075 24.3963 24.4175 27.4313 23.1637 29.4838L22.8137 30.0688L23.1262 30.6938C23.2512 30.9438 23.2437 30.9088 23.2437 31.0063C23.2437 31.2863 23.2887 31.2413 23.0087 31.2413H22.0312L21.6438 31.7101C20.5025 33.0913 19.5188 33.8351 19.025 34.1701C18.75 34.1326 18.4925 34.0951 18.2025 34.0526C17.6025 32.7551 16.4937 31.7501 15 31.7501C14.2625 31.7501 13.6663 32.0376 13.125 32.3751C9.0125 29.9838 6.25 25.5301 6.25 20.5001C6.25 17.6576 7.1925 15.1801 8.6725 13.0001H8.75C10.8063 13.0001 12.5 11.3063 12.5 9.25009V9.17134C14.4075 7.87759 16.5375 6.98884 18.945 6.78759ZM22.89 7.06259C28.4188 8.23259 32.58 12.6963 33.4775 18.3501C32.91 18.9251 32.5 19.6301 32.5 20.5001C32.5 21.3701 32.91 22.0751 33.475 22.6501C32.5875 28.2626 28.475 32.6876 23.0075 33.9001C23.1 33.7976 23.1875 33.7313 23.2825 33.6251C24.6162 33.4601 25.7425 32.3726 25.7425 31.0076C25.7425 30.6738 25.63 30.5151 25.5462 30.2663C26.9213 27.8476 28.0087 24.5988 28.0087 20.5001C28.0087 19.9938 27.9662 19.6576 27.93 19.3276C28.3862 18.8401 28.75 18.2351 28.75 17.4926C28.75 16.5401 28.1375 15.7676 27.3438 15.2676C27.3188 15.1776 27.2563 15.0926 27.2262 14.9926C27.6313 14.4551 28.0087 13.8338 28.0087 13.0001C28.0087 11.2651 26.63 9.94134 24.9625 9.68009C24.3418 8.75463 23.648 7.87943 22.89 7.06259ZM17.15 10.9301C16.3406 10.9329 15.5537 11.1966 14.9061 11.6821C14.2584 12.1676 13.7846 12.849 13.555 13.6251C12.96 15.6076 14.305 17.5301 16.1325 18.0788L16.875 15.6951C16.2037 15.4951 15.7825 14.8851 15.9375 14.3676C16.0227 14.0644 16.2181 13.8039 16.4855 13.6374C16.7528 13.4709 17.0728 13.4103 17.3825 13.4676L17.8512 11.0076C17.6209 10.9599 17.3852 10.9339 17.15 10.9301ZM10.9 20.2263C9.4675 20.8413 8.55625 22.4563 9.2575 23.9763C9.26625 23.9838 9.25375 24.0088 9.2575 24.0163C9.26625 24.0338 9.28875 24.0388 9.2975 24.0563C9.95625 25.4488 11.6013 26.3113 13.125 25.6563L12.15 23.3526C11.96 23.4351 11.65 23.2963 11.525 23.0026V22.9651L11.4838 22.9251C11.5088 22.9701 11.5813 22.6601 11.875 22.5338L10.9 20.2288V20.2263ZM16.4838 24.3688C14.965 25.5088 14.3962 27.7288 15.625 29.3688C16.765 30.8888 18.985 31.4976 20.625 30.2663L19.14 28.2351C18.7812 28.5051 17.9775 28.3638 17.6175 27.8851C17.3475 27.5226 17.5275 26.7226 18.0075 26.3601L16.4825 24.3688H16.4838Z" fill="url(#paint0_linear_818_519)"/>
<defs>
<linearGradient id="paint0_linear_818_519" x1="4.38401" y1="20.2896" x2="36.2154" y2="20.4039" gradientUnits="userSpaceOnUse">
<stop stop-color="#078FF2"/>
<stop offset="0.496667" stop-color="#00FFFF"/>
<stop offset="0.936667" stop-color="#5BCAE8"/>
</linearGradient>
</defs>
</svg>
