<svg width="40" height="40" viewBox="0 0 40 40" fill="none" xmlns="http://www.w3.org/2000/svg">
<path d="M14.1989 5.05029C17.6278 3.67636 21.4133 3.56176 24.9149 4.72588C28.4166 5.88999 31.4197 8.26137 33.4162 11.439C35.4127 14.6164 36.28 18.4051 35.8713 22.1642C35.4627 25.9232 33.8032 29.4218 31.1737 32.068M22.9649 36.4695C19.8452 37.0749 16.6206 36.7109 13.7031 35.424C10.7856 34.137 8.30746 31.9856 6.58522 29.2443C4.86298 26.5031 3.97478 23.2965 4.03403 20.034C4.09329 16.7715 5.09732 13.6012 6.91791 10.9279" stroke="white" stroke-linecap="round" stroke-linejoin="round"/>
<path d="M10.2074 9.28995C11.3101 9.28995 12.2039 8.37126 12.2039 7.23799C12.2039 6.10473 11.3101 5.18604 10.2074 5.18604C9.1048 5.18604 8.21094 6.10473 8.21094 7.23799C8.21094 8.37126 9.1048 9.28995 10.2074 9.28995Z" stroke="white" stroke-linecap="round" stroke-linejoin="round"/>
<path d="M29.4638 35.0242C29.4655 33.8909 28.573 32.9708 27.4704 32.9691C26.3678 32.9673 25.4725 33.8846 25.4708 35.0179C25.4691 36.1511 26.3616 37.0712 27.4643 37.073C28.5669 37.0747 29.4621 36.1574 29.4638 35.0242Z" stroke="white" stroke-linecap="round" stroke-linejoin="round"/>
<path d="M29.2914 16.557C30.3941 16.557 31.2879 15.6383 31.2879 14.5051C31.2879 13.3718 30.3941 12.4531 29.2914 12.4531C28.1888 12.4531 27.2949 13.3718 27.2949 14.5051C27.2949 15.6383 28.1888 16.557 29.2914 16.557Z" stroke="white" stroke-linecap="round" stroke-linejoin="round"/>
<path d="M31.1895 18.5158C31.6054 21.1863 31.1102 23.9224 29.7879 26.2606C28.4656 28.5988 26.3975 30.3952 23.934 31.3456C22.0941 32.0556 20.1071 32.265 18.1653 31.9536C16.2236 31.6422 14.3931 30.8205 12.8512 29.5681C11.3093 28.3158 10.1083 26.6753 9.36474 24.8056C8.62114 22.936 8.36011 20.9006 8.60695 18.8968C8.85379 16.893 9.60012 14.9886 10.7736 13.3685C11.9471 11.7483 13.508 10.4671 15.3049 9.64924C17.1018 8.83136 19.0738 8.50445 21.0298 8.70022C22.9857 8.89599 24.8593 9.6078 26.469 10.7666" stroke="white" stroke-linecap="round" stroke-linejoin="round"/>
<path d="M20.0671 19.9482C21.1067 19.9482 21.9496 19.082 21.9496 18.0134C21.9496 16.9448 21.1067 16.0786 20.0671 16.0786C19.0274 16.0786 18.1846 16.9448 18.1846 18.0134C18.1846 19.082 19.0274 19.9482 20.0671 19.9482Z" stroke="white" stroke-linecap="round" stroke-linejoin="round"/>
<path d="M15.8074 25.4224C15.0559 25.4586 14.9749 25.1194 14.9502 24.7487V23.2201C17.0532 20.6848 23.2467 21.0047 24.8997 23.2718V24.5413C24.8322 24.8365 24.8614 25.1919 24.4782 25.2929L15.8074 25.4224Z" stroke="white" stroke-linecap="round" stroke-linejoin="round"/>
</svg>
