<svg width="40" height="41" viewBox="0 0 40 41" fill="none" xmlns="http://www.w3.org/2000/svg">
<path d="M20 2.29688C18.7441 2.29688 17.4707 2.58828 16.2361 3.09688C16.07 3.60664 15.9332 4.25 15.8551 4.95266C15.7527 5.87375 15.7199 6.88281 15.709 7.82914C18.3546 7.53977 21.6454 7.53977 24.291 7.82914C24.2801 6.88281 24.2473 5.87367 24.1449 4.95258C24.0668 4.25008 23.9301 3.60664 23.7639 3.09688C22.5293 2.58828 21.2559 2.29688 20 2.29688ZM27.8566 3.80719C28.5843 4.35828 29.2712 4.96953 29.9098 5.62234C30.0294 5.10281 30.2763 4.63047 30.6153 4.23992L27.8566 3.80719ZM14.573 3.92359C11.864 5.50328 9.49117 8.04188 8.12359 10.6684C5.53922 15.6322 5.02281 22.9306 8.08219 27.4497C10.3739 30.8342 15.6466 32.1406 20 32.1406C24.3534 32.1406 29.6262 30.8344 31.9177 27.4496C34.9773 22.9306 34.4607 15.6322 31.8763 10.6684C30.5088 8.0418 28.136 5.50336 25.4271 3.92359C25.4723 4.20875 25.5097 4.50078 25.5426 4.79734C25.6615 5.86719 25.692 7.00023 25.6999 8.02133C27.1613 8.26773 28.2812 8.625 28.75 9.09375C31.25 11.5938 34.6513 19.6168 30 26.5938C27.0583 31.0062 12.9417 31.0062 10 26.5938C5.34867 19.6168 8.75 11.5938 11.25 9.09375C11.7188 8.625 12.8387 8.26773 14.3 8.02133C14.308 7.00023 14.3385 5.86719 14.4574 4.79734C14.4902 4.50078 14.5278 4.20875 14.573 3.92359ZM5 4.25C4.30961 4.25 3.75 4.80961 3.75 5.5C3.75002 5.70377 3.79986 5.90445 3.89518 6.08456C3.99049 6.26466 4.1284 6.41874 4.29688 6.53336V11.8672L5.70312 10.8125V6.53203C5.87142 6.41754 6.00921 6.26367 6.10451 6.08382C6.19982 5.90396 6.24976 5.70355 6.25 5.5C6.25 4.80961 5.69039 4.25 5 4.25ZM33.032 4.5375C32.0312 4.5375 31.2352 5.33359 31.2352 6.33438C31.2352 7.33516 32.0312 8.13125 33.032 8.13125C34.0328 8.13125 34.8289 7.33516 34.8289 6.33438C34.8289 5.33359 34.0328 4.5375 33.032 4.5375ZM35.0064 8.85039C34.4611 9.27984 33.7753 9.5375 33.0322 9.5375C32.974 9.5375 32.9166 9.53539 32.8592 9.53227C32.9225 9.64535 32.9845 9.75916 33.0452 9.87367L35.3773 11.6229L35.0064 8.85039ZM16.3484 9.0457C15.0002 9.05273 13.4378 9.33922 12.1896 10.3051C10.1088 11.9151 8.82758 19.2709 9.5732 21.7709C10.8688 16.9454 12.0727 12.0819 18.0045 9.17141C17.4567 9.08553 16.9029 9.04354 16.3484 9.0457ZM5.79727 12.4996L3.13672 14.4952L2.00547 20.152L4.98828 23.7312C4.13305 20.0966 4.53703 16.0184 5.79727 12.4996ZM34.2027 12.4996C35.4629 16.0185 35.867 20.0966 35.0117 23.7312L37.9945 20.1519L36.8633 14.495L34.2027 12.4996ZM8.33164 29.8695C8.05172 29.9609 7.76508 30.1356 7.52836 30.3723C7.20523 30.6954 7.00648 31.109 6.96867 31.4741C6.98508 31.5026 7.01578 31.5645 7.10383 31.643C7.29547 31.814 7.62672 32.047 8.05125 32.296C8.90023 32.7945 10.1255 33.3708 11.5048 33.9072C13.1592 34.5507 15.0477 35.1341 16.7968 35.4994V33.3423C13.7132 32.9423 10.5549 31.9107 8.33164 29.8695ZM31.6684 29.8695C29.4451 31.9105 26.2867 32.9422 23.2031 33.3422V35.4992C24.9521 35.1339 26.8406 34.5505 28.4952 33.907C29.8745 33.3707 31.0997 32.7943 31.9487 32.2959C32.3732 32.0467 32.7045 31.8139 32.8961 31.6428C32.9841 31.5644 33.0148 31.5024 33.0312 31.4741C32.9936 31.1088 32.7948 30.6952 32.4716 30.3721C32.2349 30.1354 31.9482 29.9609 31.6684 29.8694V29.8695ZM6.04078 32.5783L1.40625 35.668V39.0938H4.29688V37.6875H5.70312V39.0938H34.2969V37.6875H35.7031V39.0938H38.5938V35.668L33.9592 32.5783C33.9173 32.6164 33.8748 32.6541 33.8324 32.6921C33.526 32.9653 33.1346 33.2304 32.6607 33.5087C31.7128 34.0649 30.438 34.6605 29.0048 35.2178C26.1384 36.3325 22.6758 37.2969 20 37.2969C17.3242 37.2969 13.8616 36.3326 10.9952 35.218C9.56195 34.6605 8.28719 34.0651 7.3393 33.5087C6.86539 33.2306 6.47398 32.9654 6.16758 32.6921C6.12516 32.6541 6.08273 32.6164 6.04078 32.5783ZM18.2031 33.4831V35.7481C18.8466 35.8389 19.4541 35.8906 20 35.8906C20.5459 35.8906 21.1534 35.8389 21.7969 35.7481V33.4831C20.6005 33.568 19.3995 33.568 18.2031 33.4831Z" fill="white"/>
</svg>
