<svg width="29" height="29" viewBox="0 0 29 29" fill="none" xmlns="http://www.w3.org/2000/svg">
<path d="M14.4999 25.3752C15.928 25.3752 17.3422 25.0939 18.6616 24.5474C19.981 24.0008 21.1799 23.1998 22.1897 22.1899C23.1995 21.1801 24.0006 19.9813 24.5471 18.6618C25.0936 17.3424 25.3749 15.9283 25.3749 14.5002C25.3749 13.072 25.0936 11.6579 24.5471 10.3385C24.0006 9.01906 23.1995 7.82021 22.1897 6.81038C21.1799 5.80054 19.981 4.99949 18.6616 4.45297C17.3422 3.90645 15.928 3.62516 14.4999 3.62516C11.6157 3.62516 8.84959 4.77092 6.81013 6.81038C4.77067 8.84983 3.62492 11.6159 3.62492 14.5002C3.62492 17.3844 4.77067 20.1505 6.81013 22.1899C8.84959 24.2294 11.6157 25.3752 14.4999 25.3752ZM27.7916 14.5002C27.7916 21.8408 21.8405 27.7918 14.4999 27.7918C7.15929 27.7918 1.20825 21.8408 1.20825 14.5002C1.20825 7.15954 7.15929 1.2085 14.4999 1.2085C21.8405 1.2085 27.7916 7.15954 27.7916 14.5002ZM18.1249 19.8337L13.2916 15.0004V6.646H15.7083V13.9999L19.8335 18.1252L18.1249 19.8337Z" fill="#D9D9D9"/>
</svg>
