<svg width="239" height="282" viewBox="0 0 239 282" fill="none" xmlns="http://www.w3.org/2000/svg">
<g clip-path="url(#clip0_2881_259)">
<g clip-path="url(#clip1_2881_259)">
<path d="M251.896 98.1666H230.451V114.25C230.451 115.799 230.146 117.333 229.554 118.764C228.961 120.194 228.092 121.495 226.997 122.59C225.902 123.685 224.601 124.554 223.17 125.147C221.739 125.739 220.206 126.044 218.657 126.044C217.108 126.044 215.574 125.739 214.143 125.147C212.712 124.554 211.412 123.685 210.317 122.59C209.222 121.495 208.353 120.194 207.76 118.764C207.168 117.333 206.862 115.799 206.862 114.25V98.1666H144.406V114.25C144.406 117.378 143.163 120.378 140.951 122.59C138.739 124.802 135.739 126.044 132.611 126.044C129.483 126.044 126.483 124.802 124.271 122.59C122.059 120.378 120.817 117.378 120.817 114.25V98.1666H99.3722C98.0964 98.1521 96.8306 98.3936 95.6497 98.8768C94.4689 99.36 93.3969 100.075 92.4972 100.98C91.5975 101.884 90.8884 102.96 90.4117 104.144C89.9351 105.327 89.7006 106.595 89.7222 107.87V227.852C89.7009 229.105 89.9267 230.35 90.3867 231.516C90.8467 232.682 91.5319 233.746 92.4031 234.647C93.2743 235.548 94.3145 236.269 95.4643 236.768C96.6141 237.267 97.8509 237.535 99.1041 237.556H251.896C253.149 237.535 254.386 237.267 255.536 236.768C256.685 236.269 257.726 235.548 258.597 234.647C259.468 233.746 260.153 232.682 260.613 231.516C261.073 230.35 261.299 229.105 261.278 227.852V107.87C261.299 106.617 261.073 105.372 260.613 104.206C260.153 103.04 259.468 101.976 258.597 101.075C257.726 100.174 256.685 99.4532 255.536 98.9542C254.386 98.4552 253.149 98.1876 251.896 98.1666ZM132.611 205.389H121.889V194.667H132.611V205.389ZM132.611 178.583H121.889V167.861H132.611V178.583ZM132.611 151.778H121.889V141.056H132.611V151.778ZM164.778 205.389H154.056V194.667H164.778V205.389ZM164.778 178.583H154.056V167.861H164.778V178.583ZM164.778 151.778H154.056V141.056H164.778V151.778ZM196.944 205.389H186.222V194.667H196.944V205.389ZM196.944 178.583H186.222V167.861H196.944V178.583ZM196.944 151.778H186.222V141.056H196.944V151.778ZM229.111 205.389H218.389V194.667H229.111V205.389ZM229.111 178.583H218.389V167.861H229.111V178.583ZM229.111 151.778H218.389V141.056H229.111V151.778Z" fill="white"/>
<path d="M132.611 119.611C134.033 119.611 135.397 119.046 136.402 118.041C137.407 117.035 137.972 115.672 137.972 114.25V82.0833C137.972 80.6614 137.407 79.2978 136.402 78.2924C135.397 77.287 134.033 76.7222 132.611 76.7222C131.189 76.7222 129.826 77.287 128.82 78.2924C127.815 79.2978 127.25 80.6614 127.25 82.0833V114.25C127.25 115.672 127.815 117.035 128.82 118.041C129.826 119.046 131.189 119.611 132.611 119.611Z" fill="white"/>
<path d="M218.389 119.611C219.811 119.611 221.174 119.046 222.18 118.041C223.185 117.035 223.75 115.672 223.75 114.25V82.0833C223.75 80.6614 223.185 79.2978 222.18 78.2924C221.174 77.287 219.811 76.7222 218.389 76.7222C216.967 76.7222 215.603 77.287 214.598 78.2924C213.593 79.2978 213.028 80.6614 213.028 82.0833V114.25C213.028 115.672 213.593 117.035 214.598 118.041C215.603 119.046 216.967 119.611 218.389 119.611Z" fill="white"/>
</g>
<path d="M42.0373 131.796C44.9766 131.855 47.0873 132.427 48.4879 133.453L67.6819 143.73L78.3539 158.247C80.6028 161.719 79.0049 168.426 71.9823 164.125L64.2889 153.986C54.5242 145.565 34.6004 149.429 44.0494 166.335C48.6852 176.119 46.5153 180.893 40.5381 182.905L37.8159 173.752C33.1012 163.139 24.3032 161.226 24.6582 152.664L3.51135 154.183L3.70862 132.072L42.0373 131.796ZM52.7094 152.191C56.1418 152.132 59.5151 153.552 61.9612 155.604L69.6742 165.743C67.5635 167.42 65.433 166.512 63.3223 164.48C60.8367 165.743 58.9035 163.79 57.3254 159.884C56.6744 157.221 55.7078 155.347 52.7094 152.191ZM68.4117 171.128C68.4907 171.128 68.5893 171.128 68.6682 171.148C69.3192 171.286 70.0885 171.977 70.6014 173.555C71.134 175.133 71.2524 177.382 70.7789 179.788C70.3055 182.175 69.3192 184.207 68.2145 185.47C67.1492 186.712 66.1629 187.067 65.5119 186.929C64.8412 186.811 64.0916 186.101 63.5787 184.542C63.0461 182.964 62.908 180.696 63.3815 178.309C63.8746 175.902 64.861 173.87 65.9459 172.628C66.8928 171.523 67.7608 171.128 68.4117 171.128ZM52.1176 192.196C53.676 192.216 55.6289 192.709 57.5424 193.636C59.7321 194.721 61.4483 196.221 62.3754 197.601C63.3026 198.963 63.3815 199.988 63.0856 200.6C62.7897 201.192 61.9217 201.764 60.2647 201.843C58.6076 201.941 56.3785 201.488 54.1889 200.403C51.9992 199.318 50.283 197.838 49.3559 196.457C48.4287 195.096 48.3498 194.051 48.6457 193.459C48.9416 192.847 49.8096 192.295 51.4666 192.216C51.6836 192.196 51.8809 192.196 52.1176 192.196ZM71.3707 211.055C72.2979 211.075 73.1461 211.213 73.8957 211.43C75.5725 211.923 76.5391 212.811 76.8547 213.856C77.1901 214.921 76.8547 216.184 75.7303 217.545C74.5862 218.886 72.6727 220.169 70.3055 220.879C67.958 221.589 65.6698 221.569 63.9733 221.056C62.2768 220.563 61.3102 219.675 60.9946 218.63C60.6789 217.565 60.9946 216.302 62.1387 214.941C63.2631 213.6 65.1766 212.317 67.5438 211.607C68.8852 211.213 70.1871 211.035 71.3707 211.055Z" fill="#D9D9D9"/>
</g>
<rect x="2" y="45" width="235" height="235" rx="117.5" stroke="#D9D9D9" stroke-width="4"/>
<path d="M64.8428 42.1409C63.0751 43.0593 60.9788 43.5534 59.3768 43.3851L57.7112 39.8149L58.8187 39.2395L61.9961 42.7004L60.3769 42.8114L59.7332 42.1451C61.6478 42.3945 62.6751 42.1853 64.1233 41.4329C66.2956 40.3043 67.0423 38.6181 66.1129 36.8292C65.3494 35.3597 64.3011 34.9036 61.9528 35.0689L60.7305 35.163C57.3738 35.3654 55.2064 34.7335 53.945 32.3056C52.4844 29.4944 53.9554 26.7557 57.1926 25.0739C58.8538 24.2108 60.4704 23.9388 61.9652 24.1088L63.5533 27.5299L62.4245 28.1164L59.3995 24.7927L61.115 24.6588L61.7066 25.4332C60.0271 25.1157 59.1473 25.1401 57.9547 25.7598C56.0592 26.7446 55.2469 28.3566 56.1321 30.0604C56.9178 31.5725 58.2225 31.9494 60.1525 31.8121L61.4395 31.7384C65.3857 31.4732 67.1349 32.1331 68.341 34.4545C69.7905 37.2444 68.5911 40.1935 64.8428 42.1409Z" fill="white"/>
<path d="M88.0011 31.5223L87.8328 30.7729L91.4305 29.5963L92.3437 29.3913L96.1928 28.8962L96.361 29.6455L88.0011 31.5223ZM90.4364 30.9756C89.9179 28.3371 89.3028 25.5972 88.6878 22.8574L88.4407 21.7568C87.8256 19.017 87.221 16.3241 86.5462 13.6468L90.012 12.8688C90.5358 15.5307 91.1508 18.2705 91.7659 21.0103L92.013 22.1109C92.6176 24.8039 93.2274 27.5203 93.9022 30.1975L90.4364 30.9756ZM81.7567 19.8137L80.809 14.9348L95.7726 11.5756L96.9779 16.3966L95.7602 16.67L93.4075 12.1065L95.1762 12.6442L81.7581 15.6564L83.1507 14.4091L83.0213 19.5298L81.7567 19.8137Z" fill="white"/>
<path d="M112.733 27.02L112.756 26.2523L116.437 25.9996L116.773 26.0094L116.74 27.1369L112.733 27.02ZM114.964 27.0851C115.115 24.4003 115.197 21.5935 115.279 18.7867L115.312 17.6592C115.393 14.8524 115.474 12.0936 115.482 9.33266L119.033 9.43624C118.882 12.145 118.8 14.9518 118.714 17.9025L118.694 18.5743C118.605 21.6449 118.523 24.4278 118.515 27.1887L114.964 27.0851ZM116.74 27.1369L116.766 26.2493L125.954 26.5173L124.203 27.2826L125.515 22.6389L126.738 22.6746L126.576 27.4239L116.74 27.1369ZM116.991 18.5246L117.015 17.6849L122.917 17.8571L122.892 18.6967L116.991 18.5246ZM122.558 21.112L122.276 18.4386L122.29 17.9349L122.727 15.3065L123.807 15.338L123.637 21.1435L122.558 21.112ZM113.228 10.0592L113.251 9.26757L117.258 9.38445L117.225 10.488L116.89 10.4782L113.228 10.0592ZM125.256 14.2278L124.261 9.6368L125.915 10.5494L117.231 10.2961L117.258 9.38445L126.638 9.65811L126.527 14.2648L125.256 14.2278Z" fill="white"/>
<path d="M139.052 28.594L139.264 27.8557L142.893 28.5215L143.816 28.786L147.315 30.1638L147.104 30.902L139.052 28.594ZM141.198 29.209C142.008 26.6449 142.781 23.9456 143.555 21.2463L143.866 20.162C144.64 17.4627 145.4 14.8096 146.092 12.1366L149.506 13.1154C148.689 15.7025 147.916 18.4018 147.142 21.1011L146.679 22.7161C146.051 24.9078 145.303 27.5148 144.612 30.1878L141.198 29.209ZM144.876 22.8233L145.114 21.9927L147.721 22.74C150.674 23.5865 152.498 22.1871 153.232 19.6262C154.026 16.8577 153.098 15.0437 150.468 14.2898L147.561 13.4565L147.799 12.626L150.775 13.4791C155.689 14.8877 157.23 17.3517 156.324 20.5124C155.497 23.3962 152.835 25.1049 147.575 23.597L144.876 22.8233ZM143.728 12.2829L143.946 11.5216L147.799 12.626L147.495 13.6872L147.172 13.5946L143.728 12.2829Z" fill="white"/>
<path d="M165.892 37.5848L166.23 36.9768L169.178 38.097L171.798 39.5572L174.048 41.3875L173.698 42.0165L165.892 37.5848ZM168.407 38.9865C169.36 37.3746 170.316 35.709 171.204 34.1157L176.367 24.849L173.515 23.7545L173.912 23.0417L179.864 24.7367L180.061 25.1216L178.097 28.4503L174.055 35.7043C173.167 37.2977 172.275 38.9983 171.405 40.6569L168.407 38.9865Z" fill="white"/>
<defs>
<clipPath id="clip0_2881_259">
<rect y="43" width="239" height="239" rx="119.5" fill="white"/>
</clipPath>
<clipPath id="clip1_2881_259">
<rect width="193" height="193" fill="white" transform="translate(79 66)"/>
</clipPath>
</defs>
</svg>
