<svg width="239" height="282" viewBox="0 0 239 282" fill="none" xmlns="http://www.w3.org/2000/svg">
<rect x="2" y="45" width="235" height="235" rx="117.5" stroke="white" stroke-width="4"/>
<path d="M164.125 177.125C169.35 177.125 173.625 172.85 173.625 167.625C173.625 162.4 169.35 158.125 164.125 158.125C158.9 158.125 154.625 162.4 154.625 167.625C154.625 172.85 158.9 177.125 164.125 177.125ZM146.55 193.275L134.39 254.597C133.773 257.495 136.053 260.25 139.045 260.25H139.425C141.658 260.25 143.558 258.73 144.08 256.545L151.775 222.25L161.75 231.75V255.5C161.75 258.113 163.888 260.25 166.5 260.25C169.113 260.25 171.25 258.113 171.25 255.5V228.71C171.25 226.098 170.205 223.628 168.305 221.822L161.275 215.125L164.125 200.875C169.478 206.995 176.806 211.045 184.835 212.322C187.685 212.75 190.25 210.47 190.25 207.572C190.25 205.245 188.54 203.298 186.213 202.918C178.993 201.73 173.008 197.455 169.825 191.85L165.075 184.25C163.792 182.199 161.821 180.671 159.515 179.94C157.209 179.209 154.718 179.322 152.488 180.26L134.295 187.955C132.574 188.691 131.107 189.916 130.077 191.478C129.047 193.04 128.498 194.871 128.5 196.743V208C128.5 210.612 130.638 212.75 133.25 212.75C135.863 212.75 138 210.612 138 208V196.6L146.55 193.275Z" fill="white"/>
<path d="M107.963 80.5375V88.6404H108.025L107.954 258.037L108.025 88.6315L24.928 88.4895L25.425 258.037V265.129H214.463V80.5375H107.963ZM119.5 89.4125H202.925V258.037H119.5V89.4125ZM67.1375 93.85C77.7875 93.85 99.0875 99.175 99.975 121.362H73.35C72.4625 116.925 69.8 115.15 67.1375 115.15C63.5875 115.15 60.925 118.7 60.925 121.362H34.3C34.3 100.95 56.4875 93.85 67.1375 93.85ZM64.475 96.5125C58.2625 96.5125 53.3546 98.6247 48.0296 102.175L64.4839 114.262L64.475 96.5125ZM69.8 96.5125V114.262L86.6625 101.837C84 100.062 81.3375 99.175 78.675 98.2875C76.0125 97.4 72.4625 96.5125 69.8 96.5125ZM44.95 104.5C44.95 104.5 42.6691 106.479 40.8054 109.47C39.1549 111.972 38.2415 114.887 38.1695 117.883L60.0375 117.812L60.3304 116.96L60.8629 116.286L61.9456 115.248L44.95 104.5ZM89.325 104.5L72.4625 115.15L73.35 116.037L73.9713 116.889L74.2375 117.812H96.425C96.425 115.15 95.3423 111.866 93.8246 109.612C91.5438 106.142 89.325 104.5 89.325 104.5ZM34.3 127.575H64.475V152.425H34.3V127.575ZM70.6875 127.575H100.863V152.425H70.6875V127.575ZM36.075 129.35V150.65H62.7V129.35H36.075ZM72.4625 129.35V150.65H99.0875V129.35H72.4625ZM39.625 132.012H59.15V147.987H39.625V132.012ZM76.0125 132.012H95.5375V147.987H76.0125V132.012ZM77.7875 133.699V146.124H93.7803V133.699H77.7875ZM41.4 133.761V146.186H57.375V133.761H41.4ZM34.3 156.862H64.475V189.7H34.3V156.862ZM70.6875 156.862H100.863V189.7H70.6875V156.862ZM36.075 158.637V187.925H62.7V158.637H36.075ZM72.4625 158.637V187.925H99.0875V158.637H72.4625ZM39.625 161.3H59.15V185.262H39.625V161.3ZM76.0125 161.3H95.5375V185.262H76.0125V161.3ZM41.4 162.187V183.487H57.375V162.187H41.4ZM77.7875 162.187V183.487H93.7625V162.187H77.7875ZM34.3 196.8H64.475V251.825H34.3V196.8ZM70.6875 196.8H100.863V251.825H70.6875V196.8ZM36.7495 198.158V249.633H61.5995V198.158H36.7495ZM73.2258 198.513V250.006H98.0758V198.522L73.2258 198.513ZM38.7375 200.359H59.15V247.387H38.7375V200.359ZM75.48 200.359H95.8925V247.387H75.48V200.359ZM41.116 202.054V245.541H57.091V202.054H41.116ZM77.7964 202.125V245.612H93.7625V202.125H77.7964Z" fill="white"/>
<path d="M64.8428 42.1409C63.0751 43.0593 60.9788 43.5534 59.3768 43.3851L57.7112 39.8149L58.8187 39.2395L61.9961 42.7004L60.3769 42.8114L59.7332 42.1451C61.6478 42.3945 62.6751 42.1853 64.1233 41.4329C66.2956 40.3043 67.0423 38.6181 66.1129 36.8292C65.3494 35.3597 64.3011 34.9036 61.9528 35.0689L60.7305 35.163C57.3738 35.3654 55.2064 34.7335 53.945 32.3056C52.4844 29.4944 53.9554 26.7557 57.1926 25.0739C58.8538 24.2108 60.4704 23.9388 61.9652 24.1088L63.5533 27.5299L62.4245 28.1164L59.3995 24.7927L61.115 24.6588L61.7066 25.4332C60.0271 25.1157 59.1473 25.1401 57.9547 25.7598C56.0592 26.7446 55.2469 28.3566 56.1321 30.0604C56.9178 31.5725 58.2225 31.9494 60.1525 31.8121L61.4395 31.7384C65.3857 31.4732 67.1349 32.1331 68.341 34.4545C69.7905 37.2444 68.5911 40.1935 64.8428 42.1409Z" fill="white"/>
<path d="M88.0011 31.5223L87.8328 30.7729L91.4305 29.5963L92.3437 29.3913L96.1928 28.8962L96.361 29.6455L88.0011 31.5223ZM90.4364 30.9756C89.9179 28.3371 89.3028 25.5972 88.6878 22.8574L88.4407 21.7568C87.8256 19.017 87.221 16.3241 86.5462 13.6468L90.012 12.8688C90.5358 15.5307 91.1508 18.2705 91.7659 21.0103L92.013 22.1109C92.6176 24.8039 93.2274 27.5203 93.9022 30.1975L90.4364 30.9756ZM81.7567 19.8137L80.809 14.9348L95.7726 11.5756L96.9779 16.3966L95.7602 16.67L93.4075 12.1065L95.1762 12.6442L81.7581 15.6564L83.1507 14.4091L83.0213 19.5298L81.7567 19.8137Z" fill="white"/>
<path d="M112.733 27.02L112.756 26.2523L116.437 25.9996L116.773 26.0094L116.74 27.1369L112.733 27.02ZM114.964 27.0851C115.115 24.4003 115.197 21.5935 115.279 18.7867L115.311 17.6592C115.393 14.8524 115.474 12.0936 115.482 9.33266L119.033 9.43624C118.882 12.145 118.8 14.9518 118.714 17.9025L118.694 18.5743C118.605 21.6449 118.523 24.4278 118.515 27.1887L114.964 27.0851ZM116.74 27.1369L116.766 26.2493L125.954 26.5173L124.203 27.2826L125.515 22.6389L126.738 22.6746L126.575 27.4239L116.74 27.1369ZM116.991 18.5246L117.015 17.6849L122.917 17.8571L122.892 18.6967L116.991 18.5246ZM122.558 21.112L122.276 18.4386L122.29 17.9349L122.727 15.3065L123.807 15.338L123.637 21.1435L122.558 21.112ZM113.228 10.0592L113.251 9.26757L117.258 9.38445L117.225 10.488L116.89 10.4782L113.228 10.0592ZM125.256 14.2278L124.261 9.6368L125.915 10.5494L117.231 10.2961L117.258 9.38445L126.638 9.65811L126.527 14.2648L125.256 14.2278Z" fill="white"/>
<path d="M139.052 28.594L139.264 27.8557L142.893 28.5215L143.816 28.786L147.315 30.1638L147.104 30.902L139.052 28.594ZM141.198 29.209C142.008 26.6449 142.781 23.9456 143.555 21.2463L143.866 20.162C144.64 17.4627 145.4 14.8096 146.091 12.1366L149.506 13.1154C148.689 15.7025 147.916 18.4018 147.142 21.1011L146.679 22.7161C146.051 24.9078 145.303 27.5148 144.612 30.1878L141.198 29.209ZM144.876 22.8233L145.114 21.9927L147.721 22.74C150.674 23.5865 152.498 22.1871 153.232 19.6262C154.026 16.8577 153.098 15.0437 150.468 14.2898L147.561 13.4565L147.799 12.626L150.775 13.4791C155.689 14.8877 157.23 17.3517 156.324 20.5124C155.497 23.3962 152.835 25.1049 147.575 23.597L144.876 22.8233ZM143.728 12.2829L143.946 11.5216L147.799 12.626L147.494 13.6872L147.171 13.5946L143.728 12.2829Z" fill="white"/>
<path d="M170.221 40.4643C167.307 38.8406 166.352 36.6599 167.318 34.2857C167.854 33.8155 168.488 33.8116 168.971 34.0803C169.704 34.4891 169.934 35.1118 169.457 36.412L168.694 38.8167L168.059 37.6387C168.522 38.3363 168.941 38.817 169.738 39.2609C171.96 40.4991 173.91 39.9094 175.207 37.5823C176.55 35.1713 176.112 33.1963 173.848 31.9347L172.967 31.4441L173.411 30.6474L174.187 31.0796C176.094 32.1426 178.037 31.7138 179.38 29.3027C180.513 27.2691 180.145 25.6625 178.467 24.728C177.817 24.3659 177.065 24.1389 176.069 24.0514L177.559 24.1395L175.941 25.958C175.227 26.7964 174.507 26.8071 173.857 26.445C173.395 26.188 173.147 25.7471 173.147 25.2529C174.635 22.9773 177.259 23.1484 179.629 24.4684C182.731 26.1972 183.451 28.6038 182.248 30.7632C181.056 32.9017 178.675 33.7729 174.892 32.1318L175.055 31.8383C178.943 34.2791 179.497 36.7857 178.13 39.2386C176.705 41.7964 173.597 42.345 170.221 40.4643Z" fill="white"/>
</svg>
