<svg width="239" height="282" viewBox="0 0 239 282" fill="none" xmlns="http://www.w3.org/2000/svg">
<path d="M237 162.5C237 97.6065 184.393 45 119.5 45C54.6065 45 2 97.6065 2 162.5C2 227.393 54.6065 280 119.5 280C184.393 280 237 227.393 237 162.5Z" stroke="white" stroke-width="4"/>
<path d="M164.125 177.125C169.35 177.125 173.625 172.85 173.625 167.625C173.625 162.4 169.35 158.125 164.125 158.125C158.9 158.125 154.625 162.4 154.625 167.625C154.625 172.85 158.9 177.125 164.125 177.125ZM146.55 193.275L134.39 254.597C133.773 257.495 136.053 260.25 139.045 260.25H139.425C141.658 260.25 143.558 258.73 144.08 256.545L151.775 222.25L161.75 231.75V255.5C161.75 258.113 163.888 260.25 166.5 260.25C169.113 260.25 171.25 258.113 171.25 255.5V228.71C171.25 226.098 170.205 223.628 168.305 221.822L161.275 215.125L164.125 200.875C169.478 206.995 176.806 211.045 184.835 212.322C187.685 212.75 190.25 210.47 190.25 207.572C190.25 205.245 188.54 203.298 186.213 202.918C178.993 201.73 173.008 197.455 169.825 191.85L165.075 184.25C163.792 182.199 161.821 180.671 159.515 179.94C157.209 179.209 154.718 179.322 152.488 180.26L134.295 187.955C132.574 188.691 131.107 189.916 130.077 191.478C129.047 193.04 128.498 194.871 128.5 196.743V208C128.5 210.612 130.638 212.75 133.25 212.75C135.863 212.75 138 210.612 138 208V196.6L146.55 193.275Z" fill="white"/>
<path d="M108.724 81V88.1112H108.779L108.716 236.776L108.779 88.1034L36 87.9788L36.4353 236.776V243H202V81H108.724ZM118.829 88.7888H191.895V236.776H118.829V88.7888ZM72.9682 92.6832C82.2958 92.6832 100.951 97.3565 101.728 116.828H78.4093C77.632 112.934 75.3001 111.376 72.9682 111.376C69.8591 111.376 67.5272 114.492 67.5272 116.828H44.2083C44.2083 98.9143 63.6407 92.6832 72.9682 92.6832ZM70.6364 95.0199C65.1953 95.0199 60.8968 96.8736 56.233 99.9894L70.6442 110.597L70.6364 95.0199ZM75.3001 95.0199V110.597L90.0688 99.6927C87.7369 98.135 85.405 97.3565 83.0731 96.5776C80.7412 95.7988 77.632 95.0199 75.3001 95.0199ZM53.5358 102.03C53.5358 102.03 51.5381 103.767 49.9059 106.392C48.4603 108.587 47.6603 111.146 47.5973 113.775L66.7499 113.713L67.0064 112.965L67.4728 112.373L68.421 111.462L53.5358 102.03ZM92.4007 102.03L77.632 111.376L78.4093 112.155L78.9535 112.903L79.1866 113.713H98.6191C98.6191 111.376 97.6708 108.494 96.3415 106.516C94.344 103.471 92.4007 102.03 92.4007 102.03ZM44.2083 122.281H70.6364V144.089H44.2083V122.281ZM76.0774 122.281H102.506V144.089H76.0774V122.281ZM45.7629 123.839V142.532H69.0818V123.839H45.7629ZM77.632 123.839V142.532H100.951V123.839H77.632ZM48.872 126.175H65.9726V140.195H48.872V126.175ZM80.7412 126.175H97.8418V140.195H80.7412V126.175ZM82.2958 127.655V138.56H96.3027V127.655H82.2958ZM50.4266 127.71V138.614H64.418V127.71H50.4266ZM44.2083 147.983H70.6364V176.802H44.2083V147.983ZM76.0774 147.983H102.506V176.802H76.0774V147.983ZM45.7629 149.541V175.245H69.0818V149.541H45.7629ZM77.632 149.541V175.245H100.951V149.541H77.632ZM48.872 151.878H65.9726V172.908H48.872V151.878ZM80.7412 151.878H97.8418V172.908H80.7412V151.878ZM50.4266 152.657V171.35H64.418V152.657H50.4266ZM82.2958 152.657V171.35H96.2872V152.657H82.2958ZM44.2083 183.034H70.6364V231.324H44.2083V183.034ZM76.0774 183.034H102.506V231.324H76.0774V183.034ZM46.3536 184.225V229.401H68.1179V184.225H46.3536ZM78.3005 184.537V229.728H100.065V184.545L78.3005 184.537ZM48.0947 186.157H65.9726V227.429H48.0947V186.157ZM80.2748 186.157H98.1527V227.429H80.2748V186.157ZM50.1779 187.645V225.809H64.1692V187.645H50.1779ZM82.3036 187.707V225.872H96.2872V187.707H82.3036Z" fill="white"/>
<path d="M64.8428 42.1409C63.0751 43.0593 60.9788 43.5534 59.3768 43.3851L57.7112 39.8149L58.8187 39.2395L61.9961 42.7004L60.3769 42.8114L59.7332 42.1451C61.6478 42.3945 62.6751 42.1853 64.1233 41.4329C66.2956 40.3043 67.0423 38.6181 66.1129 36.8292C65.3494 35.3597 64.3011 34.9036 61.9528 35.0689L60.7305 35.163C57.3738 35.3654 55.2064 34.7335 53.945 32.3056C52.4844 29.4944 53.9554 26.7557 57.1926 25.0739C58.8538 24.2108 60.4704 23.9388 61.9652 24.1088L63.5533 27.5299L62.4245 28.1164L59.3995 24.7927L61.115 24.6588L61.7066 25.4332C60.0271 25.1157 59.1473 25.1401 57.9547 25.7598C56.0592 26.7446 55.2469 28.3566 56.1321 30.0604C56.9178 31.5725 58.2225 31.9494 60.1525 31.8121L61.4395 31.7384C65.3857 31.4732 67.135 32.1331 68.3411 34.4545C69.7906 37.2444 68.5911 40.1935 64.8428 42.1409Z" fill="white"/>
<path d="M88.0011 31.5223L87.8328 30.7729L91.4305 29.5963L92.3437 29.3913L96.1928 28.8962L96.361 29.6455L88.0011 31.5223ZM90.4364 30.9756C89.9179 28.3371 89.3028 25.5972 88.6878 22.8574L88.4407 21.7568C87.8256 19.017 87.221 16.3241 86.5462 13.6468L90.012 12.8688C90.5358 15.5307 91.1508 18.2705 91.7659 21.0103L92.013 22.1109C92.6176 24.8039 93.2274 27.5203 93.9022 30.1975L90.4364 30.9756ZM81.7567 19.8137L80.809 14.9348L95.7726 11.5756L96.9779 16.3966L95.7602 16.67L93.4075 12.1065L95.1762 12.6442L81.7581 15.6564L83.1507 14.4091L83.0213 19.5298L81.7567 19.8137Z" fill="white"/>
<path d="M112.733 27.02L112.756 26.2523L116.437 25.9996L116.773 26.0094L116.74 27.1369L112.733 27.02ZM114.964 27.0851C115.115 24.4003 115.197 21.5935 115.279 18.7867L115.311 17.6592C115.393 14.8524 115.474 12.0936 115.482 9.33267L119.033 9.43625C118.882 12.145 118.8 14.9518 118.714 17.9025L118.694 18.5743C118.605 21.6449 118.523 24.4278 118.515 27.1887L114.964 27.0851ZM116.74 27.1369L116.766 26.2493L125.954 26.5173L124.203 27.2826L125.515 22.6389L126.738 22.6746L126.575 27.4239L116.74 27.1369ZM116.991 18.5246L117.015 17.6849L122.917 17.8571L122.892 18.6967L116.991 18.5246ZM122.558 21.112L122.276 18.4386L122.29 17.9349L122.727 15.3065L123.807 15.338L123.637 21.1435L122.558 21.112ZM113.228 10.0592L113.251 9.26758L117.258 9.38446L117.225 10.488L116.89 10.4782L113.228 10.0592ZM125.256 14.2278L124.261 9.63681L125.915 10.5494L117.231 10.2961L117.258 9.38446L126.638 9.65812L126.527 14.2648L125.256 14.2278Z" fill="white"/>
<path d="M139.052 28.594L139.264 27.8557L142.893 28.5215L143.816 28.786L147.315 30.1638L147.104 30.902L139.052 28.594ZM141.198 29.209C142.008 26.6449 142.781 23.9456 143.555 21.2463L143.866 20.162C144.64 17.4627 145.4 14.8096 146.091 12.1366L149.506 13.1154C148.689 15.7025 147.916 18.4018 147.142 21.1011L146.679 22.7161C146.051 24.9078 145.303 27.5148 144.612 30.1878L141.198 29.209ZM144.876 22.8233L145.114 21.9927L147.721 22.74C150.674 23.5865 152.498 22.1871 153.232 19.6262C154.026 16.8577 153.098 15.0437 150.468 14.2898L147.561 13.4565L147.799 12.626L150.775 13.4791C155.689 14.8877 157.23 17.3517 156.324 20.5124C155.497 23.3962 152.835 25.1049 147.575 23.597L144.876 22.8233ZM143.728 12.2829L143.946 11.5216L147.799 12.626L147.494 13.6872L147.171 13.5946L143.728 12.2829Z" fill="white"/>
<path d="M170.221 40.4644C167.307 38.8407 166.352 36.66 167.318 34.2858C167.854 33.8156 168.488 33.8117 168.971 34.0804C169.704 34.4892 169.934 35.1119 169.457 36.4121L168.694 38.8168L168.059 37.6388C168.522 38.3364 168.941 38.8171 169.738 39.261C171.96 40.4992 173.91 39.9095 175.207 37.5824C176.55 35.1714 176.112 33.1964 173.848 31.9348L172.967 31.4442L173.411 30.6475L174.187 31.0797C176.094 32.1427 178.037 31.7139 179.38 29.3028C180.513 27.2692 180.145 25.6626 178.467 24.7281C177.817 24.366 177.065 24.139 176.069 24.0515L177.559 24.1396L175.941 25.9581C175.227 26.7965 174.507 26.8072 173.857 26.4451C173.395 26.1881 173.147 25.7472 173.147 25.253C174.635 22.9774 177.259 23.1485 179.629 24.4685C182.731 26.1973 183.451 28.6039 182.248 30.7633C181.056 32.9018 178.675 33.773 174.892 32.1319L175.055 31.8384C178.943 34.2792 179.497 36.7858 178.13 39.2387C176.705 41.7965 173.597 42.3451 170.221 40.4644Z" fill="white"/>
</svg>
