<svg width="30" height="31" viewBox="0 0 30 31" fill="none" xmlns="http://www.w3.org/2000/svg">
<path d="M4.35986 9.71225H26.178M12.5417 14.5607V21.8335M17.9962 14.5607V21.8335M5.7235 9.71225L7.08714 24.2577C7.08714 24.9007 7.37447 25.5173 7.88594 25.9719C8.3974 26.4265 9.09109 26.682 9.81441 26.682H20.7235C21.4468 26.682 22.1405 26.4265 22.652 25.9719C23.1634 25.5173 23.4508 24.9007 23.4508 24.2577L24.8144 9.71225M11.178 9.71225V6.07589C11.178 5.75442 11.3217 5.44611 11.5774 5.21879C11.8332 4.99147 12.18 4.86377 12.5417 4.86377H17.9962C18.3579 4.86377 18.7047 4.99147 18.9605 5.21879C19.2162 5.44611 19.3599 5.75442 19.3599 6.07589V9.71225" stroke="white" stroke-width="2" stroke-linecap="round" stroke-linejoin="round"/>
</svg>
