<svg width="51" height="39" viewBox="0 0 51 39" fill="none" xmlns="http://www.w3.org/2000/svg">
<path d="M36.6713 0.176993C36.8746 0.183735 37.0756 0.221033 37.2677 0.287631L48.8683 4.37519C49.3697 4.55186 49.8215 4.9593 50.0511 5.43875C50.2808 5.91787 50.3144 6.52623 50.1378 7.02753L42.9725 27.3697C42.796 27.871 42.3888 28.3263 41.9094 28.5558C41.4301 28.7856 40.8217 28.8193 40.3206 28.6426L28.7198 24.5549C28.2184 24.3783 27.7667 23.971 27.5371 23.4916L27.5336 23.4847C27.3068 23.0064 27.2747 22.4017 27.4504 21.9027L34.6157 1.56045C34.7913 1.06162 35.1955 0.608366 35.6719 0.377748L35.6787 0.374319C35.9184 0.259325 36.1911 0.19445 36.4661 0.179537C36.5348 0.175864 36.6029 0.174538 36.6713 0.176993ZM32.3424 1.74985L25.486 21.2112C25.1202 22.2529 25.1826 23.397 25.6594 24.3927C26.136 25.3875 26.9881 26.1524 28.0284 26.5192L31.0974 27.5999L24.4223 27.9958C23.8916 28.0275 23.3167 27.8253 22.9192 27.4726C22.5218 27.1195 22.254 26.5715 22.2224 26.0409L20.9419 4.51363C20.9103 3.98318 21.1088 3.405 21.4616 3.00742C21.8145 2.60983 22.3624 2.34221 22.8931 2.31052L32.3425 1.74962L32.3424 1.74985ZM18.9207 5.62543L20.1468 26.1654C20.2123 27.2673 20.7124 28.2981 21.5373 29.0317C22.363 29.7632 23.4453 30.1371 24.5465 30.0714L27.4457 29.8981L19.7563 32.5689C19.2542 32.7431 18.6434 32.7065 18.1652 32.4748C17.6868 32.2427 17.2836 31.7866 17.1093 31.2844L10.037 10.911C9.86269 10.4086 9.89932 9.79792 10.1311 9.31962C10.3631 8.84121 10.8191 8.43449 11.3214 8.26044L18.9206 5.62565L18.9207 5.62543ZM41.7746 7.3723C39.0879 10.1834 34.2282 9.44504 32.8511 12.5569C31.5666 15.4602 34.5326 17.6574 37.1332 16.7777L35.2851 20.2288L37.3856 20.9705L38.5575 17.4273C39.7467 19.9308 43.3843 20.0087 44.5854 17.2903C46.049 13.9783 41.8334 11.2914 41.7746 7.3723ZM8.27534 12.1723L15.1419 31.9674C15.5037 33.0097 16.2644 33.8659 17.257 34.3477L17.2675 34.3509C18.2582 34.8277 19.3972 34.893 20.4359 34.5326L22.6944 33.7485L17.9263 37.9331C17.5267 38.2836 16.9463 38.4779 16.4159 38.4432C15.8855 38.4086 15.3411 38.141 14.9906 37.7413L0.766238 21.5242C0.4157 21.1246 0.221411 20.5476 0.256191 20.0172C0.29075 19.4868 0.561784 18.939 0.961405 18.5885L8.27523 12.1722L8.27534 12.1723Z" fill="white"/>
</svg>
